<svg width="384" height="500" viewBox="0 0 384 500" fill="none" xmlns="http://www.w3.org/2000/svg">
<path d="M172.194 369.49V382.253V395.016V407.789H185.235V395.016V382.253V369.49H172.194Z" fill="fill"/>
<path d="M198.265 369.49V382.253V395.016V407.789H211.306V395.016V382.253V369.49H198.265Z" fill="fill"/>
<path d="M224.347 369.49V382.253V395.016V407.789H237.387V395.016V382.253V369.49H224.347Z" fill="fill"/>
<path d="M146.113 369.49V382.253V395.016V407.789H159.154V395.016V382.253V369.49H146.113Z" fill="fill"/>
<path d="M263.467 369.491V356.728H250.427V369.491V382.253V395.016V407.789V420.552H263.467V407.789H276.498V395.016V382.253V369.491H263.467Z" fill="white"/>
<path d="M224.346 420.552H211.305H198.264H185.234H172.193H159.153H146.112H133.071V407.789V395.016V382.253V369.49V356.728H146.112H159.153H172.193H185.234H198.264H211.305H224.346H237.387H250.427V343.955H237.387H224.346H211.305H198.264H185.234H172.193H159.153H146.112H133.071H120.03V356.728H107V369.49V382.253V395.016V407.789V420.552H120.03V433.315H133.071H146.112H159.153H172.193H185.234H198.264H211.305H224.346H237.387H250.427V420.552H237.387H224.346Z" fill="white"/>
<path d="M185.235 84.3762H172.194V97.139H185.235V84.3762Z" fill="white"/>
<path d="M185.235 58.8508H172.194V71.6136H185.235V58.8508Z" fill="white"/>
<path d="M185.235 71.6135H172.194V84.3763H185.235V71.6135Z" fill="white"/>
<path d="M211.306 84.3762H198.265V97.139H211.306V84.3762Z" fill="white"/>
<path d="M211.306 58.8508H198.265V71.6136H211.306V58.8508Z" fill="white"/>
<path d="M211.306 71.6135H198.265V84.3763H211.306V71.6135Z" fill="white"/>
<path d="M237.387 84.3762H224.347V97.139H237.387V84.3762Z" fill="white"/>
<path d="M237.387 58.8508H224.347V71.6136H237.387V58.8508Z" fill="white"/>
<path d="M237.387 71.6135H224.347V84.3763H237.387V71.6135Z" fill="white"/>
<path d="M159.154 84.3762H146.113V97.139H159.154V84.3762Z" fill="fill"/>
<path d="M159.154 71.6135H146.113V84.3763H159.154V71.6135Z" fill="fill"/>
<path d="M159.154 58.8508H146.113V71.6136H159.154V58.8508Z" fill="fill"/>
<path d="M263.467 58.8509V46.0881H250.427V58.8509V71.6137V84.3765V97.1496V109.912H263.467V97.1496H276.498V84.3765V71.6137V58.8509H263.467Z" fill="white"/>
<path d="M224.346 109.912H211.305H198.264H185.234H172.193H159.153H146.112H133.071V97.1494V84.3764V71.6136V58.8508V46.088H146.112H159.153H172.193H185.234H198.264H211.305H224.346H237.387H250.427V33.3149H237.387H224.346H211.305H198.264H185.234H172.193H159.153H146.112H133.071H120.03V46.088H107V58.8508V71.6136V84.3764V97.1494V109.912H120.03V122.675H133.071H146.112H159.153H172.193H185.234H198.264H211.305H224.346H237.387H250.427V109.912H237.387H224.346Z" fill="white"/>
</svg>
