<svg width="384" height="500" viewBox="0 0 384 500" fill="none" xmlns="http://www.w3.org/2000/svg">
<path d="M344.216 78.9621L365.405 57.7735L350.206 42.5638L329.006 63.7638L321.407 56.1532L342.596 34.9646L327.398 19.7549L306.198 40.9549L300.493 35.2499L292.893 42.849L284.153 34.1088L268.943 49.3186L276.554 56.9177L268.943 64.5169L276.554 72.1275L259.872 88.7977L271.271 100.208L257.556 113.923L272.766 129.133L286.481 115.418L297.126 126.052L313.797 109.382L320.643 116.216L328.242 108.617L335.853 116.216L351.051 101.018L344.593 94.5484L352.192 86.9492L344.216 78.9621Z" fill="fill"/>
<path d="M371.349 331.56H369.649V313.383H360.726V295.013H351.678V287.197H338.693V281.732H319.729V279.142H298.13V300.741H317.06V303.365H329.999V308.876H339.001V316.738H347.878V335.143H349.533V345.492H348.243V367.023H342.242V385.439H332.281V400.717H320.152V412.823H307.6V421.7H296.43V427.816H287.656V438.598H268.931V446.232H250.458V451.298H232.613V454.367H215.772V456.033H200.3V456.866H186.585V457.322H184.029V457.311H167.176V456.181H147.744V453.238H126.156V447.772H104.192V439.637H85.0114V430.178H68.5009V420.011H54.6376V409.776H43.3758V400.123H34.7041V391.703H11.8838V414.523H20.6011V422.898H31.8972V432.505H45.8175V442.706H62.3623V452.827H81.5769V462.252H103.599V470.341H125.221V475.761H144.698V478.671H161.585V479.755H184.029V479.721H197.812V479.23H208.948V478.351H222.618V476.64H238.044V473.525H254.84V468.424H272.64V460.745H291.067V449.917H309.757V443.756H318.486V434.833H329.622V422.693H342.116V407.38H354.211V388.907H364.126V367.331H370.082V353.365H371.349V331.56Z" fill="fill"/>
<path d="M293.622 280.579H272.068V302.133H293.622V280.579Z" fill="fill"/>
<path d="M267.859 285.36H246.351V306.868H267.859V285.36Z" fill="fill"/>
<path d="M243.556 292.572H222.093V314.034H243.556V292.572Z" fill="fill"/>
<path d="M12.2833 145.757H18.6045V162.496H28.9992V178.481H41.6758V192.253H54.7861V202.317H65.8768V207.668H78.1199V211.012H91.4241V212.404H111.243V211.879H125.449V209.483H140.488V205.272H142.861V217.321H149.285V236.799H153.815V256.424H156.177V273.927H156.085V291.932H153.256V308.922H147.334V329.837H159.953V333.089H154.773V330.442H133.813V342.981H129.42V346.758H118.614V351.505H118.01V357.564H106.349V361.945H103.93V362.538H101.625V383.624H122.711V383.065H125.061V379.209H130.629V372.716H139.233V367.753H139.62V364.227H150.677V354.38H164.769V343.803H181.302V333.123H200.072V322.979H220.884V301.551H199.455V311.729H178.677V322.443H168.249V312.779H174.125V294.728H176.909V275.821H176.955V255.032H174.547V235.646H169.972V216.066H163.502V199.271H172.596V191.569H189.483V182.19H206.769V171.179H224.341V158.582H242.095V144.456H259.918V128.836H277.706V109.439H258.309V125.013H240.475V139.105H222.607V151.656H204.807V162.621H187.189V171.966H169.869V179.634H155.412V177.705H145.987V159.575H135.513V142.608H124.262V127.124H112.51V113.478H100.541V101.988H88.6286V92.9965H77.0587V86.8465H66.1164V83.8684H45.8292V84.9866H33.7572V95.0275H19.1522V109.53H11.7812V129.692H12.2377V145.734L12.2833 145.757ZM39.4052 105.262H54.0444V104.19H56.7714V107.214H68.2957V113.409H80.1622V122.435H92.0859V133.959H103.793V147.651H114.997V163.169H125.426V180.181H134.805V189.766H120.737V192.116H105.664V192.596H97.9849V191.169H85.776V187.781H74.731V182.384H61.6664V172.274H49.024V158.457H38.675V142.425H32.3994V125.641H31.9886V115.258H39.4052V105.262Z" fill="fill"/>
</svg>
