<svg width="384" height="500" viewBox="0 0 384 500" fill="none" xmlns="http://www.w3.org/2000/svg">
<path d="M176.148 115.397L173.81 120.335L178.747 122.673L181.086 117.736L176.148 115.397Z" fill="#FEFF78"/>
<path d="M183.422 112.786L181.083 117.724L186.021 120.062L188.36 115.124L183.422 112.786Z" fill="#FEFF78"/>
<path d="M178.478 110.452L176.14 115.39L181.078 117.728L183.416 112.791L178.478 110.452Z" fill="#FEFF78"/>
<path d="M185.761 107.857L183.423 112.795L188.361 115.133L190.699 110.195L185.761 107.857Z" fill="#FEFF78"/>
<path d="M180.822 105.513L178.483 110.451L183.421 112.789L185.76 107.852L180.822 105.513Z" fill="#FEFF78"/>
<path d="M193.044 105.246L190.706 110.183L195.644 112.522L197.982 107.584L193.044 105.246Z" fill="#FEFF78"/>
<path d="M188.107 102.902L185.769 107.84L190.706 110.178L193.045 105.24L188.107 102.902Z" fill="#FEFF78"/>
<path d="M200.34 102.651L198.002 107.588L202.94 109.927L205.278 104.989L200.34 102.651Z" fill="#FEFF78"/>
<path d="M195.39 100.307L193.051 105.245L197.989 107.583L200.327 102.645L195.39 100.307Z" fill="#FEFF78"/>
<path d="M190.45 97.9626L188.112 102.9L193.05 105.239L195.388 100.301L190.45 97.9626Z" fill="#FEFF78"/>
<path d="M202.671 97.6953L200.333 102.633L205.27 104.971L207.609 100.034L202.671 97.6953Z" fill="#FEFF78"/>
<path d="M197.731 95.3564L195.393 100.294L200.33 102.632L202.669 97.6947L197.731 95.3564Z" fill="#FEFF78"/>
<path d="M214.893 97.4392L212.555 102.377L217.492 104.715L219.831 99.7775L214.893 97.4392Z" fill="#FEFF78"/>
<path d="M209.954 95.1001L207.615 100.038L212.553 102.376L214.891 97.4384L209.954 95.1001Z" fill="#FEFF78"/>
<path d="M205.016 92.7563L202.678 97.6941L207.616 100.032L209.954 95.0946L205.016 92.7563Z" fill="#FEFF78"/>
<path d="M200.063 90.4226L197.725 95.3604L202.663 97.6986L205.001 92.7609L200.063 90.4226Z" fill="#FEFF78"/>
<path d="M217.239 92.5L214.9 97.4377L219.838 99.776L222.177 94.8383L217.239 92.5Z" fill="#FEFF78"/>
<path d="M212.293 90.1713L209.955 95.1091L214.893 97.4474L217.231 92.5096L212.293 90.1713Z" fill="#FEFF78"/>
<path d="M207.356 87.8274L205.018 92.7651L209.955 95.1034L212.294 90.1657L207.356 87.8274Z" fill="#FEFF78"/>
<path d="M202.405 85.4721L200.066 90.4099L205.004 92.7482L207.343 87.8104L202.405 85.4721Z" fill="#FEFF78"/>
<path d="M219.578 87.5598L217.24 92.4976L222.178 94.8359L224.516 89.8981L219.578 87.5598Z" fill="#FEFF78"/>
<path d="M214.627 85.216L212.289 90.1538L217.227 92.4921L219.565 87.5543L214.627 85.216Z" fill="#FEFF78"/>
<path d="M209.699 82.8769L207.361 87.8147L212.299 90.153L214.637 85.2152L209.699 82.8769Z" fill="#FEFF78"/>
<path d="M231.805 87.2934L229.466 92.2312L234.404 94.5695L236.742 89.6317L231.805 87.2934Z" fill="#FEFF78"/>
<path d="M226.85 84.9599L224.512 89.8977L229.45 92.236L231.788 87.2982L226.85 84.9599Z" fill="#FEFF78"/>
<path d="M221.922 82.6208L219.583 87.5586L224.521 89.8969L226.86 84.9591L221.922 82.6208Z" fill="#FEFF78"/>
<path d="M216.971 80.2771L214.632 85.2148L219.57 87.5531L221.908 82.6154L216.971 80.2771Z" fill="#FEFF78"/>
<path d="M212.033 77.9331L209.695 82.8708L214.633 85.2091L216.971 80.2714L212.033 77.9331Z" fill="#FEFF78"/>
<path d="M207.098 75.5932L204.759 80.531L209.697 82.8693L212.035 77.9315L207.098 75.5932Z" fill="#FEFF78"/>
<path d="M202.148 73.2492L199.81 78.187L204.748 80.5253L207.086 75.5875L202.148 73.2492Z" fill="#FEFF78"/>
<path d="M197.209 70.9052L194.871 75.843L199.808 78.1813L202.147 73.2435L197.209 70.9052Z" fill="#FEFF78"/>
<path d="M192.269 68.5664L189.931 73.5042L194.869 75.8424L197.207 70.9047L192.269 68.5664Z" fill="#FEFF78"/>
<path d="M187.326 66.2329L184.988 71.1707L189.926 73.509L192.264 68.5712L187.326 66.2329Z" fill="#FEFF78"/>
<path d="M234.146 82.3532L231.808 87.291L236.745 89.6293L239.084 84.6915L234.146 82.3532Z" fill="#FEFF78"/>
<path d="M229.206 80.0095L226.868 84.9473L231.806 87.2856L234.144 82.3478L229.206 80.0095Z" fill="#FEFF78"/>
<path d="M224.256 77.6655L221.917 82.6033L226.855 84.9416L229.194 80.0038L224.256 77.6655Z" fill="#FEFF78"/>
<path d="M219.323 75.3369L216.985 80.2747L221.923 82.613L224.261 77.6752L219.323 75.3369Z" fill="#FEFF78"/>
<path d="M214.371 72.9931L212.033 77.9309L216.971 80.2692L219.309 75.3314L214.371 72.9931Z" fill="#FEFF78"/>
<path d="M209.432 70.6491L207.093 75.5869L212.031 77.9252L214.369 72.9874L209.432 70.6491Z" fill="#FEFF78"/>
<path d="M204.492 68.3103L202.154 73.248L207.092 75.5863L209.43 70.6486L204.492 68.3103Z" fill="#FEFF78"/>
<path d="M199.549 65.9765L197.21 70.9143L202.148 73.2526L204.487 68.3148L199.549 65.9765Z" fill="#FEFF78"/>
<path d="M194.596 63.6328L192.258 68.5706L197.196 70.9089L199.534 65.9711L194.596 63.6328Z" fill="#FEFF78"/>
<path d="M246.368 82.0971L244.03 87.0349L248.968 89.3732L251.306 84.4354L246.368 82.0971Z" fill="#FEFF78"/>
<path d="M241.429 79.7531L239.091 84.6909L244.029 87.0292L246.367 82.0914L241.429 79.7531Z" fill="#FEFF78"/>
<path d="M173.805 120.336L171.466 125.274L176.404 127.612L178.742 122.675L173.805 120.336Z" fill="#FEFF78"/>
<path d="M188.372 115.13L186.034 120.067L190.972 122.406L193.31 117.468L188.372 115.13Z" fill="#FEFF78"/>
<path d="M190.705 110.186L188.366 115.124L193.304 117.462L195.642 112.524L190.705 110.186Z" fill="#FEFF78"/>
<path d="M205.268 104.989L202.93 109.927L207.868 112.266L210.206 107.328L205.268 104.989Z" fill="#FEFF78"/>
<path d="M207.612 100.05L205.274 104.988L210.212 107.327L212.55 102.389L207.612 100.05Z" fill="#FEFF78"/>
<path d="M219.834 99.7829L217.496 104.721L222.434 107.059L224.772 102.121L219.834 99.7829Z" fill="#FEFF78"/>
<path d="M214.893 97.4392L212.555 102.377L217.492 104.715L219.831 99.7775L214.893 97.4392Z" fill="#FEFF78"/>
<path d="M222.178 94.8437L219.84 99.7815L224.778 102.12L227.116 97.182L222.178 94.8437Z" fill="#FEFF78"/>
<path d="M224.521 89.8935L222.183 94.8313L227.121 97.1696L229.459 92.2318L224.521 89.8935Z" fill="#FEFF78"/>
<path d="M236.744 89.6374L234.406 94.5752L239.344 96.9135L241.682 91.9757L236.744 89.6374Z" fill="#FEFF78"/>
<path d="M231.805 87.2934L229.466 92.2312L234.404 94.5695L236.742 89.6317L231.805 87.2934Z" fill="#FEFF78"/>
<path d="M239.074 84.6923L236.736 89.6301L241.674 91.9684L244.012 87.0306L239.074 84.6923Z" fill="#FEFF78"/>
<path d="M251.325 84.4306L248.986 89.3684L253.924 91.7067L256.262 86.7689L251.325 84.4306Z" fill="#FEFF78"/>
<path d="M246.368 82.0971L244.03 87.0349L248.968 89.3732L251.306 84.4354L246.368 82.0971Z" fill="#FEFF78"/>
<path d="M236.489 77.4143L234.151 82.3521L239.089 84.6903L241.427 79.7526L236.489 77.4143Z" fill="#FEFF78"/>
<path d="M231.55 75.0703L229.211 80.0081L234.149 82.3464L236.488 77.4086L231.55 75.0703Z" fill="#FEFF78"/>
<path d="M226.594 72.7368L224.255 77.6746L229.193 80.0129L231.531 75.0751L226.594 72.7368Z" fill="#FEFF78"/>
<path d="M221.667 70.3979L219.329 75.3357L224.266 77.674L226.605 72.7362L221.667 70.3979Z" fill="#FEFF78"/>
<path d="M216.714 68.0539L214.376 72.9917L219.314 75.33L221.652 70.3922L216.714 68.0539Z" fill="#FEFF78"/>
<path d="M211.779 65.6987L209.44 70.6365L214.378 72.9748L216.717 68.037L211.779 65.6987Z" fill="#FEFF78"/>
<path d="M206.831 63.3701L204.493 68.3079L209.431 70.6462L211.769 65.7084L206.831 63.3701Z" fill="#FEFF78"/>
<path d="M201.892 61.0263L199.554 65.9641L204.492 68.3024L206.83 63.3646L201.892 61.0263Z" fill="#FEFF78"/>
<path d="M196.943 58.6821L194.605 63.6199L199.543 65.9582L201.881 61.0204L196.943 58.6821Z" fill="#FEFF78"/>
<path d="M248.712 77.1582L246.374 82.0959L251.311 84.4342L253.65 79.4965L248.712 77.1582Z" fill="#FEFF78"/>
<path d="M243.772 74.8142L241.434 79.752L246.372 82.0903L248.71 77.1525L243.772 74.8142Z" fill="#FEFF78"/>
<path d="M238.824 72.4589L236.485 77.3967L241.423 79.735L243.761 74.7972L238.824 72.4589Z" fill="#FEFF78"/>
<path d="M233.89 70.1303L231.551 75.0681L236.489 77.4064L238.827 72.4686L233.89 70.1303Z" fill="#FEFF78"/>
<path d="M228.937 67.7866L226.599 72.7244L231.536 75.0627L233.875 70.1249L228.937 67.7866Z" fill="#FEFF78"/>
<path d="M224.001 65.4423L221.663 70.3801L226.6 72.7184L228.939 67.7806L224.001 65.4423Z" fill="#FEFF78"/>
<path d="M219.061 63.1035L216.723 68.0413L221.661 70.3796L223.999 65.4418L219.061 63.1035Z" fill="#FEFF78"/>
<path d="M214.117 60.77L211.778 65.7078L216.716 68.0461L219.054 63.1083L214.117 60.77Z" fill="#FEFF78"/>
<path d="M209.165 58.4262L206.827 63.364L211.765 65.7023L214.103 60.7645L209.165 58.4262Z" fill="#FEFF78"/>
<path d="M204.237 56.0871L201.899 61.0249L206.837 63.3632L209.175 58.4254L204.237 56.0871Z" fill="#FEFF78"/>
<path d="M199.287 53.7434L196.948 58.6812L201.886 61.0194L204.224 56.0817L199.287 53.7434Z" fill="#FEFF78"/>
<path d="M226.339 60.5139L224 65.4517L228.938 67.79L231.277 62.8522L226.339 60.5139Z" fill="#FEFF78"/>
<path d="M221.388 58.1699L219.05 63.1077L223.988 65.446L226.326 60.5082L221.388 58.1699Z" fill="#FEFF78"/>
<path d="M216.46 55.831L214.122 60.7688L219.059 63.1071L221.398 58.1693L216.46 55.831Z" fill="#FEFF78"/>
<path d="M211.509 53.4758L209.171 58.4136L214.109 60.7519L216.447 55.8141L211.509 53.4758Z" fill="#FEFF78"/>
<path d="M206.57 51.1318L204.231 56.0696L209.169 58.4079L211.508 53.4701L206.57 51.1318Z" fill="#FEFF78"/>
<path d="M233.611 57.9023L231.272 62.8401L236.21 65.1784L238.549 60.2406L233.611 57.9023Z" fill="#FEFF78"/>
<path d="M228.682 55.5634L226.344 60.5012L231.282 62.8395L233.62 57.9017L228.682 55.5634Z" fill="#FEFF78"/>
<path d="M223.731 53.2197L221.393 58.1575L226.331 60.4958L228.669 55.558L223.731 53.2197Z" fill="#FEFF78"/>
<path d="M218.794 50.8757L216.456 55.8135L221.393 58.1518L223.732 53.214L218.794 50.8757Z" fill="#FEFF78"/>
<path d="M213.847 48.5469L211.509 53.4846L216.447 55.8229L218.785 50.8851L213.847 48.5469Z" fill="#FEFF78"/>
<path d="M208.911 46.2031L206.573 51.1409L211.511 53.4792L213.849 48.5414L208.911 46.2031Z" fill="#FEFF78"/>
<path d="M235.956 52.9633L233.618 57.9011L238.555 60.2394L240.894 55.3016L235.956 52.9633Z" fill="#FEFF78"/>
<path d="M231.026 50.6242L228.688 55.562L233.625 57.9003L235.964 52.9625L231.026 50.6242Z" fill="#FEFF78"/>
<path d="M226.077 48.2805L223.738 53.2183L228.676 55.5566L231.014 50.6188L226.077 48.2805Z" fill="#FEFF78"/>
<path d="M221.134 45.9467L218.795 50.8845L223.733 53.2228L226.072 48.285L221.134 45.9467Z" fill="#FEFF78"/>
<path d="M216.204 43.5964L213.865 48.5342L218.803 50.8725L221.141 45.9347L216.204 43.5964Z" fill="#FEFF78"/>
<path d="M211.254 41.2527L208.916 46.1904L213.854 48.5287L216.192 43.591L211.254 41.2527Z" fill="#FEFF78"/>
<path d="M243.25 50.3569L240.912 55.2947L245.849 57.633L248.188 52.6952L243.25 50.3569Z" fill="#FEFF78"/>
<path d="M238.309 48.0129L235.97 52.9507L240.908 55.289L243.246 50.3512L238.309 48.0129Z" fill="#FEFF78"/>
<path d="M233.358 45.6689L231.02 50.6067L235.957 52.945L238.296 48.0072L233.358 45.6689Z" fill="#FEFF78"/>
<path d="M228.426 43.3403L226.087 48.2781L231.025 50.6164L233.364 45.6786L228.426 43.3403Z" fill="#FEFF78"/>
<path d="M223.475 40.9963L221.137 45.9341L226.075 48.2724L228.413 43.3346L223.475 40.9963Z" fill="#FEFF78"/>
<path d="M218.536 38.6525L216.197 43.5903L221.135 45.9286L223.473 40.9908L218.536 38.6525Z" fill="#FEFF78"/>
<path d="M213.596 36.3134L211.258 41.2512L216.196 43.5895L218.534 38.6517L213.596 36.3134Z" fill="#FEFF78"/>
<path d="M245.58 45.4128L243.242 50.3506L248.18 52.6889L250.518 47.7511L245.58 45.4128Z" fill="#FEFF78"/>
<path d="M240.648 43.0842L238.31 48.022L243.248 50.3603L245.586 45.4225L240.648 43.0842Z" fill="#FEFF78"/>
<path d="M235.698 40.7404L233.359 45.6782L238.297 48.0165L240.635 43.0787L235.698 40.7404Z" fill="#FEFF78"/>
<path d="M230.76 38.3965L228.422 43.3342L233.36 45.6725L235.698 40.7348L230.76 38.3965Z" fill="#FEFF78"/>
<path d="M225.819 36.0576L223.48 40.9954L228.418 43.3337L230.757 38.3959L225.819 36.0576Z" fill="#FEFF78"/>
<path d="M220.875 33.7238L218.537 38.6616L223.475 40.9999L225.813 36.0621L220.875 33.7238Z" fill="#FEFF78"/>
<path d="M252.878 42.8176L250.54 47.7554L255.478 50.0937L257.816 45.1559L252.878 42.8176Z" fill="#FEFF78"/>
<path d="M247.922 40.4726L245.583 45.4104L250.521 47.7487L252.86 42.8109L247.922 40.4726Z" fill="#FEFF78"/>
<path d="M242.994 38.1338L240.655 43.0715L245.593 45.4098L247.931 40.472L242.994 38.1338Z" fill="#FEFF78"/>
<path d="M238.043 35.7898L235.705 40.7275L240.642 43.0658L242.981 38.1281L238.043 35.7898Z" fill="#FEFF78"/>
<path d="M233.103 33.4463L230.765 38.384L235.703 40.7223L238.041 35.7845L233.103 33.4463Z" fill="#FEFF78"/>
<path d="M228.158 31.1174L225.82 36.0552L230.758 38.3935L233.096 33.4557L228.158 31.1174Z" fill="#FEFF78"/>
<path d="M223.219 28.7734L220.88 33.7112L225.818 36.0495L228.156 31.1117L223.219 28.7734Z" fill="#FEFF78"/>
<path d="M208.9 422.623L205.29 426.724L209.391 430.334L213.001 426.232L208.9 422.623Z" fill="#FEFF78"/>
<path d="M208.405 414.898L204.796 419L208.897 422.609L212.507 418.508L208.405 414.898Z" fill="#FEFF78"/>
<path d="M204.797 418.994L201.188 423.095L205.289 426.704L208.898 422.603L204.797 418.994Z" fill="#FEFF78"/>
<path d="M204.295 411.278L200.686 415.379L204.787 418.989L208.396 414.887L204.295 411.278Z" fill="#FEFF78"/>
<path d="M200.694 415.392L197.084 419.493L201.186 423.103L204.795 419.002L200.694 415.392Z" fill="#FEFF78"/>
<path d="M203.814 403.565L200.205 407.666L204.306 411.275L207.915 407.174L203.814 403.565Z" fill="#FEFF78"/>
<path d="M200.198 407.668L196.588 411.769L200.69 415.379L204.299 411.277L200.198 407.668Z" fill="#FEFF78"/>
<path d="M203.32 395.84L199.71 399.942L203.812 403.551L207.421 399.45L203.32 395.84Z" fill="#FEFF78"/>
<path d="M199.698 399.952L196.089 404.053L200.19 407.662L203.8 403.561L199.698 399.952Z" fill="#FEFF78"/>
<path d="M196.087 404.047L192.478 408.148L196.579 411.758L200.189 407.657L196.087 404.047Z" fill="#FEFF78"/>
<path d="M199.206 392.231L195.596 396.332L199.698 399.942L203.307 395.84L199.206 392.231Z" fill="#FEFF78"/>
<path d="M195.595 396.334L191.986 400.435L196.087 404.045L199.697 399.943L195.595 396.334Z" fill="#FEFF78"/>
<path d="M202.336 380.411L198.726 384.513L202.827 388.122L206.437 384.021L202.336 380.411Z" fill="#FEFF78"/>
<path d="M198.713 384.507L195.104 388.608L199.205 392.217L202.815 388.116L198.713 384.507Z" fill="#FEFF78"/>
<path d="M195.107 388.618L191.497 392.719L195.598 396.329L199.208 392.228L195.107 388.618Z" fill="#FEFF78"/>
<path d="M191.491 392.721L187.881 396.822L191.983 400.432L195.592 396.33L191.491 392.721Z" fill="#FEFF78"/>
<path d="M198.223 376.791L194.614 380.892L198.715 384.502L202.325 380.4L198.223 376.791Z" fill="#FEFF78"/>
<path d="M194.611 380.894L191.001 384.995L195.103 388.604L198.712 384.503L194.611 380.894Z" fill="#FEFF78"/>
<path d="M191.002 385.005L187.393 389.106L191.494 392.716L195.103 388.615L191.002 385.005Z" fill="#FEFF78"/>
<path d="M187.38 389.112L183.771 393.213L187.872 396.823L191.481 392.721L187.38 389.112Z" fill="#FEFF78"/>
<path d="M194.117 373.18L190.507 377.282L194.609 380.891L198.218 376.79L194.117 373.18Z" fill="#FEFF78"/>
<path d="M190.499 377.284L186.889 381.386L190.991 384.995L194.6 380.894L190.499 377.284Z" fill="#FEFF78"/>
<path d="M186.886 381.387L183.276 385.489L187.378 389.098L190.987 384.997L186.886 381.387Z" fill="#FEFF78"/>
<path d="M197.237 361.353L193.627 365.454L197.729 369.064L201.338 364.962L197.237 361.353Z" fill="#FEFF78"/>
<path d="M193.626 365.465L190.017 369.566L194.118 373.175L197.727 369.074L193.626 365.465Z" fill="#FEFF78"/>
<path d="M190.005 369.56L186.395 373.661L190.496 377.271L194.106 373.169L190.005 369.56Z" fill="#FEFF78"/>
<path d="M186.398 373.671L182.788 377.773L186.889 381.382L190.499 377.281L186.398 373.671Z" fill="#FEFF78"/>
<path d="M182.783 377.774L179.174 381.875L183.275 385.485L186.885 381.384L182.783 377.774Z" fill="#FEFF78"/>
<path d="M179.182 381.888L175.573 385.99L179.674 389.599L183.284 385.498L179.182 381.888Z" fill="#FEFF78"/>
<path d="M175.553 385.992L171.943 390.094L176.045 393.703L179.654 389.602L175.553 385.992Z" fill="#FEFF78"/>
<path d="M171.951 390.095L168.342 394.197L172.443 397.806L176.053 393.705L171.951 390.095Z" fill="#FEFF78"/>
<path d="M168.332 394.207L164.722 398.308L168.824 401.918L172.433 397.816L168.332 394.207Z" fill="#FEFF78"/>
<path d="M164.721 398.302L161.111 402.404L165.213 406.013L168.822 401.912L164.721 398.302Z" fill="#FEFF78"/>
<path d="M193.132 357.74L189.522 361.841L193.624 365.451L197.233 361.349L193.132 357.74Z" fill="#FEFF78"/>
<path d="M189.524 361.835L185.914 365.937L190.015 369.546L193.625 365.445L189.524 361.835Z" fill="#FEFF78"/>
<path d="M185.901 365.958L182.292 370.06L186.393 373.669L190.003 369.568L185.901 365.958Z" fill="#FEFF78"/>
<path d="M182.3 370.061L178.691 374.162L182.792 377.772L186.402 373.67L182.3 370.061Z" fill="#FEFF78"/>
<path d="M178.671 374.165L175.062 378.266L179.163 381.876L182.772 377.774L178.671 374.165Z" fill="#FEFF78"/>
<path d="M175.07 378.268L171.46 382.369L175.562 385.979L179.171 381.877L175.07 378.268Z" fill="#FEFF78"/>
<path d="M171.459 382.371L167.85 386.472L171.951 390.082L175.56 385.98L171.459 382.371Z" fill="#FEFF78"/>
<path d="M167.847 386.482L164.237 390.584L168.339 394.193L171.948 390.092L167.847 386.482Z" fill="#FEFF78"/>
<path d="M164.227 390.578L160.617 394.679L164.719 398.288L168.328 394.187L164.227 390.578Z" fill="#FEFF78"/>
<path d="M196.252 345.924L192.643 350.025L196.744 353.635L200.353 349.534L196.252 345.924Z" fill="#FEFF78"/>
<path d="M192.642 350.019L189.032 354.121L193.134 357.73L196.743 353.629L192.642 350.019Z" fill="#FEFF78"/>
<path d="M213.003 426.225L209.393 430.326L213.494 433.935L217.104 429.834L213.003 426.225Z" fill="#FEFF78"/>
<path d="M212.018 410.795L208.409 414.897L212.51 418.506L216.12 414.405L212.018 410.795Z" fill="#FEFF78"/>
<path d="M207.913 407.166L204.304 411.268L208.405 414.877L212.015 410.776L207.913 407.166Z" fill="#FEFF78"/>
<path d="M206.921 391.737L203.312 395.839L207.413 399.448L211.022 395.347L206.921 391.737Z" fill="#FEFF78"/>
<path d="M202.817 388.124L199.207 392.226L203.308 395.835L206.918 391.734L202.817 388.124Z" fill="#FEFF78"/>
<path d="M205.935 376.308L202.325 380.41L206.427 384.019L210.036 379.918L205.935 376.308Z" fill="#FEFF78"/>
<path d="M202.336 380.411L198.726 384.513L202.827 388.122L206.437 384.021L202.336 380.411Z" fill="#FEFF78"/>
<path d="M201.832 372.679L198.223 376.781L202.324 380.39L205.933 376.289L201.832 372.679Z" fill="#FEFF78"/>
<path d="M197.731 369.078L194.122 373.179L198.223 376.788L201.832 372.687L197.731 369.078Z" fill="#FEFF78"/>
<path d="M200.851 357.25L197.242 361.352L201.343 364.961L204.953 360.86L200.851 357.25Z" fill="#FEFF78"/>
<path d="M197.237 361.353L193.627 365.454L197.729 369.064L201.338 364.962L197.237 361.353Z" fill="#FEFF78"/>
<path d="M196.747 353.637L193.137 357.739L197.239 361.348L200.848 357.247L196.747 353.637Z" fill="#FEFF78"/>
<path d="M199.865 341.81L196.255 345.911L200.357 349.521L203.966 345.419L199.865 341.81Z" fill="#FEFF78"/>
<path d="M196.252 345.924L192.643 350.025L196.744 353.635L200.353 349.534L196.252 345.924Z" fill="#FEFF78"/>
<path d="M189.024 354.131L185.414 358.232L189.515 361.842L193.125 357.74L189.024 354.131Z" fill="#FEFF78"/>
<path d="M185.421 358.234L181.811 362.335L185.912 365.944L189.522 361.843L185.421 358.234Z" fill="#FEFF78"/>
<path d="M181.8 362.345L178.191 366.447L182.292 370.056L185.902 365.955L181.8 362.345Z" fill="#FEFF78"/>
<path d="M178.19 366.441L174.581 370.542L178.682 374.151L182.291 370.05L178.19 366.441Z" fill="#FEFF78"/>
<path d="M174.577 370.543L170.968 374.645L175.069 378.254L178.679 374.153L174.577 370.543Z" fill="#FEFF78"/>
<path d="M170.956 374.655L167.346 378.756L171.448 382.366L175.057 378.264L170.956 374.655Z" fill="#FEFF78"/>
<path d="M167.345 378.762L163.735 382.863L167.837 386.472L171.446 382.371L167.345 378.762Z" fill="#FEFF78"/>
<path d="M163.723 382.873L160.114 386.974L164.215 390.584L167.825 386.482L163.723 382.873Z" fill="#FEFF78"/>
<path d="M160.122 386.976L156.513 391.077L160.614 394.687L164.224 390.586L160.122 386.976Z" fill="#FEFF78"/>
<path d="M192.142 342.303L188.532 346.405L192.634 350.014L196.243 345.913L192.142 342.303Z" fill="#FEFF78"/>
<path d="M188.529 346.406L184.92 350.508L189.021 354.117L192.631 350.016L188.529 346.406Z" fill="#FEFF78"/>
<path d="M184.924 350.509L181.315 354.611L185.416 358.22L189.026 354.119L184.924 350.509Z" fill="#FEFF78"/>
<path d="M181.297 354.613L177.688 358.715L181.789 362.324L185.398 358.223L181.297 354.613Z" fill="#FEFF78"/>
<path d="M177.696 358.728L174.086 362.829L178.188 366.438L181.797 362.337L177.696 358.728Z" fill="#FEFF78"/>
<path d="M174.076 362.839L170.466 366.94L174.568 370.55L178.177 366.448L174.076 362.839Z" fill="#FEFF78"/>
<path d="M170.473 366.942L166.863 371.043L170.965 374.653L174.574 370.551L170.473 366.942Z" fill="#FEFF78"/>
<path d="M166.845 371.046L163.236 375.147L167.337 378.756L170.947 374.655L166.845 371.046Z" fill="#FEFF78"/>
<path d="M163.244 375.149L159.635 379.25L163.736 382.859L167.346 378.758L163.244 375.149Z" fill="#FEFF78"/>
<path d="M159.628 379.251L156.019 383.353L160.12 386.962L163.729 382.861L159.628 379.251Z" fill="#FEFF78"/>
<path d="M156.013 383.355L152.404 387.457L156.505 391.066L160.115 386.965L156.013 383.355Z" fill="#FEFF78"/>
<path d="M169.971 359.21L166.362 363.311L170.463 366.921L174.073 362.819L169.971 359.21Z" fill="#FEFF78"/>
<path d="M166.362 363.321L162.753 367.423L166.854 371.032L170.464 366.931L166.362 363.321Z" fill="#FEFF78"/>
<path d="M162.748 367.424L159.139 371.525L163.24 375.135L166.85 371.034L162.748 367.424Z" fill="#FEFF78"/>
<path d="M159.139 371.547L155.53 375.648L159.631 379.258L163.241 375.156L159.139 371.547Z" fill="#FEFF78"/>
<path d="M155.519 375.642L151.91 379.744L156.011 383.353L159.62 379.252L155.519 375.642Z" fill="#FEFF78"/>
<path d="M169.483 351.494L165.873 355.595L169.974 359.205L173.584 355.103L169.483 351.494Z" fill="#FEFF78"/>
<path d="M165.868 355.608L162.259 359.709L166.36 363.319L169.97 359.218L165.868 355.608Z" fill="#FEFF78"/>
<path d="M162.259 359.719L158.65 363.821L162.751 367.43L166.361 363.329L162.259 359.719Z" fill="#FEFF78"/>
<path d="M158.638 363.815L155.028 367.916L159.13 371.526L162.739 367.424L158.638 363.815Z" fill="#FEFF78"/>
<path d="M155.035 367.918L151.425 372.019L155.527 375.629L159.136 371.527L155.035 367.918Z" fill="#FEFF78"/>
<path d="M151.415 372.029L147.805 376.131L151.907 379.74L155.516 375.639L151.415 372.029Z" fill="#FEFF78"/>
<path d="M165.376 347.884L161.767 351.985L165.868 355.594L169.477 351.493L165.376 347.884Z" fill="#FEFF78"/>
<path d="M161.765 351.995L158.156 356.096L162.257 359.706L165.867 355.605L161.765 351.995Z" fill="#FEFF78"/>
<path d="M158.144 356.091L154.534 360.192L158.636 363.801L162.245 359.7L158.144 356.091Z" fill="#FEFF78"/>
<path d="M154.535 360.202L150.925 364.303L155.027 367.912L158.636 363.811L154.535 360.202Z" fill="#FEFF78"/>
<path d="M150.921 364.305L147.311 368.406L151.412 372.016L155.022 367.914L150.921 364.305Z" fill="#FEFF78"/>
<path d="M147.304 368.42L143.695 372.521L147.796 376.131L151.406 372.029L147.304 368.42Z" fill="#FEFF78"/>
<path d="M164.884 340.168L161.274 344.269L165.376 347.879L168.985 343.777L164.884 340.168Z" fill="#FEFF78"/>
<path d="M161.264 344.263L157.654 348.365L161.756 351.974L165.365 347.873L161.264 344.263Z" fill="#FEFF78"/>
<path d="M157.655 348.386L154.045 352.487L158.147 356.097L161.756 351.995L157.655 348.386Z" fill="#FEFF78"/>
<path d="M154.041 352.489L150.431 356.59L154.533 360.2L158.142 356.098L154.041 352.489Z" fill="#FEFF78"/>
<path d="M150.44 356.592L146.83 360.693L150.931 364.302L154.541 360.201L150.44 356.592Z" fill="#FEFF78"/>
<path d="M146.812 360.696L143.203 364.797L147.304 368.406L150.913 364.305L146.812 360.696Z" fill="#FEFF78"/>
<path d="M143.211 364.798L139.601 368.9L143.702 372.509L147.312 368.408L143.211 364.798Z" fill="#FEFF78"/>
<path d="M160.781 336.55L157.171 340.651L161.273 344.261L164.882 340.159L160.781 336.55Z" fill="#FEFF78"/>
<path d="M157.161 340.662L153.551 344.763L157.653 348.372L161.262 344.271L157.161 340.662Z" fill="#FEFF78"/>
<path d="M153.558 344.764L149.948 348.866L154.05 352.475L157.659 348.374L153.558 344.764Z" fill="#FEFF78"/>
<path d="M149.94 348.876L146.33 352.977L150.431 356.587L154.041 352.485L149.94 348.876Z" fill="#FEFF78"/>
<path d="M146.327 352.971L142.718 357.073L146.819 360.682L150.429 356.581L146.327 352.971Z" fill="#FEFF78"/>
<path d="M142.707 357.082L139.098 361.184L143.199 364.793L146.809 360.692L142.707 357.082Z" fill="#FEFF78"/>
<path d="M160.281 328.834L156.671 332.935L160.773 336.545L164.382 332.443L160.281 328.834Z" fill="#FEFF78"/>
<path d="M156.68 332.937L153.07 337.038L157.172 340.648L160.781 336.546L156.68 332.937Z" fill="#FEFF78"/>
<path d="M153.058 337.048L149.449 341.15L153.55 344.759L157.16 340.658L153.058 337.048Z" fill="#FEFF78"/>
<path d="M149.447 341.144L145.838 345.245L149.939 348.855L153.549 344.753L149.447 341.144Z" fill="#FEFF78"/>
<path d="M145.835 345.258L142.226 349.359L146.327 352.969L149.936 348.867L145.835 345.258Z" fill="#FEFF78"/>
<path d="M142.213 349.369L138.604 353.471L142.705 357.08L146.314 352.979L142.213 349.369Z" fill="#FEFF78"/>
<path d="M138.612 353.472L135.002 357.574L139.104 361.183L142.713 357.082L138.612 353.472Z" fill="#FEFF78"/>
<path d="M46.1316 212.871H35.4209V223.582H46.1316V212.871Z" fill="#FEFF78"/>
<path d="M56.8533 202.161H46.1426V212.871H56.8533V202.161Z" fill="#FEFF78"/>
<path d="M46.1316 202.161H35.4209V212.871H46.1316V202.161Z" fill="#FEFF78"/>
<path d="M56.8533 191.438H46.1426V202.149H56.8533V191.438Z" fill="#FEFF78"/>
<path d="M46.1316 191.438H35.4209V202.149H46.1316V191.438Z" fill="#FEFF78"/>
<path d="M67.5632 180.728H56.8525V191.438H67.5632V180.728Z" fill="#FEFF78"/>
<path d="M56.8533 180.728H46.1426V191.438H56.8533V180.728Z" fill="#FEFF78"/>
<path d="M78.2849 170.017H67.5742V180.728H78.2849V170.017Z" fill="#FEFF78"/>
<path d="M67.5632 170.017H56.8525V180.728H67.5632V170.017Z" fill="#FEFF78"/>
<path d="M56.8533 170.017H46.1426V180.728H56.8533V170.017Z" fill="#FEFF78"/>
<path d="M78.2849 159.295H67.5742V170.006H78.2849V159.295Z" fill="#FEFF78"/>
<path d="M67.5632 159.295H56.8525V170.006H67.5632V159.295Z" fill="#FEFF78"/>
<path d="M99.718 148.584H89.0073V159.295H99.718V148.584Z" fill="#FEFF78"/>
<path d="M88.9968 148.584H78.2861V159.295H88.9968V148.584Z" fill="#FEFF78"/>
<path d="M78.2849 148.584H67.5742V159.295H78.2849V148.584Z" fill="#FEFF78"/>
<path d="M67.5632 148.584H56.8525V159.295H67.5632V148.584Z" fill="#FEFF78"/>
<path d="M99.718 137.863H89.0073V148.573H99.718V137.863Z" fill="#FEFF78"/>
<path d="M88.9968 137.863H78.2861V148.573H88.9968V137.863Z" fill="#FEFF78"/>
<path d="M78.2849 137.863H67.5742V148.573H78.2849V137.863Z" fill="#FEFF78"/>
<path d="M67.5632 137.863H56.8525V148.573H67.5632V137.863Z" fill="#FEFF78"/>
<path d="M99.718 127.152H89.0073V137.863H99.718V127.152Z" fill="#FEFF78"/>
<path d="M88.9968 127.152H78.2861V137.863H88.9968V127.152Z" fill="#FEFF78"/>
<path d="M78.2849 127.152H67.5742V137.863H78.2849V127.152Z" fill="#FEFF78"/>
<path d="M121.142 116.43H110.431V127.141H121.142V116.43Z" fill="#FEFF78"/>
<path d="M110.43 116.43H99.7192V127.141H110.43V116.43Z" fill="#FEFF78"/>
<path d="M99.718 116.43H89.0073V127.141H99.718V116.43Z" fill="#FEFF78"/>
<path d="M88.9968 116.43H78.2861V127.141H88.9968V116.43Z" fill="#FEFF78"/>
<path d="M78.2849 116.43H67.5742V127.141H78.2849V116.43Z" fill="#FEFF78"/>
<path d="M67.5632 116.43H56.8525V127.141H67.5632V116.43Z" fill="#FEFF78"/>
<path d="M56.8533 116.43H46.1426V127.141H56.8533V116.43Z" fill="#FEFF78"/>
<path d="M46.1316 116.43H35.4209V127.141H46.1316V116.43Z" fill="#FEFF78"/>
<path d="M35.4216 116.43H24.7109V127.141H35.4216V116.43Z" fill="#FEFF78"/>
<path d="M24.7097 116.43H13.999V127.141H24.7097V116.43Z" fill="#FEFF78"/>
<path d="M121.142 105.719H110.431V116.43H121.142V105.719Z" fill="#FEFF78"/>
<path d="M110.43 105.719H99.7192V116.43H110.43V105.719Z" fill="#FEFF78"/>
<path d="M99.718 105.719H89.0073V116.43H99.718V105.719Z" fill="#FEFF78"/>
<path d="M88.9968 105.719H78.2861V116.43H88.9968V105.719Z" fill="#FEFF78"/>
<path d="M78.2849 105.719H67.5742V116.43H78.2849V105.719Z" fill="#FEFF78"/>
<path d="M67.5632 105.719H56.8525V116.43H67.5632V105.719Z" fill="#FEFF78"/>
<path d="M56.8533 105.719H46.1426V116.43H56.8533V105.719Z" fill="#FEFF78"/>
<path d="M46.1316 105.719H35.4209V116.43H46.1316V105.719Z" fill="#FEFF78"/>
<path d="M35.4216 105.719H24.7109V116.43H35.4216V105.719Z" fill="#FEFF78"/>
<path d="M142.573 95.0088H131.863V105.719H142.573V95.0088Z" fill="#FEFF78"/>
<path d="M131.863 95.0088H121.152V105.719H131.863V95.0088Z" fill="#FEFF78"/>
<path d="M46.1316 223.593H35.4209V234.304H46.1316V223.593Z" fill="#FEFF78"/>
<path d="M67.5632 202.161H56.8525V212.871H67.5632V202.161Z" fill="#FEFF78"/>
<path d="M67.5632 191.438H56.8525V202.149H67.5632V191.438Z" fill="#FEFF78"/>
<path d="M88.9968 170.017H78.2861V180.728H88.9968V170.017Z" fill="#FEFF78"/>
<path d="M88.9968 159.295H78.2861V170.006H88.9968V159.295Z" fill="#FEFF78"/>
<path d="M110.43 148.584H99.7192V159.295H110.43V148.584Z" fill="#FEFF78"/>
<path d="M99.718 148.584H89.0073V159.295H99.718V148.584Z" fill="#FEFF78"/>
<path d="M110.43 137.863H99.7192V148.573H110.43V137.863Z" fill="#FEFF78"/>
<path d="M110.43 127.152H99.7192V137.862H110.43V127.152Z" fill="#FEFF78"/>
<path d="M131.863 116.43H121.152V127.141H131.863V116.43Z" fill="#FEFF78"/>
<path d="M121.142 116.43H110.431V127.141H121.142V116.43Z" fill="#FEFF78"/>
<path d="M131.863 105.719H121.152V116.43H131.863V105.719Z" fill="#FEFF78"/>
<path d="M153.297 95.0088H142.586V105.719H153.297V95.0088Z" fill="#FEFF78"/>
<path d="M142.573 95.0088H131.863V105.719H142.573V95.0088Z" fill="#FEFF78"/>
<path d="M121.142 95.0088H110.431V105.719H121.142V95.0088Z" fill="#FEFF78"/>
<path d="M110.43 95.0088H99.7192V105.719H110.43V95.0088Z" fill="#FEFF78"/>
<path d="M99.718 95.0088H89.0073V105.719H99.718V95.0088Z" fill="#FEFF78"/>
<path d="M88.9968 95.0088H78.2861V105.719H88.9968V95.0088Z" fill="#FEFF78"/>
<path d="M78.2849 95.0088H67.5742V105.719H78.2849V95.0088Z" fill="#FEFF78"/>
<path d="M67.5632 95.0088H56.8525V105.719H67.5632V95.0088Z" fill="#FEFF78"/>
<path d="M56.8533 95.0088H46.1426V105.719H56.8533V95.0088Z" fill="#FEFF78"/>
<path d="M46.1316 95.0088H35.4209V105.719H46.1316V95.0088Z" fill="#FEFF78"/>
<path d="M35.4216 95.0088H24.7109V105.719H35.4216V95.0088Z" fill="#FEFF78"/>
<path d="M142.573 84.2866H131.863V94.9973H142.573V84.2866Z" fill="#FEFF78"/>
<path d="M131.863 84.2866H121.152V94.9973H131.863V84.2866Z" fill="#FEFF78"/>
<path d="M121.142 84.2866H110.431V94.9973H121.142V84.2866Z" fill="#FEFF78"/>
<path d="M110.43 84.2866H99.7192V94.9973H110.43V84.2866Z" fill="#FEFF78"/>
<path d="M99.718 84.2866H89.0073V94.9973H99.718V84.2866Z" fill="#FEFF78"/>
<path d="M88.9968 84.2866H78.2861V94.9973H88.9968V84.2866Z" fill="#FEFF78"/>
<path d="M78.2849 84.2866H67.5742V94.9973H78.2849V84.2866Z" fill="#FEFF78"/>
<path d="M67.5632 84.2866H56.8525V94.9973H67.5632V84.2866Z" fill="#FEFF78"/>
<path d="M56.8533 84.2866H46.1426V94.9973H56.8533V84.2866Z" fill="#FEFF78"/>
<path d="M46.1316 84.2866H35.4209V94.9973H46.1316V84.2866Z" fill="#FEFF78"/>
<path d="M35.4216 84.2866H24.7109V94.9973H35.4216V84.2866Z" fill="#FEFF78"/>
<path d="M88.9968 73.5759H78.2861V84.2866H88.9968V73.5759Z" fill="#FEFF78"/>
<path d="M78.2849 73.5759H67.5742V84.2866H78.2849V73.5759Z" fill="#FEFF78"/>
<path d="M67.5632 73.5759H56.8525V84.2866H67.5632V73.5759Z" fill="#FEFF78"/>
<path d="M56.8533 73.5759H46.1426V84.2866H56.8533V73.5759Z" fill="#FEFF78"/>
<path d="M46.1316 73.5759H35.4209V84.2866H46.1316V73.5759Z" fill="#FEFF78"/>
<path d="M99.718 62.854H89.0073V73.5646H99.718V62.854Z" fill="#FEFF78"/>
<path d="M88.9968 62.854H78.2861V73.5646H88.9968V62.854Z" fill="#FEFF78"/>
<path d="M78.2849 62.854H67.5742V73.5646H78.2849V62.854Z" fill="#FEFF78"/>
<path d="M67.5632 62.854H56.8525V73.5646H67.5632V62.854Z" fill="#FEFF78"/>
<path d="M56.8533 62.854H46.1426V73.5646H56.8533V62.854Z" fill="#FEFF78"/>
<path d="M46.1316 62.854H35.4209V73.5646H46.1316V62.854Z" fill="#FEFF78"/>
<path d="M99.718 52.1433H89.0073V62.854H99.718V52.1433Z" fill="#FEFF78"/>
<path d="M88.9968 52.1433H78.2861V62.854H88.9968V52.1433Z" fill="#FEFF78"/>
<path d="M78.2849 52.1433H67.5742V62.854H78.2849V52.1433Z" fill="#FEFF78"/>
<path d="M67.5632 52.1433H56.8525V62.854H67.5632V52.1433Z" fill="#FEFF78"/>
<path d="M56.8533 52.1433H46.1426V62.854H56.8533V52.1433Z" fill="#FEFF78"/>
<path d="M46.1316 52.1433H35.4209V62.854H46.1316V52.1433Z" fill="#FEFF78"/>
<path d="M110.43 41.4326H99.7192V52.1433H110.43V41.4326Z" fill="#FEFF78"/>
<path d="M99.718 41.4326H89.0073V52.1433H99.718V41.4326Z" fill="#FEFF78"/>
<path d="M88.9968 41.4326H78.2861V52.1433H88.9968V41.4326Z" fill="#FEFF78"/>
<path d="M78.2849 41.4326H67.5742V52.1433H78.2849V41.4326Z" fill="#FEFF78"/>
<path d="M67.5632 41.4326H56.8525V52.1433H67.5632V41.4326Z" fill="#FEFF78"/>
<path d="M56.8533 41.4326H46.1426V52.1433H56.8533V41.4326Z" fill="#FEFF78"/>
<path d="M46.1316 41.4326H35.4209V52.1433H46.1316V41.4326Z" fill="#FEFF78"/>
<path d="M110.43 30.7107H99.7192V41.4213H110.43V30.7107Z" fill="#FEFF78"/>
<path d="M99.718 30.7107H89.0073V41.4213H99.718V30.7107Z" fill="#FEFF78"/>
<path d="M88.9968 30.7107H78.2861V41.4213H88.9968V30.7107Z" fill="#FEFF78"/>
<path d="M78.2849 30.7107H67.5742V41.4213H78.2849V30.7107Z" fill="#FEFF78"/>
<path d="M67.5632 30.7107H56.8525V41.4213H67.5632V30.7107Z" fill="#FEFF78"/>
<path d="M56.8533 30.7107H46.1426V41.4213H56.8533V30.7107Z" fill="#FEFF78"/>
<path d="M121.142 20H110.431V30.7106H121.142V20Z" fill="#FEFF78"/>
<path d="M110.43 20H99.7192V30.7106H110.43V20Z" fill="#FEFF78"/>
<path d="M99.718 20H89.0073V30.7106H99.718V20Z" fill="#FEFF78"/>
<path d="M88.9968 20H78.2861V30.7106H88.9968V20Z" fill="#FEFF78"/>
<path d="M78.2849 20H67.5742V30.7106H78.2849V20Z" fill="#FEFF78"/>
<path d="M67.5632 20H56.8525V30.7106H67.5632V20Z" fill="#FEFF78"/>
<path d="M56.8533 20H46.1426V30.7106H56.8533V20Z" fill="#FEFF78"/>
<path d="M267.151 459.296H256.805V469.642H267.151V459.296Z" fill="#FEFF78"/>
<path d="M277.498 448.949H267.152V459.296H277.498V448.949Z" fill="#FEFF78"/>
<path d="M267.151 448.949H256.805V459.296H267.151V448.949Z" fill="#FEFF78"/>
<path d="M277.498 438.603H267.152V448.949H277.498V438.603Z" fill="#FEFF78"/>
<path d="M267.151 438.603H256.805V448.949H267.151V438.603Z" fill="#FEFF78"/>
<path d="M287.845 428.256H277.499V438.603H287.845V428.256Z" fill="#FEFF78"/>
<path d="M277.498 428.256H267.152V438.603H277.498V428.256Z" fill="#FEFF78"/>
<path d="M298.192 417.91H287.846V428.257H298.192V417.91Z" fill="#FEFF78"/>
<path d="M287.845 417.91H277.499V428.257H287.845V417.91Z" fill="#FEFF78"/>
<path d="M277.498 417.91H267.152V428.257H277.498V417.91Z" fill="#FEFF78"/>
<path d="M298.192 407.563H287.846V417.91H298.192V407.563Z" fill="#FEFF78"/>
<path d="M287.845 407.563H277.499V417.91H287.845V407.563Z" fill="#FEFF78"/>
<path d="M318.897 397.206H308.551V407.552H318.897V397.206Z" fill="#FEFF78"/>
<path d="M308.551 397.206H298.204V407.552H308.551V397.206Z" fill="#FEFF78"/>
<path d="M298.192 397.206H287.846V407.552H298.192V397.206Z" fill="#FEFF78"/>
<path d="M287.845 397.206H277.499V407.552H287.845V397.206Z" fill="#FEFF78"/>
<path d="M318.897 386.859H308.551V397.206H318.897V386.859Z" fill="#FEFF78"/>
<path d="M308.551 386.859H298.204V397.206H308.551V386.859Z" fill="#FEFF78"/>
<path d="M298.192 386.859H287.846V397.206H298.192V386.859Z" fill="#FEFF78"/>
<path d="M287.845 386.859H277.499V397.206H287.845V386.859Z" fill="#FEFF78"/>
<path d="M318.897 376.513H308.551V386.859H318.897V376.513Z" fill="#FEFF78"/>
<path d="M308.551 376.513H298.204V386.859H308.551V376.513Z" fill="#FEFF78"/>
<path d="M298.192 376.513H287.846V386.859H298.192V376.513Z" fill="#FEFF78"/>
<path d="M339.589 366.167H329.243V376.513H339.589V366.167Z" fill="#FEFF78"/>
<path d="M329.242 366.167H318.896V376.513H329.242V366.167Z" fill="#FEFF78"/>
<path d="M318.897 366.167H308.551V376.513H318.897V366.167Z" fill="#FEFF78"/>
<path d="M308.551 366.167H298.204V376.513H308.551V366.167Z" fill="#FEFF78"/>
<path d="M298.192 366.167H287.846V376.513H298.192V366.167Z" fill="#FEFF78"/>
<path d="M287.845 366.167H277.499V376.513H287.845V366.167Z" fill="#FEFF78"/>
<path d="M277.498 366.167H267.152V376.513H277.498V366.167Z" fill="#FEFF78"/>
<path d="M267.151 366.167H256.805V376.513H267.151V366.167Z" fill="#FEFF78"/>
<path d="M256.806 366.167H246.459V376.513H256.806V366.167Z" fill="#FEFF78"/>
<path d="M246.459 366.167H236.112V376.513H246.459V366.167Z" fill="#FEFF78"/>
<path d="M339.589 355.82H329.243V366.167H339.589V355.82Z" fill="#FEFF78"/>
<path d="M329.242 355.82H318.896V366.167H329.242V355.82Z" fill="#FEFF78"/>
<path d="M318.897 355.82H308.551V366.167H318.897V355.82Z" fill="#FEFF78"/>
<path d="M308.551 355.82H298.204V366.167H308.551V355.82Z" fill="#FEFF78"/>
<path d="M298.192 355.82H287.846V366.167H298.192V355.82Z" fill="#FEFF78"/>
<path d="M287.845 355.82H277.499V366.167H287.845V355.82Z" fill="#FEFF78"/>
<path d="M277.498 355.82H267.152V366.167H277.498V355.82Z" fill="#FEFF78"/>
<path d="M267.151 355.82H256.805V366.167H267.151V355.82Z" fill="#FEFF78"/>
<path d="M256.806 355.82H246.459V366.167H256.806V355.82Z" fill="#FEFF78"/>
<path d="M360.28 345.474H349.933V355.82H360.28V345.474Z" fill="#FEFF78"/>
<path d="M349.935 345.474H339.588V355.82H349.935V345.474Z" fill="#FEFF78"/>
<path d="M267.151 469.654H256.805V480H267.151V469.654Z" fill="#FEFF78"/>
<path d="M287.845 448.949H277.499V459.296H287.845V448.949Z" fill="#FEFF78"/>
<path d="M287.845 438.603H277.499V448.949H287.845V438.603Z" fill="#FEFF78"/>
<path d="M308.551 417.91H298.204V428.257H308.551V417.91Z" fill="#FEFF78"/>
<path d="M308.551 407.563H298.204V417.91H308.551V407.563Z" fill="#FEFF78"/>
<path d="M329.242 397.206H318.896V407.552H329.242V397.206Z" fill="#FEFF78"/>
<path d="M318.897 397.206H308.551V407.552H318.897V397.206Z" fill="#FEFF78"/>
<path d="M329.242 386.859H318.896V397.206H329.242V386.859Z" fill="#FEFF78"/>
<path d="M329.242 376.513H318.896V386.859H329.242V376.513Z" fill="#FEFF78"/>
<path d="M349.935 366.167H339.588V376.513H349.935V366.167Z" fill="#FEFF78"/>
<path d="M339.589 366.167H329.243V376.513H339.589V366.167Z" fill="#FEFF78"/>
<path d="M349.935 355.82H339.588V366.167H349.935V355.82Z" fill="#FEFF78"/>
<path d="M370.638 345.474H360.292V355.82H370.638V345.474Z" fill="#FEFF78"/>
<path d="M360.28 345.474H349.933V355.82H360.28V345.474Z" fill="#FEFF78"/>
<path d="M339.589 345.474H329.243V355.82H339.589V345.474Z" fill="#FEFF78"/>
<path d="M329.242 345.474H318.896V355.82H329.242V345.474Z" fill="#FEFF78"/>
<path d="M318.897 345.474H308.551V355.82H318.897V345.474Z" fill="#FEFF78"/>
<path d="M308.551 345.474H298.204V355.82H308.551V345.474Z" fill="#FEFF78"/>
<path d="M298.192 345.474H287.846V355.82H298.192V345.474Z" fill="#FEFF78"/>
<path d="M287.845 345.474H277.499V355.82H287.845V345.474Z" fill="#FEFF78"/>
<path d="M277.498 345.474H267.152V355.82H277.498V345.474Z" fill="#FEFF78"/>
<path d="M267.151 345.474H256.805V355.82H267.151V345.474Z" fill="#FEFF78"/>
<path d="M256.806 345.474H246.459V355.82H256.806V345.474Z" fill="#FEFF78"/>
<path d="M360.28 335.116H349.933V345.462H360.28V335.116Z" fill="#FEFF78"/>
<path d="M349.935 335.116H339.588V345.462H349.935V335.116Z" fill="#FEFF78"/>
<path d="M339.589 335.116H329.243V345.462H339.589V335.116Z" fill="#FEFF78"/>
<path d="M329.242 335.116H318.896V345.462H329.242V335.116Z" fill="#FEFF78"/>
<path d="M318.897 335.116H308.551V345.462H318.897V335.116Z" fill="#FEFF78"/>
<path d="M308.551 335.116H298.204V345.462H308.551V335.116Z" fill="#FEFF78"/>
<path d="M298.192 335.116H287.846V345.462H298.192V335.116Z" fill="#FEFF78"/>
<path d="M287.845 335.116H277.499V345.462H287.845V335.116Z" fill="#FEFF78"/>
<path d="M277.498 335.116H267.152V345.462H277.498V335.116Z" fill="#FEFF78"/>
<path d="M267.151 335.116H256.805V345.462H267.151V335.116Z" fill="#FEFF78"/>
<path d="M256.806 335.116H246.459V345.462H256.806V335.116Z" fill="#FEFF78"/>
<path d="M308.551 324.77H298.204V335.116H308.551V324.77Z" fill="#FEFF78"/>
<path d="M298.192 324.77H287.846V335.116H298.192V324.77Z" fill="#FEFF78"/>
<path d="M287.845 324.77H277.499V335.116H287.845V324.77Z" fill="#FEFF78"/>
<path d="M277.498 324.77H267.152V335.116H277.498V324.77Z" fill="#FEFF78"/>
<path d="M267.151 324.77H256.805V335.116H267.151V324.77Z" fill="#FEFF78"/>
<path d="M318.897 314.423H308.551V324.77H318.897V314.423Z" fill="#FEFF78"/>
<path d="M308.551 314.423H298.204V324.77H308.551V314.423Z" fill="#FEFF78"/>
<path d="M298.192 314.423H287.846V324.77H298.192V314.423Z" fill="#FEFF78"/>
<path d="M287.845 314.423H277.499V324.77H287.845V314.423Z" fill="#FEFF78"/>
<path d="M277.498 314.423H267.152V324.77H277.498V314.423Z" fill="#FEFF78"/>
<path d="M267.151 314.423H256.805V324.77H267.151V314.423Z" fill="#FEFF78"/>
<path d="M318.897 304.077H308.551V314.423H318.897V304.077Z" fill="#FEFF78"/>
<path d="M308.551 304.077H298.204V314.423H308.551V304.077Z" fill="#FEFF78"/>
<path d="M298.192 304.077H287.846V314.423H298.192V304.077Z" fill="#FEFF78"/>
<path d="M287.845 304.077H277.499V314.423H287.845V304.077Z" fill="#FEFF78"/>
<path d="M277.498 304.077H267.152V314.423H277.498V304.077Z" fill="#FEFF78"/>
<path d="M267.151 304.077H256.805V314.423H267.151V304.077Z" fill="#FEFF78"/>
<path d="M329.242 293.73H318.896V304.077H329.242V293.73Z" fill="#FEFF78"/>
<path d="M318.897 293.73H308.551V304.077H318.897V293.73Z" fill="#FEFF78"/>
<path d="M308.551 293.73H298.204V304.077H308.551V293.73Z" fill="#FEFF78"/>
<path d="M298.192 293.73H287.846V304.077H298.192V293.73Z" fill="#FEFF78"/>
<path d="M287.845 293.73H277.499V304.077H287.845V293.73Z" fill="#FEFF78"/>
<path d="M277.498 293.73H267.152V304.077H277.498V293.73Z" fill="#FEFF78"/>
<path d="M267.151 293.73H256.805V304.077H267.151V293.73Z" fill="#FEFF78"/>
<path d="M329.242 283.384H318.896V293.73H329.242V283.384Z" fill="#FEFF78"/>
<path d="M318.897 283.384H308.551V293.73H318.897V283.384Z" fill="#FEFF78"/>
<path d="M308.551 283.384H298.204V293.73H308.551V283.384Z" fill="#FEFF78"/>
<path d="M298.192 283.384H287.846V293.73H298.192V283.384Z" fill="#FEFF78"/>
<path d="M287.845 283.384H277.499V293.73H287.845V283.384Z" fill="#FEFF78"/>
<path d="M277.498 283.384H267.152V293.73H277.498V283.384Z" fill="#FEFF78"/>
<path d="M339.589 273.026H329.243V283.373H339.589V273.026Z" fill="#FEFF78"/>
<path d="M329.242 273.026H318.896V283.373H329.242V273.026Z" fill="#FEFF78"/>
<path d="M318.897 273.026H308.551V283.373H318.897V273.026Z" fill="#FEFF78"/>
<path d="M308.551 273.026H298.204V283.373H308.551V273.026Z" fill="#FEFF78"/>
<path d="M298.192 273.026H287.846V283.373H298.192V273.026Z" fill="#FEFF78"/>
<path d="M287.845 273.026H277.499V283.373H287.845V273.026Z" fill="#FEFF78"/>
<path d="M277.498 273.026H267.152V283.373H277.498V273.026Z" fill="#FEFF78"/>
</svg>
