<svg width="384" height="500" viewBox="0 0 384 500" fill="none" xmlns="http://www.w3.org/2000/svg">
<path d="M90.368 40.9026H85.0303V46.1282H90.368V40.9026Z" fill="fill"/>
<path d="M79.704 40.9026H74.3662V46.1282H79.704V40.9026Z" fill="fill"/>
<path d="M85.0306 46.1282H79.6929V51.3538H85.0306V46.1282Z" fill="fill"/>
<path d="M74.3666 40.9023H69.0288V46.128H74.3666V40.9023Z" fill="fill"/>
<path d="M63.6913 40.9026H58.3535V46.1282H63.6913V40.9026Z" fill="fill"/>
<path d="M63.6913 46.1282H58.3535V51.3538H63.6913V46.1282Z" fill="fill"/>
<path d="M69.0287 40.9026H63.6909V46.1282H69.0287V40.9026Z" fill="fill"/>
<path d="M69.0287 46.1282H63.6909V51.3538H69.0287V46.1282Z" fill="fill"/>
<path d="M58.3539 51.3538H53.0161V56.5794H58.3539V51.3538Z" fill="fill"/>
<path d="M58.3539 56.5793H53.0161V61.805H58.3539V56.5793Z" fill="fill"/>
<path d="M63.6913 56.5793H58.3535V61.805H63.6913V56.5793Z" fill="fill"/>
<path d="M53.014 56.5793H47.6763V61.805H53.014V56.5793Z" fill="fill"/>
<path d="M58.3539 61.7937H53.0161V67.0193H58.3539V61.7937Z" fill="fill"/>
<path d="M53.014 67.0193H47.6763V72.2449H53.014V67.0193Z" fill="fill"/>
<path d="M53.014 61.7937H47.6763V67.0193H53.014V61.7937Z" fill="fill"/>
<path d="M47.6766 61.7937H42.3389V67.0193H47.6766V61.7937Z" fill="fill"/>
<path d="M42.3392 61.7937H37.0015V67.0193H42.3392V61.7937Z" fill="fill"/>
<path d="M47.6766 67.0193H42.3389V72.2449H47.6766V67.0193Z" fill="fill"/>
<path d="M42.3392 67.0193H37.0015V72.2449H42.3392V67.0193Z" fill="fill"/>
<path d="M58.3539 67.0193H53.0161V72.2449H58.3539V67.0193Z" fill="fill"/>
<path d="M53.014 72.2449H47.6763V77.4705H53.014V72.2449Z" fill="fill"/>
<path d="M58.3539 72.2449H53.0161V77.4705H58.3539V72.2449Z" fill="fill"/>
<path d="M53.014 77.4705H47.6763V82.6961H53.014V77.4705Z" fill="fill"/>
<path d="M53.014 82.6963H47.6763V87.9219H53.014V82.6963Z" fill="fill"/>
<path d="M47.6766 72.2449H42.3389V77.4705H47.6766V72.2449Z" fill="fill"/>
<path d="M37.0018 67.0193H31.6641V72.2449H37.0018V67.0193Z" fill="fill"/>
<path d="M47.6766 77.4705H42.3389V82.6961H47.6766V77.4705Z" fill="fill"/>
<path d="M42.3392 72.2449H37.0015V77.4705H42.3392V72.2449Z" fill="fill"/>
<path d="M47.6766 82.6963H42.3389V87.9219H47.6766V82.6963Z" fill="fill"/>
<path d="M42.3392 77.4705H37.0015V82.6961H42.3392V77.4705Z" fill="fill"/>
<path d="M37.0018 72.2449H31.6641V77.4705H37.0018V72.2449Z" fill="fill"/>
<path d="M79.704 56.5793H74.3662V61.805H79.704V56.5793Z" fill="fill"/>
<path d="M79.704 61.7937H74.3662V67.0193H79.704V61.7937Z" fill="fill"/>
<path d="M74.3666 61.7937H69.0288V67.0193H74.3666V61.7937Z" fill="fill"/>
<path d="M85.0306 67.0193H79.6929V72.2449H85.0306V67.0193Z" fill="fill"/>
<path d="M85.0306 61.7937H79.6929V67.0193H85.0306V61.7937Z" fill="fill"/>
<path d="M90.368 61.7937H85.0303V67.0193H90.368V61.7937Z" fill="fill"/>
<path d="M95.7053 61.7937H90.3677V67.0193H95.7053V61.7937Z" fill="fill"/>
<path d="M90.368 67.0193H85.0303V72.2449H90.368V67.0193Z" fill="fill"/>
<path d="M95.7053 67.0193H90.3677V72.2449H95.7053V67.0193Z" fill="fill"/>
<path d="M79.704 67.0193H74.3662V72.2449H79.704V67.0193Z" fill="fill"/>
<path d="M85.0306 72.2449H79.6929V77.4705H85.0306V72.2449Z" fill="fill"/>
<path d="M85.0306 77.4705H79.6929V82.6961H85.0306V77.4705Z" fill="fill"/>
<path d="M85.0306 82.6963H79.6929V87.9219H85.0306V82.6963Z" fill="fill"/>
<path d="M90.368 72.2449H85.0303V77.4705H90.368V72.2449Z" fill="fill"/>
<path d="M101.043 67.0193H95.7051V72.2449H101.043V67.0193Z" fill="fill"/>
<path d="M90.368 77.4705H85.0303V82.6961H90.368V77.4705Z" fill="fill"/>
<path d="M95.7053 72.2449H90.3677V77.4705H95.7053V72.2449Z" fill="fill"/>
<path d="M90.368 82.6963H85.0303V87.9219H90.368V82.6963Z" fill="fill"/>
<path d="M95.7053 77.4705H90.3677V82.6961H95.7053V77.4705Z" fill="fill"/>
<path d="M101.043 72.2449H95.7051V77.4705H101.043V72.2449Z" fill="fill"/>
<path d="M74.3666 51.3538H69.0288V56.5794H74.3666V51.3538Z" fill="fill"/>
<path d="M74.3666 46.1282H69.0288V51.3538H74.3666V46.1282Z" fill="fill"/>
<path d="M69.0287 51.3538H63.6909V56.5794H69.0287V51.3538Z" fill="fill"/>
<path d="M63.6913 51.3538H58.3535V56.5794H63.6913V51.3538Z" fill="fill"/>
<path d="M69.0287 56.5793H63.6909V61.805H69.0287V56.5793Z" fill="fill"/>
<path d="M58.3539 35.6768H53.0161V40.9024H58.3539V35.6768Z" fill="fill"/>
<path d="M53.014 35.6768H47.6763V40.9024H53.014V35.6768Z" fill="fill"/>
<path d="M53.014 30.4512H47.6763V35.6768H53.014V30.4512Z" fill="fill"/>
<path d="M47.6766 40.9026H42.3389V46.1282H47.6766V40.9026Z" fill="fill"/>
<path d="M53.014 46.1282H47.6763V51.3538H53.014V46.1282Z" fill="fill"/>
<path d="M47.6766 35.6768H42.3389V40.9024H47.6766V35.6768Z" fill="fill"/>
<path d="M42.3392 46.1282H37.0015V51.3538H42.3392V46.1282Z" fill="fill"/>
<path d="M47.6766 51.3538H42.3389V56.5794H47.6766V51.3538Z" fill="fill"/>
<path d="M47.6766 46.1282H42.3389V51.3538H47.6766V46.1282Z" fill="fill"/>
<path d="M42.3392 51.3538H37.0015V56.5794H42.3392V51.3538Z" fill="fill"/>
<path d="M37.0018 46.1282H31.6641V51.3538H37.0018V46.1282Z" fill="fill"/>
<path d="M37.0018 51.3538H31.6641V56.5794H37.0018V51.3538Z" fill="fill"/>
<path d="M79.704 35.6768H74.3662V40.9024H79.704V35.6768Z" fill="fill"/>
<path d="M85.0306 35.6768H79.6929V40.9024H85.0306V35.6768Z" fill="fill"/>
<path d="M79.704 30.4512H74.3662V35.6768H79.704V30.4512Z" fill="fill"/>
<path d="M95.7053 40.9026H90.3677V46.1282H95.7053V40.9026Z" fill="fill"/>
<path d="M90.368 35.6768H85.0303V40.9024H90.368V35.6768Z" fill="fill"/>
<path d="M85.0306 30.4512H79.6929V35.6768H85.0306V30.4512Z" fill="fill"/>
<path d="M90.368 30.4512H85.0303V35.6768H90.368V30.4512Z" fill="fill"/>
<path d="M90.368 25.2256H85.0303V30.4512H90.368V25.2256Z" fill="fill"/>
<path d="M95.7053 30.4512H90.3677V35.6768H95.7053V30.4512Z" fill="fill"/>
<path d="M95.7053 25.2256H90.3677V30.4512H95.7053V25.2256Z" fill="fill"/>
<path d="M90.368 20H85.0303V25.2256H90.368V20Z" fill="fill"/>
<path d="M95.7053 20H90.3677V25.2256H95.7053V20Z" fill="fill"/>
<path d="M85.0306 25.2256H79.6929V30.4512H85.0306V25.2256Z" fill="fill"/>
<path d="M79.704 25.2256H74.3662V30.4512H79.704V25.2256Z" fill="fill"/>
<path d="M74.3666 35.6768H69.0288V40.9024H74.3666V35.6768Z" fill="fill"/>
<path d="M90.368 46.1282H85.0303V51.3538H90.368V46.1282Z" fill="fill"/>
<path d="M95.7053 46.1282H90.3677V51.3538H95.7053V46.1282Z" fill="fill"/>
<path d="M101.043 40.9026H95.7051V46.1282H101.043V40.9026Z" fill="fill"/>
<path d="M95.7053 35.6768H90.3677V40.9024H95.7053V35.6768Z" fill="fill"/>
<path d="M101.043 30.4512H95.7051V35.6768H101.043V30.4512Z" fill="fill"/>
<path d="M101.043 46.1282H95.7051V51.3538H101.043V46.1282Z" fill="fill"/>
<path d="M85.0306 51.3538H79.6929V56.5794H85.0306V51.3538Z" fill="fill"/>
<path d="M90.368 51.3538H85.0303V56.5794H90.368V51.3538Z" fill="fill"/>
<path d="M95.7053 51.3538H90.3677V56.5794H95.7053V51.3538Z" fill="fill"/>
<path d="M101.043 25.2256H95.7051V30.4512H101.043V25.2256Z" fill="fill"/>
<path d="M106.383 40.9026H101.045V46.1282H106.383V40.9026Z" fill="fill"/>
<path d="M101.043 35.6768H95.7051V40.9024H101.043V35.6768Z" fill="fill"/>
<path d="M106.383 35.6768H101.045V40.9024H106.383V35.6768Z" fill="fill"/>
<path d="M106.383 30.4512H101.045V35.6768H106.383V30.4512Z" fill="fill"/>
<path d="M106.383 25.2256H101.045V30.4512H106.383V25.2256Z" fill="fill"/>
<path d="M42.3392 40.9026H37.0015V46.1282H42.3392V40.9026Z" fill="fill"/>
<path d="M47.6766 30.4512H42.3389V35.6768H47.6766V30.4512Z" fill="fill"/>
<path d="M42.3392 35.6768H37.0015V40.9024H42.3392V35.6768Z" fill="fill"/>
<path d="M42.3392 30.4512H37.0015V35.6768H42.3392V30.4512Z" fill="fill"/>
<path d="M37.0018 35.6768H31.6641V40.9024H37.0018V35.6768Z" fill="fill"/>
<path d="M37.0018 30.4512H31.6641V35.6768H37.0018V30.4512Z" fill="fill"/>
<path d="M31.6752 46.1282H26.3374V51.3538H31.6752V46.1282Z" fill="fill"/>
<path d="M37.0018 40.9026H31.6641V46.1282H37.0018V40.9026Z" fill="fill"/>
<path d="M31.6752 40.9026H26.3374V46.1282H31.6752V40.9026Z" fill="fill"/>
<path d="M31.6752 35.6768H26.3374V40.9024H31.6752V35.6768Z" fill="fill"/>
<path d="M26.3378 40.9023H21V46.128H26.3378V40.9023Z" fill="fill"/>
<path d="M26.3378 35.6768H21V40.9024H26.3378V35.6768Z" fill="fill"/>
<path d="M31.6752 30.4512H26.3374V35.6768H31.6752V30.4512Z" fill="fill"/>
<path d="M37.0018 25.2256H31.6641V30.4512H37.0018V25.2256Z" fill="fill"/>
<path d="M31.6752 25.2256H26.3374V30.4512H31.6752V25.2256Z" fill="fill"/>
<path d="M37.0018 20H31.6641V25.2256H37.0018V20Z" fill="fill"/>
<path d="M42.3392 25.2256H37.0015V30.4512H42.3392V25.2256Z" fill="fill"/>
<path d="M42.3392 20H37.0015V25.2256H42.3392V20Z" fill="fill"/>
<path d="M47.6766 25.2256H42.3389V30.4512H47.6766V25.2256Z" fill="fill"/>
<path d="M53.014 25.2256H47.6763V30.4512H53.014V25.2256Z" fill="fill"/>
<path d="M58.3539 40.9026H53.0161V46.1282H58.3539V40.9026Z" fill="fill"/>
<path d="M346.266 40.9026H340.929V46.1282H346.266V40.9026Z" fill="fill"/>
<path d="M335.592 40.9023H330.254V46.128H335.592V40.9023Z" fill="fill"/>
<path d="M340.929 46.1282H335.591V51.3538H340.929V46.1282Z" fill="fill"/>
<path d="M330.254 40.9023H324.916V46.128H330.254V40.9023Z" fill="fill"/>
<path d="M319.579 40.9026H314.241V46.1282H319.579V40.9026Z" fill="fill"/>
<path d="M319.579 46.1282H314.241V51.3538H319.579V46.1282Z" fill="fill"/>
<path d="M324.916 40.9026H319.579V46.1282H324.916V40.9026Z" fill="fill"/>
<path d="M324.916 46.1282H319.579V51.3538H324.916V46.1282Z" fill="fill"/>
<path d="M314.242 51.3538H308.904V56.5794H314.242V51.3538Z" fill="fill"/>
<path d="M314.242 56.5793H308.904V61.805H314.242V56.5793Z" fill="fill"/>
<path d="M319.579 56.5793H314.241V61.805H319.579V56.5793Z" fill="fill"/>
<path d="M308.904 56.5793H303.566V61.805H308.904V56.5793Z" fill="fill"/>
<path d="M314.242 61.7937H308.904V67.0193H314.242V61.7937Z" fill="fill"/>
<path d="M308.904 67.0193H303.566V72.2449H308.904V67.0193Z" fill="fill"/>
<path d="M308.904 61.7937H303.566V67.0193H308.904V61.7937Z" fill="fill"/>
<path d="M303.564 61.7937H298.227V67.0193H303.564V61.7937Z" fill="fill"/>
<path d="M298.238 61.7937H292.9V67.0193H298.238V61.7937Z" fill="fill"/>
<path d="M303.564 67.0193H298.227V72.2449H303.564V67.0193Z" fill="fill"/>
<path d="M298.238 67.0193H292.9V72.2449H298.238V67.0193Z" fill="fill"/>
<path d="M314.242 67.0193H308.904V72.2449H314.242V67.0193Z" fill="fill"/>
<path d="M308.904 72.2449H303.566V77.4705H308.904V72.2449Z" fill="fill"/>
<path d="M314.242 72.2449H308.904V77.4705H314.242V72.2449Z" fill="fill"/>
<path d="M308.904 77.4705H303.566V82.6961H308.904V77.4705Z" fill="fill"/>
<path d="M308.904 82.6963H303.566V87.9219H308.904V82.6963Z" fill="fill"/>
<path d="M303.564 72.2449H298.227V77.4705H303.564V72.2449Z" fill="fill"/>
<path d="M292.9 67.0193H287.562V72.2449H292.9V67.0193Z" fill="fill"/>
<path d="M303.564 77.4705H298.227V82.6961H303.564V77.4705Z" fill="fill"/>
<path d="M298.238 72.2449H292.9V77.4705H298.238V72.2449Z" fill="fill"/>
<path d="M303.564 82.6963H298.227V87.9219H303.564V82.6963Z" fill="fill"/>
<path d="M298.238 77.4705H292.9V82.6961H298.238V77.4705Z" fill="fill"/>
<path d="M292.9 72.2449H287.562V77.4705H292.9V72.2449Z" fill="fill"/>
<path d="M335.592 56.5793H330.254V61.805H335.592V56.5793Z" fill="fill"/>
<path d="M335.592 61.7937H330.254V67.0193H335.592V61.7937Z" fill="fill"/>
<path d="M330.254 61.7937H324.916V67.0193H330.254V61.7937Z" fill="fill"/>
<path d="M340.929 67.0193H335.591V72.2449H340.929V67.0193Z" fill="fill"/>
<path d="M340.929 61.7937H335.591V67.0193H340.929V61.7937Z" fill="fill"/>
<path d="M346.266 61.7937H340.929V67.0193H346.266V61.7937Z" fill="fill"/>
<path d="M351.604 61.7937H346.266V67.0193H351.604V61.7937Z" fill="fill"/>
<path d="M346.266 67.0193H340.929V72.2449H346.266V67.0193Z" fill="fill"/>
<path d="M351.604 67.0193H346.266V72.2449H351.604V67.0193Z" fill="fill"/>
<path d="M335.592 67.0193H330.254V72.2449H335.592V67.0193Z" fill="fill"/>
<path d="M340.929 72.2449H335.591V77.4705H340.929V72.2449Z" fill="fill"/>
<path d="M340.929 77.4705H335.591V82.6961H340.929V77.4705Z" fill="fill"/>
<path d="M340.929 82.6963H335.591V87.9219H340.929V82.6963Z" fill="fill"/>
<path d="M346.266 72.2449H340.929V77.4705H346.266V72.2449Z" fill="fill"/>
<path d="M356.931 67.0193H351.593V72.2449H356.931V67.0193Z" fill="fill"/>
<path d="M346.266 77.4705H340.929V82.6961H346.266V77.4705Z" fill="fill"/>
<path d="M351.604 72.2449H346.266V77.4705H351.604V72.2449Z" fill="fill"/>
<path d="M346.266 82.6963H340.929V87.9219H346.266V82.6963Z" fill="fill"/>
<path d="M351.604 77.4705H346.266V82.6961H351.604V77.4705Z" fill="fill"/>
<path d="M356.931 72.2449H351.593V77.4705H356.931V72.2449Z" fill="fill"/>
<path d="M330.254 51.3538H324.916V56.5794H330.254V51.3538Z" fill="fill"/>
<path d="M330.254 46.1282H324.916V51.3538H330.254V46.1282Z" fill="fill"/>
<path d="M324.916 51.3538H319.579V56.5794H324.916V51.3538Z" fill="fill"/>
<path d="M319.579 51.3538H314.241V56.5794H319.579V51.3538Z" fill="fill"/>
<path d="M324.916 56.5793H319.579V61.805H324.916V56.5793Z" fill="fill"/>
<path d="M314.242 35.6768H308.904V40.9024H314.242V35.6768Z" fill="fill"/>
<path d="M308.904 35.6768H303.566V40.9024H308.904V35.6768Z" fill="fill"/>
<path d="M308.904 30.4512H303.566V35.6768H308.904V30.4512Z" fill="fill"/>
<path d="M303.564 40.9026H298.227V46.1282H303.564V40.9026Z" fill="fill"/>
<path d="M308.904 46.1282H303.566V51.3538H308.904V46.1282Z" fill="fill"/>
<path d="M303.564 35.6768H298.227V40.9024H303.564V35.6768Z" fill="fill"/>
<path d="M298.238 46.1282H292.9V51.3538H298.238V46.1282Z" fill="fill"/>
<path d="M303.564 51.3538H298.227V56.5794H303.564V51.3538Z" fill="fill"/>
<path d="M303.564 46.1282H298.227V51.3538H303.564V46.1282Z" fill="fill"/>
<path d="M298.238 51.3538H292.9V56.5794H298.238V51.3538Z" fill="fill"/>
<path d="M292.9 46.1282H287.562V51.3538H292.9V46.1282Z" fill="fill"/>
<path d="M292.9 51.3538H287.562V56.5794H292.9V51.3538Z" fill="fill"/>
<path d="M335.592 35.6768H330.254V40.9024H335.592V35.6768Z" fill="fill"/>
<path d="M340.929 35.6768H335.591V40.9024H340.929V35.6768Z" fill="fill"/>
<path d="M335.592 30.4512H330.254V35.6768H335.592V30.4512Z" fill="fill"/>
<path d="M351.604 40.9026H346.266V46.1282H351.604V40.9026Z" fill="fill"/>
<path d="M346.266 35.6768H340.929V40.9024H346.266V35.6768Z" fill="fill"/>
<path d="M340.929 30.4512H335.591V35.6768H340.929V30.4512Z" fill="fill"/>
<path d="M346.266 30.4512H340.929V35.6768H346.266V30.4512Z" fill="fill"/>
<path d="M346.266 25.2256H340.929V30.4512H346.266V25.2256Z" fill="fill"/>
<path d="M351.604 30.4512H346.266V35.6768H351.604V30.4512Z" fill="fill"/>
<path d="M351.604 25.2256H346.266V30.4512H351.604V25.2256Z" fill="fill"/>
<path d="M346.266 20H340.929V25.2256H346.266V20Z" fill="fill"/>
<path d="M351.604 20H346.266V25.2256H351.604V20Z" fill="fill"/>
<path d="M340.929 25.2256H335.591V30.4512H340.929V25.2256Z" fill="fill"/>
<path d="M335.592 25.2256H330.254V30.4512H335.592V25.2256Z" fill="fill"/>
<path d="M330.254 35.6768H324.916V40.9024H330.254V35.6768Z" fill="fill"/>
<path d="M346.266 46.1282H340.929V51.3538H346.266V46.1282Z" fill="fill"/>
<path d="M351.604 46.1282H346.266V51.3538H351.604V46.1282Z" fill="fill"/>
<path d="M356.931 40.9026H351.593V46.1282H356.931V40.9026Z" fill="fill"/>
<path d="M351.604 35.6768H346.266V40.9024H351.604V35.6768Z" fill="fill"/>
<path d="M356.931 30.4512H351.593V35.6768H356.931V30.4512Z" fill="fill"/>
<path d="M356.931 46.1282H351.593V51.3538H356.931V46.1282Z" fill="fill"/>
<path d="M340.929 51.3538H335.591V56.5794H340.929V51.3538Z" fill="fill"/>
<path d="M346.266 51.3538H340.929V56.5794H346.266V51.3538Z" fill="fill"/>
<path d="M351.604 51.3538H346.266V56.5794H351.604V51.3538Z" fill="fill"/>
<path d="M356.931 25.2256H351.593V30.4512H356.931V25.2256Z" fill="fill"/>
<path d="M362.27 40.9026H356.933V46.1282H362.27V40.9026Z" fill="fill"/>
<path d="M356.931 35.6768H351.593V40.9024H356.931V35.6768Z" fill="fill"/>
<path d="M362.27 35.6768H356.933V40.9024H362.27V35.6768Z" fill="fill"/>
<path d="M362.27 30.4512H356.933V35.6768H362.27V30.4512Z" fill="fill"/>
<path d="M362.27 25.2256H356.933V30.4512H362.27V25.2256Z" fill="fill"/>
<path d="M298.238 40.9026H292.9V46.1282H298.238V40.9026Z" fill="fill"/>
<path d="M303.564 30.4512H298.227V35.6768H303.564V30.4512Z" fill="fill"/>
<path d="M298.238 35.6768H292.9V40.9024H298.238V35.6768Z" fill="fill"/>
<path d="M298.238 30.4512H292.9V35.6768H298.238V30.4512Z" fill="fill"/>
<path d="M292.9 35.6768H287.562V40.9024H292.9V35.6768Z" fill="fill"/>
<path d="M292.9 30.4512H287.562V35.6768H292.9V30.4512Z" fill="fill"/>
<path d="M287.563 46.1282H282.225V51.3538H287.563V46.1282Z" fill="fill"/>
<path d="M292.9 40.9026H287.562V46.1282H292.9V40.9026Z" fill="fill"/>
<path d="M287.563 40.9026H282.225V46.1282H287.563V40.9026Z" fill="fill"/>
<path d="M287.563 35.6768H282.225V40.9024H287.563V35.6768Z" fill="fill"/>
<path d="M282.225 40.9023H276.888V46.128H282.225V40.9023Z" fill="fill"/>
<path d="M282.225 35.6768H276.888V40.9024H282.225V35.6768Z" fill="fill"/>
<path d="M287.563 30.4512H282.225V35.6768H287.563V30.4512Z" fill="fill"/>
<path d="M292.9 25.2256H287.562V30.4512H292.9V25.2256Z" fill="fill"/>
<path d="M287.563 25.2256H282.225V30.4512H287.563V25.2256Z" fill="fill"/>
<path d="M292.9 20H287.562V25.2256H292.9V20Z" fill="fill"/>
<path d="M298.238 25.2256H292.9V30.4512H298.238V25.2256Z" fill="fill"/>
<path d="M298.238 20H292.9V25.2256H298.238V20Z" fill="fill"/>
<path d="M303.564 25.2256H298.227V30.4512H303.564V25.2256Z" fill="fill"/>
<path d="M308.904 25.2256H303.566V30.4512H308.904V25.2256Z" fill="fill"/>
<path d="M314.242 40.9026H308.904V46.1282H314.242V40.9026Z" fill="fill"/>
<path d="M90.368 432.981H85.0303V438.206H90.368V432.981Z" fill="fill"/>
<path d="M79.704 432.981H74.3662V438.206H79.704V432.981Z" fill="fill"/>
<path d="M85.0306 438.195H79.6929V443.421H85.0306V438.195Z" fill="fill"/>
<path d="M74.3666 432.98H69.0288V438.206H74.3666V432.98Z" fill="fill"/>
<path d="M63.6913 432.981H58.3535V438.206H63.6913V432.981Z" fill="fill"/>
<path d="M63.6913 438.195H58.3535V443.421H63.6913V438.195Z" fill="fill"/>
<path d="M69.0287 432.981H63.6909V438.206H69.0287V432.981Z" fill="fill"/>
<path d="M69.0287 438.195H63.6909V443.421H69.0287V438.195Z" fill="fill"/>
<path d="M58.3539 443.421H53.0161V448.646H58.3539V443.421Z" fill="fill"/>
<path d="M58.3539 448.646H53.0161V453.872H58.3539V448.646Z" fill="fill"/>
<path d="M63.6913 448.646H58.3535V453.872H63.6913V448.646Z" fill="fill"/>
<path d="M53.014 448.646H47.6763V453.872H53.014V448.646Z" fill="fill"/>
<path d="M58.3539 453.872H53.0161V459.097H58.3539V453.872Z" fill="fill"/>
<path d="M53.014 459.097H47.6763V464.323H53.014V459.097Z" fill="fill"/>
<path d="M53.014 453.872H47.6763V459.097H53.014V453.872Z" fill="fill"/>
<path d="M47.6766 453.872H42.3389V459.097H47.6766V453.872Z" fill="fill"/>
<path d="M42.3392 453.872H37.0015V459.097H42.3392V453.872Z" fill="fill"/>
<path d="M47.6766 459.097H42.3389V464.323H47.6766V459.097Z" fill="fill"/>
<path d="M42.3392 459.097H37.0015V464.323H42.3392V459.097Z" fill="fill"/>
<path d="M58.3539 459.097H53.0161V464.323H58.3539V459.097Z" fill="fill"/>
<path d="M53.014 464.323H47.6763V469.549H53.014V464.323Z" fill="fill"/>
<path d="M58.3539 464.323H53.0161V469.549H58.3539V464.323Z" fill="fill"/>
<path d="M53.014 469.549H47.6763V474.774H53.014V469.549Z" fill="fill"/>
<path d="M53.014 474.774H47.6763V480H53.014V474.774Z" fill="fill"/>
<path d="M47.6766 464.323H42.3389V469.549H47.6766V464.323Z" fill="fill"/>
<path d="M37.0018 459.097H31.6641V464.323H37.0018V459.097Z" fill="fill"/>
<path d="M47.6766 469.549H42.3389V474.774H47.6766V469.549Z" fill="fill"/>
<path d="M42.3392 464.323H37.0015V469.549H42.3392V464.323Z" fill="fill"/>
<path d="M47.6766 474.774H42.3389V480H47.6766V474.774Z" fill="fill"/>
<path d="M42.3392 469.549H37.0015V474.774H42.3392V469.549Z" fill="fill"/>
<path d="M37.0018 464.323H31.6641V469.549H37.0018V464.323Z" fill="fill"/>
<path d="M79.704 448.646H74.3662V453.872H79.704V448.646Z" fill="fill"/>
<path d="M79.704 453.872H74.3662V459.097H79.704V453.872Z" fill="fill"/>
<path d="M74.3666 453.872H69.0288V459.097H74.3666V453.872Z" fill="fill"/>
<path d="M85.0306 459.097H79.6929V464.323H85.0306V459.097Z" fill="fill"/>
<path d="M85.0306 453.872H79.6929V459.097H85.0306V453.872Z" fill="fill"/>
<path d="M90.368 453.872H85.0303V459.097H90.368V453.872Z" fill="fill"/>
<path d="M95.7053 453.872H90.3677V459.097H95.7053V453.872Z" fill="fill"/>
<path d="M90.368 459.097H85.0303V464.323H90.368V459.097Z" fill="fill"/>
<path d="M95.7053 459.097H90.3677V464.323H95.7053V459.097Z" fill="fill"/>
<path d="M79.704 459.097H74.3662V464.323H79.704V459.097Z" fill="fill"/>
<path d="M85.0306 464.323H79.6929V469.549H85.0306V464.323Z" fill="fill"/>
<path d="M85.0306 469.549H79.6929V474.774H85.0306V469.549Z" fill="fill"/>
<path d="M85.0306 474.774H79.6929V480H85.0306V474.774Z" fill="fill"/>
<path d="M90.368 464.323H85.0303V469.549H90.368V464.323Z" fill="fill"/>
<path d="M101.043 459.097H95.7051V464.323H101.043V459.097Z" fill="fill"/>
<path d="M90.368 469.549H85.0303V474.774H90.368V469.549Z" fill="fill"/>
<path d="M95.7053 464.323H90.3677V469.549H95.7053V464.323Z" fill="fill"/>
<path d="M90.368 474.774H85.0303V480H90.368V474.774Z" fill="fill"/>
<path d="M95.7053 469.549H90.3677V474.774H95.7053V469.549Z" fill="fill"/>
<path d="M101.043 464.323H95.7051V469.549H101.043V464.323Z" fill="fill"/>
<path d="M74.3666 443.421H69.0288V448.646H74.3666V443.421Z" fill="fill"/>
<path d="M74.3666 438.195H69.0288V443.421H74.3666V438.195Z" fill="fill"/>
<path d="M69.0287 443.421H63.6909V448.646H69.0287V443.421Z" fill="fill"/>
<path d="M63.6913 443.421H58.3535V448.646H63.6913V443.421Z" fill="fill"/>
<path d="M69.0287 448.646H63.6909V453.872H69.0287V448.646Z" fill="fill"/>
<path d="M58.3539 427.755H53.0161V432.981H58.3539V427.755Z" fill="fill"/>
<path d="M53.014 427.755H47.6763V432.981H53.014V427.755Z" fill="fill"/>
<path d="M53.014 422.529H47.6763V427.755H53.014V422.529Z" fill="fill"/>
<path d="M47.6766 432.981H42.3389V438.206H47.6766V432.981Z" fill="fill"/>
<path d="M53.014 438.195H47.6763V443.421H53.014V438.195Z" fill="fill"/>
<path d="M47.6766 427.755H42.3389V432.981H47.6766V427.755Z" fill="fill"/>
<path d="M42.3392 438.195H37.0015V443.421H42.3392V438.195Z" fill="fill"/>
<path d="M47.6766 443.421H42.3389V448.646H47.6766V443.421Z" fill="fill"/>
<path d="M47.6766 438.195H42.3389V443.421H47.6766V438.195Z" fill="fill"/>
<path d="M42.3392 443.421H37.0015V448.646H42.3392V443.421Z" fill="fill"/>
<path d="M37.0018 438.195H31.6641V443.421H37.0018V438.195Z" fill="fill"/>
<path d="M37.0018 443.421H31.6641V448.646H37.0018V443.421Z" fill="fill"/>
<path d="M79.704 427.755H74.3662V432.981H79.704V427.755Z" fill="fill"/>
<path d="M85.0306 427.755H79.6929V432.981H85.0306V427.755Z" fill="fill"/>
<path d="M79.704 422.529H74.3662V427.755H79.704V422.529Z" fill="fill"/>
<path d="M95.7053 432.981H90.3677V438.206H95.7053V432.981Z" fill="fill"/>
<path d="M90.368 427.755H85.0303V432.981H90.368V427.755Z" fill="fill"/>
<path d="M85.0306 422.529H79.6929V427.755H85.0306V422.529Z" fill="fill"/>
<path d="M90.368 422.529H85.0303V427.755H90.368V422.529Z" fill="fill"/>
<path d="M90.368 417.304H85.0303V422.529H90.368V417.304Z" fill="fill"/>
<path d="M95.7053 422.529H90.3677V427.755H95.7053V422.529Z" fill="fill"/>
<path d="M95.7053 417.304H90.3677V422.529H95.7053V417.304Z" fill="fill"/>
<path d="M90.368 412.078H85.0303V417.304H90.368V412.078Z" fill="fill"/>
<path d="M95.7053 412.078H90.3677V417.304H95.7053V412.078Z" fill="fill"/>
<path d="M85.0306 417.304H79.6929V422.529H85.0306V417.304Z" fill="fill"/>
<path d="M79.704 417.304H74.3662V422.529H79.704V417.304Z" fill="fill"/>
<path d="M74.3666 427.755H69.0288V432.981H74.3666V427.755Z" fill="fill"/>
<path d="M90.368 438.195H85.0303V443.421H90.368V438.195Z" fill="fill"/>
<path d="M95.7053 438.195H90.3677V443.421H95.7053V438.195Z" fill="fill"/>
<path d="M101.043 432.981H95.7051V438.206H101.043V432.981Z" fill="fill"/>
<path d="M95.7053 427.755H90.3677V432.981H95.7053V427.755Z" fill="fill"/>
<path d="M101.043 422.529H95.7051V427.755H101.043V422.529Z" fill="fill"/>
<path d="M101.043 438.195H95.7051V443.421H101.043V438.195Z" fill="fill"/>
<path d="M85.0306 443.421H79.6929V448.646H85.0306V443.421Z" fill="fill"/>
<path d="M90.368 443.421H85.0303V448.646H90.368V443.421Z" fill="fill"/>
<path d="M95.7053 443.421H90.3677V448.646H95.7053V443.421Z" fill="fill"/>
<path d="M101.043 417.304H95.7051V422.529H101.043V417.304Z" fill="fill"/>
<path d="M106.383 432.981H101.045V438.206H106.383V432.981Z" fill="fill"/>
<path d="M101.043 427.755H95.7051V432.981H101.043V427.755Z" fill="fill"/>
<path d="M106.383 427.755H101.045V432.981H106.383V427.755Z" fill="fill"/>
<path d="M106.383 422.529H101.045V427.755H106.383V422.529Z" fill="fill"/>
<path d="M106.383 417.304H101.045V422.529H106.383V417.304Z" fill="fill"/>
<path d="M42.3392 432.981H37.0015V438.206H42.3392V432.981Z" fill="fill"/>
<path d="M47.6766 422.529H42.3389V427.755H47.6766V422.529Z" fill="fill"/>
<path d="M42.3392 427.755H37.0015V432.981H42.3392V427.755Z" fill="fill"/>
<path d="M42.3392 422.529H37.0015V427.755H42.3392V422.529Z" fill="fill"/>
<path d="M37.0018 427.755H31.6641V432.981H37.0018V427.755Z" fill="fill"/>
<path d="M37.0018 422.529H31.6641V427.755H37.0018V422.529Z" fill="fill"/>
<path d="M31.6752 438.195H26.3374V443.421H31.6752V438.195Z" fill="fill"/>
<path d="M37.0018 432.981H31.6641V438.206H37.0018V432.981Z" fill="fill"/>
<path d="M31.6752 432.981H26.3374V438.206H31.6752V432.981Z" fill="fill"/>
<path d="M31.6752 427.755H26.3374V432.981H31.6752V427.755Z" fill="fill"/>
<path d="M26.3378 432.98H21V438.206H26.3378V432.98Z" fill="fill"/>
<path d="M26.3378 427.755H21V432.981H26.3378V427.755Z" fill="fill"/>
<path d="M31.6752 422.529H26.3374V427.755H31.6752V422.529Z" fill="fill"/>
<path d="M37.0018 417.304H31.6641V422.529H37.0018V417.304Z" fill="fill"/>
<path d="M31.6752 417.304H26.3374V422.529H31.6752V417.304Z" fill="fill"/>
<path d="M37.0018 412.078H31.6641V417.304H37.0018V412.078Z" fill="fill"/>
<path d="M42.3392 417.304H37.0015V422.529H42.3392V417.304Z" fill="fill"/>
<path d="M42.3392 412.078H37.0015V417.304H42.3392V412.078Z" fill="fill"/>
<path d="M47.6766 417.304H42.3389V422.529H47.6766V417.304Z" fill="fill"/>
<path d="M53.014 417.304H47.6763V422.529H53.014V417.304Z" fill="fill"/>
<path d="M58.3539 432.981H53.0161V438.206H58.3539V432.981Z" fill="fill"/>
<path d="M346.266 432.981H340.929V438.206H346.266V432.981Z" fill="fill"/>
<path d="M335.592 432.98H330.254V438.206H335.592V432.98Z" fill="fill"/>
<path d="M340.929 438.195H335.591V443.421H340.929V438.195Z" fill="fill"/>
<path d="M330.254 432.98H324.916V438.206H330.254V432.98Z" fill="fill"/>
<path d="M319.579 432.981H314.241V438.206H319.579V432.981Z" fill="fill"/>
<path d="M319.579 438.195H314.241V443.421H319.579V438.195Z" fill="fill"/>
<path d="M324.916 432.981H319.579V438.206H324.916V432.981Z" fill="fill"/>
<path d="M324.916 438.195H319.579V443.421H324.916V438.195Z" fill="fill"/>
<path d="M314.242 443.421H308.904V448.646H314.242V443.421Z" fill="fill"/>
<path d="M314.242 448.646H308.904V453.872H314.242V448.646Z" fill="fill"/>
<path d="M319.579 448.646H314.241V453.872H319.579V448.646Z" fill="fill"/>
<path d="M308.904 448.646H303.566V453.872H308.904V448.646Z" fill="fill"/>
<path d="M314.242 453.872H308.904V459.097H314.242V453.872Z" fill="fill"/>
<path d="M308.904 459.097H303.566V464.323H308.904V459.097Z" fill="fill"/>
<path d="M308.904 453.872H303.566V459.097H308.904V453.872Z" fill="fill"/>
<path d="M303.564 453.872H298.227V459.097H303.564V453.872Z" fill="fill"/>
<path d="M298.238 453.872H292.9V459.097H298.238V453.872Z" fill="fill"/>
<path d="M303.564 459.097H298.227V464.323H303.564V459.097Z" fill="fill"/>
<path d="M298.238 459.097H292.9V464.323H298.238V459.097Z" fill="fill"/>
<path d="M314.242 459.097H308.904V464.323H314.242V459.097Z" fill="fill"/>
<path d="M308.904 464.323H303.566V469.549H308.904V464.323Z" fill="fill"/>
<path d="M314.242 464.323H308.904V469.549H314.242V464.323Z" fill="fill"/>
<path d="M308.904 469.549H303.566V474.774H308.904V469.549Z" fill="fill"/>
<path d="M308.904 474.774H303.566V480H308.904V474.774Z" fill="fill"/>
<path d="M303.564 464.323H298.227V469.549H303.564V464.323Z" fill="fill"/>
<path d="M292.9 459.097H287.562V464.323H292.9V459.097Z" fill="fill"/>
<path d="M303.564 469.549H298.227V474.774H303.564V469.549Z" fill="fill"/>
<path d="M298.238 464.323H292.9V469.549H298.238V464.323Z" fill="fill"/>
<path d="M303.564 474.774H298.227V480H303.564V474.774Z" fill="fill"/>
<path d="M298.238 469.549H292.9V474.774H298.238V469.549Z" fill="fill"/>
<path d="M292.9 464.323H287.562V469.549H292.9V464.323Z" fill="fill"/>
<path d="M335.592 448.646H330.254V453.872H335.592V448.646Z" fill="fill"/>
<path d="M335.592 453.872H330.254V459.097H335.592V453.872Z" fill="fill"/>
<path d="M330.254 453.872H324.916V459.097H330.254V453.872Z" fill="fill"/>
<path d="M340.929 459.097H335.591V464.323H340.929V459.097Z" fill="fill"/>
<path d="M340.929 453.872H335.591V459.097H340.929V453.872Z" fill="fill"/>
<path d="M346.266 453.872H340.929V459.097H346.266V453.872Z" fill="fill"/>
<path d="M351.604 453.872H346.266V459.097H351.604V453.872Z" fill="fill"/>
<path d="M346.266 459.097H340.929V464.323H346.266V459.097Z" fill="fill"/>
<path d="M351.604 459.097H346.266V464.323H351.604V459.097Z" fill="fill"/>
<path d="M335.592 459.097H330.254V464.323H335.592V459.097Z" fill="fill"/>
<path d="M340.929 464.323H335.591V469.549H340.929V464.323Z" fill="fill"/>
<path d="M340.929 469.549H335.591V474.774H340.929V469.549Z" fill="fill"/>
<path d="M340.929 474.774H335.591V480H340.929V474.774Z" fill="fill"/>
<path d="M346.266 464.323H340.929V469.549H346.266V464.323Z" fill="fill"/>
<path d="M356.931 459.097H351.593V464.323H356.931V459.097Z" fill="fill"/>
<path d="M346.266 469.549H340.929V474.774H346.266V469.549Z" fill="fill"/>
<path d="M351.604 464.323H346.266V469.549H351.604V464.323Z" fill="fill"/>
<path d="M346.266 474.774H340.929V480H346.266V474.774Z" fill="fill"/>
<path d="M351.604 469.549H346.266V474.774H351.604V469.549Z" fill="fill"/>
<path d="M356.931 464.323H351.593V469.549H356.931V464.323Z" fill="fill"/>
<path d="M330.254 443.421H324.916V448.646H330.254V443.421Z" fill="fill"/>
<path d="M330.254 438.195H324.916V443.421H330.254V438.195Z" fill="fill"/>
<path d="M324.916 443.421H319.579V448.646H324.916V443.421Z" fill="fill"/>
<path d="M319.579 443.421H314.241V448.646H319.579V443.421Z" fill="fill"/>
<path d="M324.916 448.646H319.579V453.872H324.916V448.646Z" fill="fill"/>
<path d="M314.242 427.755H308.904V432.981H314.242V427.755Z" fill="fill"/>
<path d="M308.904 427.755H303.566V432.981H308.904V427.755Z" fill="fill"/>
<path d="M308.904 422.529H303.566V427.755H308.904V422.529Z" fill="fill"/>
<path d="M303.564 432.981H298.227V438.206H303.564V432.981Z" fill="fill"/>
<path d="M308.904 438.195H303.566V443.421H308.904V438.195Z" fill="fill"/>
<path d="M303.564 427.755H298.227V432.981H303.564V427.755Z" fill="fill"/>
<path d="M298.238 438.195H292.9V443.421H298.238V438.195Z" fill="fill"/>
<path d="M303.564 443.421H298.227V448.646H303.564V443.421Z" fill="fill"/>
<path d="M303.564 438.195H298.227V443.421H303.564V438.195Z" fill="fill"/>
<path d="M298.238 443.421H292.9V448.646H298.238V443.421Z" fill="fill"/>
<path d="M292.9 438.195H287.562V443.421H292.9V438.195Z" fill="fill"/>
<path d="M292.9 443.421H287.562V448.646H292.9V443.421Z" fill="fill"/>
<path d="M335.592 427.755H330.254V432.981H335.592V427.755Z" fill="fill"/>
<path d="M340.929 427.755H335.591V432.981H340.929V427.755Z" fill="fill"/>
<path d="M335.592 422.529H330.254V427.755H335.592V422.529Z" fill="fill"/>
<path d="M351.604 432.981H346.266V438.206H351.604V432.981Z" fill="fill"/>
<path d="M346.266 427.755H340.929V432.981H346.266V427.755Z" fill="fill"/>
<path d="M340.929 422.529H335.591V427.755H340.929V422.529Z" fill="fill"/>
<path d="M346.266 422.529H340.929V427.755H346.266V422.529Z" fill="fill"/>
<path d="M346.266 417.304H340.929V422.529H346.266V417.304Z" fill="fill"/>
<path d="M351.604 422.529H346.266V427.755H351.604V422.529Z" fill="fill"/>
<path d="M351.604 417.304H346.266V422.529H351.604V417.304Z" fill="fill"/>
<path d="M346.266 412.078H340.929V417.304H346.266V412.078Z" fill="fill"/>
<path d="M351.604 412.078H346.266V417.304H351.604V412.078Z" fill="fill"/>
<path d="M340.929 417.304H335.591V422.529H340.929V417.304Z" fill="fill"/>
<path d="M335.592 417.304H330.254V422.529H335.592V417.304Z" fill="fill"/>
<path d="M330.254 427.755H324.916V432.981H330.254V427.755Z" fill="fill"/>
<path d="M346.266 438.195H340.929V443.421H346.266V438.195Z" fill="fill"/>
<path d="M351.604 438.195H346.266V443.421H351.604V438.195Z" fill="fill"/>
<path d="M356.931 432.981H351.593V438.206H356.931V432.981Z" fill="fill"/>
<path d="M351.604 427.755H346.266V432.981H351.604V427.755Z" fill="fill"/>
<path d="M356.931 422.529H351.593V427.755H356.931V422.529Z" fill="fill"/>
<path d="M356.931 438.195H351.593V443.421H356.931V438.195Z" fill="fill"/>
<path d="M340.929 443.421H335.591V448.646H340.929V443.421Z" fill="fill"/>
<path d="M346.266 443.421H340.929V448.646H346.266V443.421Z" fill="fill"/>
<path d="M351.604 443.421H346.266V448.646H351.604V443.421Z" fill="fill"/>
<path d="M356.931 417.304H351.593V422.529H356.931V417.304Z" fill="fill"/>
<path d="M362.27 432.981H356.933V438.206H362.27V432.981Z" fill="fill"/>
<path d="M356.931 427.755H351.593V432.981H356.931V427.755Z" fill="fill"/>
<path d="M362.27 427.755H356.933V432.981H362.27V427.755Z" fill="fill"/>
<path d="M362.27 422.529H356.933V427.755H362.27V422.529Z" fill="fill"/>
<path d="M362.27 417.304H356.933V422.529H362.27V417.304Z" fill="fill"/>
<path d="M298.238 432.981H292.9V438.206H298.238V432.981Z" fill="fill"/>
<path d="M303.564 422.529H298.227V427.755H303.564V422.529Z" fill="fill"/>
<path d="M298.238 427.755H292.9V432.981H298.238V427.755Z" fill="fill"/>
<path d="M298.238 422.529H292.9V427.755H298.238V422.529Z" fill="fill"/>
<path d="M292.9 427.755H287.562V432.981H292.9V427.755Z" fill="fill"/>
<path d="M292.9 422.529H287.562V427.755H292.9V422.529Z" fill="fill"/>
<path d="M287.563 438.195H282.225V443.421H287.563V438.195Z" fill="fill"/>
<path d="M292.9 432.981H287.562V438.206H292.9V432.981Z" fill="fill"/>
<path d="M287.563 432.981H282.225V438.206H287.563V432.981Z" fill="fill"/>
<path d="M287.563 427.755H282.225V432.981H287.563V427.755Z" fill="fill"/>
<path d="M282.225 432.98H276.888V438.206H282.225V432.98Z" fill="fill"/>
<path d="M282.225 427.755H276.888V432.981H282.225V427.755Z" fill="fill"/>
<path d="M287.563 422.529H282.225V427.755H287.563V422.529Z" fill="fill"/>
<path d="M292.9 417.304H287.562V422.529H292.9V417.304Z" fill="fill"/>
<path d="M287.563 417.304H282.225V422.529H287.563V417.304Z" fill="fill"/>
<path d="M292.9 412.078H287.562V417.304H292.9V412.078Z" fill="fill"/>
<path d="M298.238 417.304H292.9V422.529H298.238V417.304Z" fill="fill"/>
<path d="M298.238 412.078H292.9V417.304H298.238V412.078Z" fill="fill"/>
<path d="M303.564 417.304H298.227V422.529H303.564V417.304Z" fill="fill"/>
<path d="M308.904 417.304H303.566V422.529H308.904V417.304Z" fill="fill"/>
<path d="M314.242 432.981H308.904V438.206H314.242V432.981Z" fill="fill"/>
<path d="M90.368 236.056H85.0303V241.282H90.368V236.056Z" fill="fill"/>
<path d="M79.704 236.056H74.3662V241.282H79.704V236.056Z" fill="fill"/>
<path d="M85.0306 241.281H79.6929V246.507H85.0306V241.281Z" fill="fill"/>
<path d="M74.3666 236.056H69.0288V241.281H74.3666V236.056Z" fill="fill"/>
<path d="M63.6913 236.056H58.3535V241.282H63.6913V236.056Z" fill="fill"/>
<path d="M63.6913 241.281H58.3535V246.507H63.6913V241.281Z" fill="fill"/>
<path d="M69.0287 236.056H63.6909V241.282H69.0287V236.056Z" fill="fill"/>
<path d="M69.0287 241.281H63.6909V246.507H69.0287V241.281Z" fill="fill"/>
<path d="M58.3539 246.507H53.0161V251.733H58.3539V246.507Z" fill="fill"/>
<path d="M58.3539 251.733H53.0161V256.958H58.3539V251.733Z" fill="fill"/>
<path d="M63.6913 251.733H58.3535V256.958H63.6913V251.733Z" fill="fill"/>
<path d="M53.014 251.733H47.6763V256.958H53.014V251.733Z" fill="fill"/>
<path d="M58.3539 256.958H53.0161V262.184H58.3539V256.958Z" fill="fill"/>
<path d="M53.014 262.184H47.6763V267.409H53.014V262.184Z" fill="fill"/>
<path d="M53.014 256.958H47.6763V262.184H53.014V256.958Z" fill="fill"/>
<path d="M47.6766 256.958H42.3389V262.184H47.6766V256.958Z" fill="fill"/>
<path d="M42.3392 256.958H37.0015V262.184H42.3392V256.958Z" fill="fill"/>
<path d="M47.6766 262.184H42.3389V267.409H47.6766V262.184Z" fill="fill"/>
<path d="M42.3392 262.184H37.0015V267.409H42.3392V262.184Z" fill="fill"/>
<path d="M58.3539 262.184H53.0161V267.409H58.3539V262.184Z" fill="fill"/>
<path d="M53.014 267.398H47.6763V272.624H53.014V267.398Z" fill="fill"/>
<path d="M58.3539 267.398H53.0161V272.624H58.3539V267.398Z" fill="fill"/>
<path d="M53.014 272.624H47.6763V277.849H53.014V272.624Z" fill="fill"/>
<path d="M53.014 277.85H47.6763V283.075H53.014V277.85Z" fill="fill"/>
<path d="M47.6766 267.398H42.3389V272.624H47.6766V267.398Z" fill="fill"/>
<path d="M37.0018 262.184H31.6641V267.409H37.0018V262.184Z" fill="fill"/>
<path d="M47.6766 272.624H42.3389V277.849H47.6766V272.624Z" fill="fill"/>
<path d="M42.3392 267.398H37.0015V272.624H42.3392V267.398Z" fill="fill"/>
<path d="M47.6766 277.85H42.3389V283.075H47.6766V277.85Z" fill="fill"/>
<path d="M42.3392 272.624H37.0015V277.849H42.3392V272.624Z" fill="fill"/>
<path d="M37.0018 267.398H31.6641V272.624H37.0018V267.398Z" fill="fill"/>
<path d="M79.704 251.733H74.3662V256.958H79.704V251.733Z" fill="fill"/>
<path d="M79.704 256.958H74.3662V262.184H79.704V256.958Z" fill="fill"/>
<path d="M74.3666 256.958H69.0288V262.184H74.3666V256.958Z" fill="fill"/>
<path d="M85.0306 262.184H79.6929V267.409H85.0306V262.184Z" fill="fill"/>
<path d="M85.0306 256.958H79.6929V262.184H85.0306V256.958Z" fill="fill"/>
<path d="M90.368 256.958H85.0303V262.184H90.368V256.958Z" fill="fill"/>
<path d="M95.7053 256.958H90.3677V262.184H95.7053V256.958Z" fill="fill"/>
<path d="M90.368 262.184H85.0303V267.409H90.368V262.184Z" fill="fill"/>
<path d="M95.7053 262.184H90.3677V267.409H95.7053V262.184Z" fill="fill"/>
<path d="M79.704 262.184H74.3662V267.409H79.704V262.184Z" fill="fill"/>
<path d="M85.0306 267.398H79.6929V272.624H85.0306V267.398Z" fill="fill"/>
<path d="M85.0306 272.624H79.6929V277.849H85.0306V272.624Z" fill="fill"/>
<path d="M85.0306 277.85H79.6929V283.075H85.0306V277.85Z" fill="fill"/>
<path d="M90.368 267.398H85.0303V272.624H90.368V267.398Z" fill="fill"/>
<path d="M101.043 262.184H95.7051V267.409H101.043V262.184Z" fill="fill"/>
<path d="M90.368 272.624H85.0303V277.849H90.368V272.624Z" fill="fill"/>
<path d="M95.7053 267.398H90.3677V272.624H95.7053V267.398Z" fill="fill"/>
<path d="M90.368 277.85H85.0303V283.075H90.368V277.85Z" fill="fill"/>
<path d="M95.7053 272.624H90.3677V277.849H95.7053V272.624Z" fill="fill"/>
<path d="M101.043 267.398H95.7051V272.624H101.043V267.398Z" fill="fill"/>
<path d="M74.3666 246.507H69.0288V251.733H74.3666V246.507Z" fill="fill"/>
<path d="M74.3666 241.281H69.0288V246.507H74.3666V241.281Z" fill="fill"/>
<path d="M69.0287 246.507H63.6909V251.733H69.0287V246.507Z" fill="fill"/>
<path d="M63.6913 246.507H58.3535V251.733H63.6913V246.507Z" fill="fill"/>
<path d="M69.0287 251.733H63.6909V256.958H69.0287V251.733Z" fill="fill"/>
<path d="M58.3539 230.83H53.0161V236.056H58.3539V230.83Z" fill="fill"/>
<path d="M53.014 230.83H47.6763V236.056H53.014V230.83Z" fill="fill"/>
<path d="M53.014 225.604H47.6763V230.83H53.014V225.604Z" fill="fill"/>
<path d="M47.6766 236.056H42.3389V241.282H47.6766V236.056Z" fill="fill"/>
<path d="M53.014 241.281H47.6763V246.507H53.014V241.281Z" fill="fill"/>
<path d="M47.6766 230.83H42.3389V236.056H47.6766V230.83Z" fill="fill"/>
<path d="M42.3392 241.281H37.0015V246.507H42.3392V241.281Z" fill="fill"/>
<path d="M47.6766 246.507H42.3389V251.733H47.6766V246.507Z" fill="fill"/>
<path d="M47.6766 241.281H42.3389V246.507H47.6766V241.281Z" fill="fill"/>
<path d="M42.3392 246.507H37.0015V251.733H42.3392V246.507Z" fill="fill"/>
<path d="M37.0018 241.281H31.6641V246.507H37.0018V241.281Z" fill="fill"/>
<path d="M37.0018 246.507H31.6641V251.733H37.0018V246.507Z" fill="fill"/>
<path d="M79.704 230.83H74.3662V236.056H79.704V230.83Z" fill="fill"/>
<path d="M85.0306 230.83H79.6929V236.056H85.0306V230.83Z" fill="fill"/>
<path d="M79.704 225.604H74.3662V230.83H79.704V225.604Z" fill="fill"/>
<path d="M95.7053 236.056H90.3677V241.282H95.7053V236.056Z" fill="fill"/>
<path d="M90.368 230.83H85.0303V236.056H90.368V230.83Z" fill="fill"/>
<path d="M85.0306 225.604H79.6929V230.83H85.0306V225.604Z" fill="fill"/>
<path d="M90.368 225.604H85.0303V230.83H90.368V225.604Z" fill="fill"/>
<path d="M90.368 220.379H85.0303V225.605H90.368V220.379Z" fill="fill"/>
<path d="M95.7053 225.604H90.3677V230.83H95.7053V225.604Z" fill="fill"/>
<path d="M95.7053 220.379H90.3677V225.605H95.7053V220.379Z" fill="fill"/>
<path d="M90.368 215.153H85.0303V220.379H90.368V215.153Z" fill="fill"/>
<path d="M95.7053 215.153H90.3677V220.379H95.7053V215.153Z" fill="fill"/>
<path d="M85.0306 220.379H79.6929V225.605H85.0306V220.379Z" fill="fill"/>
<path d="M79.704 220.379H74.3662V225.605H79.704V220.379Z" fill="fill"/>
<path d="M74.3666 230.83H69.0288V236.056H74.3666V230.83Z" fill="fill"/>
<path d="M90.368 241.281H85.0303V246.507H90.368V241.281Z" fill="fill"/>
<path d="M95.7053 241.281H90.3677V246.507H95.7053V241.281Z" fill="fill"/>
<path d="M101.043 236.056H95.7051V241.282H101.043V236.056Z" fill="fill"/>
<path d="M95.7053 230.83H90.3677V236.056H95.7053V230.83Z" fill="fill"/>
<path d="M101.043 225.604H95.7051V230.83H101.043V225.604Z" fill="fill"/>
<path d="M101.043 241.281H95.7051V246.507H101.043V241.281Z" fill="fill"/>
<path d="M85.0306 246.507H79.6929V251.733H85.0306V246.507Z" fill="fill"/>
<path d="M90.368 246.507H85.0303V251.733H90.368V246.507Z" fill="fill"/>
<path d="M95.7053 246.507H90.3677V251.733H95.7053V246.507Z" fill="fill"/>
<path d="M101.043 220.379H95.7051V225.605H101.043V220.379Z" fill="fill"/>
<path d="M106.383 236.056H101.045V241.282H106.383V236.056Z" fill="fill"/>
<path d="M101.043 230.83H95.7051V236.056H101.043V230.83Z" fill="fill"/>
<path d="M106.383 230.83H101.045V236.056H106.383V230.83Z" fill="fill"/>
<path d="M106.383 225.604H101.045V230.83H106.383V225.604Z" fill="fill"/>
<path d="M106.383 220.379H101.045V225.605H106.383V220.379Z" fill="fill"/>
<path d="M42.3392 236.056H37.0015V241.282H42.3392V236.056Z" fill="fill"/>
<path d="M47.6766 225.604H42.3389V230.83H47.6766V225.604Z" fill="fill"/>
<path d="M42.3392 230.83H37.0015V236.056H42.3392V230.83Z" fill="fill"/>
<path d="M42.3392 225.604H37.0015V230.83H42.3392V225.604Z" fill="fill"/>
<path d="M37.0018 230.83H31.6641V236.056H37.0018V230.83Z" fill="fill"/>
<path d="M37.0018 225.604H31.6641V230.83H37.0018V225.604Z" fill="fill"/>
<path d="M31.6752 241.281H26.3374V246.507H31.6752V241.281Z" fill="fill"/>
<path d="M37.0018 236.056H31.6641V241.282H37.0018V236.056Z" fill="fill"/>
<path d="M31.6752 236.056H26.3374V241.282H31.6752V236.056Z" fill="fill"/>
<path d="M31.6752 230.83H26.3374V236.056H31.6752V230.83Z" fill="fill"/>
<path d="M26.3378 236.056H21V241.281H26.3378V236.056Z" fill="fill"/>
<path d="M26.3378 230.83H21V236.056H26.3378V230.83Z" fill="fill"/>
<path d="M31.6752 225.604H26.3374V230.83H31.6752V225.604Z" fill="fill"/>
<path d="M37.0018 220.379H31.6641V225.605H37.0018V220.379Z" fill="fill"/>
<path d="M31.6752 220.379H26.3374V225.605H31.6752V220.379Z" fill="fill"/>
<path d="M37.0018 215.153H31.6641V220.379H37.0018V215.153Z" fill="fill"/>
<path d="M42.3392 220.379H37.0015V225.605H42.3392V220.379Z" fill="fill"/>
<path d="M42.3392 215.153H37.0015V220.379H42.3392V215.153Z" fill="fill"/>
<path d="M47.6766 220.379H42.3389V225.605H47.6766V220.379Z" fill="fill"/>
<path d="M53.014 220.379H47.6763V225.605H53.014V220.379Z" fill="fill"/>
<path d="M58.3539 236.056H53.0161V241.282H58.3539V236.056Z" fill="fill"/>
<path d="M346.266 236.056H340.929V241.282H346.266V236.056Z" fill="fill"/>
<path d="M335.592 236.056H330.254V241.281H335.592V236.056Z" fill="fill"/>
<path d="M340.929 241.281H335.591V246.507H340.929V241.281Z" fill="fill"/>
<path d="M330.254 236.056H324.916V241.281H330.254V236.056Z" fill="fill"/>
<path d="M319.579 236.056H314.241V241.282H319.579V236.056Z" fill="fill"/>
<path d="M319.579 241.281H314.241V246.507H319.579V241.281Z" fill="fill"/>
<path d="M324.916 236.056H319.579V241.282H324.916V236.056Z" fill="fill"/>
<path d="M324.916 241.281H319.579V246.507H324.916V241.281Z" fill="fill"/>
<path d="M314.242 246.507H308.904V251.733H314.242V246.507Z" fill="fill"/>
<path d="M314.242 251.733H308.904V256.958H314.242V251.733Z" fill="fill"/>
<path d="M319.579 251.733H314.241V256.958H319.579V251.733Z" fill="fill"/>
<path d="M308.904 251.733H303.566V256.958H308.904V251.733Z" fill="fill"/>
<path d="M314.242 256.958H308.904V262.184H314.242V256.958Z" fill="fill"/>
<path d="M308.904 262.184H303.566V267.409H308.904V262.184Z" fill="fill"/>
<path d="M308.904 256.958H303.566V262.184H308.904V256.958Z" fill="fill"/>
<path d="M303.564 256.958H298.227V262.184H303.564V256.958Z" fill="fill"/>
<path d="M298.238 256.958H292.9V262.184H298.238V256.958Z" fill="fill"/>
<path d="M303.564 262.184H298.227V267.409H303.564V262.184Z" fill="fill"/>
<path d="M298.238 262.184H292.9V267.409H298.238V262.184Z" fill="fill"/>
<path d="M314.242 262.184H308.904V267.409H314.242V262.184Z" fill="fill"/>
<path d="M308.904 267.398H303.566V272.624H308.904V267.398Z" fill="fill"/>
<path d="M314.242 267.398H308.904V272.624H314.242V267.398Z" fill="fill"/>
<path d="M308.904 272.624H303.566V277.849H308.904V272.624Z" fill="fill"/>
<path d="M308.904 277.85H303.566V283.075H308.904V277.85Z" fill="fill"/>
<path d="M303.564 267.398H298.227V272.624H303.564V267.398Z" fill="fill"/>
<path d="M292.9 262.184H287.562V267.409H292.9V262.184Z" fill="fill"/>
<path d="M303.564 272.624H298.227V277.849H303.564V272.624Z" fill="fill"/>
<path d="M298.238 267.398H292.9V272.624H298.238V267.398Z" fill="fill"/>
<path d="M303.564 277.85H298.227V283.075H303.564V277.85Z" fill="fill"/>
<path d="M298.238 272.624H292.9V277.849H298.238V272.624Z" fill="fill"/>
<path d="M292.9 267.398H287.562V272.624H292.9V267.398Z" fill="fill"/>
<path d="M335.592 251.733H330.254V256.958H335.592V251.733Z" fill="fill"/>
<path d="M335.592 256.958H330.254V262.184H335.592V256.958Z" fill="fill"/>
<path d="M330.254 256.958H324.916V262.184H330.254V256.958Z" fill="fill"/>
<path d="M340.929 262.184H335.591V267.409H340.929V262.184Z" fill="fill"/>
<path d="M340.929 256.958H335.591V262.184H340.929V256.958Z" fill="fill"/>
<path d="M346.266 256.958H340.929V262.184H346.266V256.958Z" fill="fill"/>
<path d="M351.604 256.958H346.266V262.184H351.604V256.958Z" fill="fill"/>
<path d="M346.266 262.184H340.929V267.409H346.266V262.184Z" fill="fill"/>
<path d="M351.604 262.184H346.266V267.409H351.604V262.184Z" fill="fill"/>
<path d="M335.592 262.184H330.254V267.409H335.592V262.184Z" fill="fill"/>
<path d="M340.929 267.398H335.591V272.624H340.929V267.398Z" fill="fill"/>
<path d="M340.929 272.624H335.591V277.849H340.929V272.624Z" fill="fill"/>
<path d="M340.929 277.85H335.591V283.075H340.929V277.85Z" fill="fill"/>
<path d="M346.266 267.398H340.929V272.624H346.266V267.398Z" fill="fill"/>
<path d="M356.931 262.184H351.593V267.409H356.931V262.184Z" fill="fill"/>
<path d="M346.266 272.624H340.929V277.849H346.266V272.624Z" fill="fill"/>
<path d="M351.604 267.398H346.266V272.624H351.604V267.398Z" fill="fill"/>
<path d="M346.266 277.85H340.929V283.075H346.266V277.85Z" fill="fill"/>
<path d="M351.604 272.624H346.266V277.849H351.604V272.624Z" fill="fill"/>
<path d="M356.931 267.398H351.593V272.624H356.931V267.398Z" fill="fill"/>
<path d="M330.254 246.507H324.916V251.733H330.254V246.507Z" fill="fill"/>
<path d="M330.254 241.281H324.916V246.507H330.254V241.281Z" fill="fill"/>
<path d="M324.916 246.507H319.579V251.733H324.916V246.507Z" fill="fill"/>
<path d="M319.579 246.507H314.241V251.733H319.579V246.507Z" fill="fill"/>
<path d="M324.916 251.733H319.579V256.958H324.916V251.733Z" fill="fill"/>
<path d="M314.242 230.83H308.904V236.056H314.242V230.83Z" fill="fill"/>
<path d="M308.904 230.83H303.566V236.056H308.904V230.83Z" fill="fill"/>
<path d="M308.904 225.604H303.566V230.83H308.904V225.604Z" fill="fill"/>
<path d="M303.564 236.056H298.227V241.282H303.564V236.056Z" fill="fill"/>
<path d="M308.904 241.281H303.566V246.507H308.904V241.281Z" fill="fill"/>
<path d="M303.564 230.83H298.227V236.056H303.564V230.83Z" fill="fill"/>
<path d="M298.238 241.281H292.9V246.507H298.238V241.281Z" fill="fill"/>
<path d="M303.564 246.507H298.227V251.733H303.564V246.507Z" fill="fill"/>
<path d="M303.564 241.281H298.227V246.507H303.564V241.281Z" fill="fill"/>
<path d="M298.238 246.507H292.9V251.733H298.238V246.507Z" fill="fill"/>
<path d="M292.9 241.281H287.562V246.507H292.9V241.281Z" fill="fill"/>
<path d="M292.9 246.507H287.562V251.733H292.9V246.507Z" fill="fill"/>
<path d="M335.592 230.83H330.254V236.056H335.592V230.83Z" fill="fill"/>
<path d="M340.929 230.83H335.591V236.056H340.929V230.83Z" fill="fill"/>
<path d="M335.592 225.604H330.254V230.83H335.592V225.604Z" fill="fill"/>
<path d="M351.604 236.056H346.266V241.282H351.604V236.056Z" fill="fill"/>
<path d="M346.266 230.83H340.929V236.056H346.266V230.83Z" fill="fill"/>
<path d="M340.929 225.604H335.591V230.83H340.929V225.604Z" fill="fill"/>
<path d="M346.266 225.604H340.929V230.83H346.266V225.604Z" fill="fill"/>
<path d="M346.266 220.379H340.929V225.605H346.266V220.379Z" fill="fill"/>
<path d="M351.604 225.604H346.266V230.83H351.604V225.604Z" fill="fill"/>
<path d="M351.604 220.379H346.266V225.605H351.604V220.379Z" fill="fill"/>
<path d="M346.266 215.153H340.929V220.379H346.266V215.153Z" fill="fill"/>
<path d="M351.604 215.153H346.266V220.379H351.604V215.153Z" fill="fill"/>
<path d="M340.929 220.379H335.591V225.605H340.929V220.379Z" fill="fill"/>
<path d="M335.592 220.379H330.254V225.605H335.592V220.379Z" fill="fill"/>
<path d="M330.254 230.83H324.916V236.056H330.254V230.83Z" fill="fill"/>
<path d="M346.266 241.281H340.929V246.507H346.266V241.281Z" fill="fill"/>
<path d="M351.604 241.281H346.266V246.507H351.604V241.281Z" fill="fill"/>
<path d="M356.931 236.056H351.593V241.282H356.931V236.056Z" fill="fill"/>
<path d="M351.604 230.83H346.266V236.056H351.604V230.83Z" fill="fill"/>
<path d="M356.931 225.604H351.593V230.83H356.931V225.604Z" fill="fill"/>
<path d="M356.931 241.281H351.593V246.507H356.931V241.281Z" fill="fill"/>
<path d="M340.929 246.507H335.591V251.733H340.929V246.507Z" fill="fill"/>
<path d="M346.266 246.507H340.929V251.733H346.266V246.507Z" fill="fill"/>
<path d="M351.604 246.507H346.266V251.733H351.604V246.507Z" fill="fill"/>
<path d="M356.931 220.379H351.593V225.605H356.931V220.379Z" fill="fill"/>
<path d="M362.27 236.056H356.933V241.282H362.27V236.056Z" fill="fill"/>
<path d="M356.931 230.83H351.593V236.056H356.931V230.83Z" fill="fill"/>
<path d="M362.27 230.83H356.933V236.056H362.27V230.83Z" fill="fill"/>
<path d="M362.27 225.604H356.933V230.83H362.27V225.604Z" fill="fill"/>
<path d="M362.27 220.379H356.933V225.605H362.27V220.379Z" fill="fill"/>
<path d="M298.238 236.056H292.9V241.282H298.238V236.056Z" fill="fill"/>
<path d="M303.564 225.604H298.227V230.83H303.564V225.604Z" fill="fill"/>
<path d="M298.238 230.83H292.9V236.056H298.238V230.83Z" fill="fill"/>
<path d="M298.238 225.604H292.9V230.83H298.238V225.604Z" fill="fill"/>
<path d="M292.9 230.83H287.562V236.056H292.9V230.83Z" fill="fill"/>
<path d="M292.9 225.604H287.562V230.83H292.9V225.604Z" fill="fill"/>
<path d="M287.563 241.281H282.225V246.507H287.563V241.281Z" fill="fill"/>
<path d="M292.9 236.056H287.562V241.282H292.9V236.056Z" fill="fill"/>
<path d="M287.563 236.056H282.225V241.282H287.563V236.056Z" fill="fill"/>
<path d="M287.563 230.83H282.225V236.056H287.563V230.83Z" fill="fill"/>
<path d="M282.225 236.056H276.888V241.281H282.225V236.056Z" fill="fill"/>
<path d="M282.225 230.83H276.888V236.056H282.225V230.83Z" fill="fill"/>
<path d="M287.563 225.604H282.225V230.83H287.563V225.604Z" fill="fill"/>
<path d="M292.9 220.379H287.562V225.605H292.9V220.379Z" fill="fill"/>
<path d="M287.563 220.379H282.225V225.605H287.563V220.379Z" fill="fill"/>
<path d="M292.9 215.153H287.562V220.379H292.9V215.153Z" fill="fill"/>
<path d="M298.238 220.379H292.9V225.605H298.238V220.379Z" fill="fill"/>
<path d="M298.238 215.153H292.9V220.379H298.238V215.153Z" fill="fill"/>
<path d="M303.564 220.379H298.227V225.605H303.564V220.379Z" fill="fill"/>
<path d="M308.904 220.379H303.566V225.605H308.904V220.379Z" fill="fill"/>
<path d="M314.242 236.056H308.904V241.282H314.242V236.056Z" fill="fill"/>
</svg>
