<svg width="384" height="500" viewBox="0 0 384 500" fill="none" xmlns="http://www.w3.org/2000/svg">
<path d="M312.402 159.629H305.235V166.785H312.402V159.629Z" fill="fill"/>
<path d="M312.402 152.474H305.235V159.629H312.402V152.474Z" fill="fill"/>
<path d="M319.58 145.319H312.413V152.474H319.58V145.319Z" fill="fill"/>
<path d="M312.402 145.319H305.235V152.474H312.402V145.319Z" fill="fill"/>
<path d="M319.58 138.163H312.413V145.319H319.58V138.163Z" fill="fill"/>
<path d="M312.402 138.163H305.235V145.319H312.402V138.163Z" fill="fill"/>
<path d="M319.58 131.008H312.413V138.163H319.58V131.008Z" fill="fill"/>
<path d="M312.402 131.008H305.235V138.163H312.402V131.008Z" fill="fill"/>
<path d="M305.235 131.008H298.069V138.163H305.235V131.008Z" fill="fill"/>
<path d="M319.58 123.853H312.413V131.008H319.58V123.853Z" fill="fill"/>
<path d="M312.402 123.853H305.235V131.008H312.402V123.853Z" fill="fill"/>
<path d="M305.235 123.853H298.069V131.008H305.235V123.853Z" fill="fill"/>
<path d="M326.747 116.697H319.58V123.853H326.747V116.697Z" fill="fill"/>
<path d="M326.747 123.853H319.58V131.008H326.747V123.853Z" fill="fill"/>
<path d="M319.58 116.697H312.413V123.853H319.58V116.697Z" fill="fill"/>
<path d="M312.402 116.697H305.235V123.853H312.402V116.697Z" fill="fill"/>
<path d="M305.235 116.697H298.069V123.853H305.235V116.697Z" fill="fill"/>
<path d="M298.068 116.697H290.902V123.853H298.068V116.697Z" fill="fill"/>
<path d="M298.068 123.853H290.902V131.008H298.068V123.853Z" fill="fill"/>
<path d="M333.913 109.542H326.747V116.697H333.913V109.542Z" fill="fill"/>
<path d="M341.091 109.542H333.924V116.697H341.091V109.542Z" fill="fill"/>
<path d="M326.747 109.542H319.58V116.697H326.747V109.542Z" fill="fill"/>
<path d="M319.58 109.542H312.413V116.697H319.58V109.542Z" fill="fill"/>
<path d="M312.402 109.542H305.235V116.697H312.402V109.542Z" fill="fill"/>
<path d="M305.235 109.542H298.069V116.697H305.235V109.542Z" fill="fill"/>
<path d="M298.068 109.542H290.902V116.697H298.068V109.542Z" fill="fill"/>
<path d="M348.257 102.386H341.091V109.542H348.257V102.386Z" fill="fill"/>
<path d="M341.091 102.386H333.924V109.542H341.091V102.386Z" fill="fill"/>
<path d="M333.913 102.386H326.747V109.542H333.913V102.386Z" fill="fill"/>
<path d="M326.747 102.386H319.58V109.542H326.747V102.386Z" fill="fill"/>
<path d="M319.58 102.386H312.413V109.542H319.58V102.386Z" fill="fill"/>
<path d="M312.402 102.386H305.235V109.542H312.402V102.386Z" fill="fill"/>
<path d="M305.235 102.386H298.069V109.542H305.235V102.386Z" fill="fill"/>
<path d="M298.068 102.386H290.902V109.542H298.068V102.386Z" fill="fill"/>
<path d="M290.891 102.386H283.724V109.542H290.891V102.386Z" fill="fill"/>
<path d="M283.724 102.386H276.558V109.542H283.724V102.386Z" fill="fill"/>
<path d="M276.557 102.386H269.391V109.542H276.557V102.386Z" fill="fill"/>
<path d="M362.589 95.2312H355.422V102.387H362.589V95.2312Z" fill="fill"/>
<path d="M355.422 95.2312H348.255V102.387H355.422V95.2312Z" fill="fill"/>
<path d="M348.257 95.2312H341.091V102.387H348.257V95.2312Z" fill="fill"/>
<path d="M341.091 95.2312H333.924V102.387H341.091V95.2312Z" fill="fill"/>
<path d="M333.913 95.2312H326.747V102.387H333.913V95.2312Z" fill="fill"/>
<path d="M326.747 95.2312H319.58V102.387H326.747V95.2312Z" fill="fill"/>
<path d="M319.58 95.2312H312.413V102.387H319.58V95.2312Z" fill="fill"/>
<path d="M312.402 95.2312H305.235V102.387H312.402V95.2312Z" fill="fill"/>
<path d="M305.235 95.2312H298.069V102.387H305.235V95.2312Z" fill="fill"/>
<path d="M298.068 95.2312H290.902V102.387H298.068V95.2312Z" fill="fill"/>
<path d="M290.891 95.2312H283.724V102.387H290.891V95.2312Z" fill="fill"/>
<path d="M283.724 95.2312H276.558V102.387H283.724V95.2312Z" fill="fill"/>
<path d="M276.557 95.2312H269.391V102.387H276.557V95.2312Z" fill="fill"/>
<path d="M269.391 95.2312H262.224V102.387H269.391V95.2312Z" fill="fill"/>
<path d="M341.091 88.0757H333.924V95.231H341.091V88.0757Z" fill="fill"/>
<path d="M333.913 88.0757H326.747V95.231H333.913V88.0757Z" fill="fill"/>
<path d="M326.747 88.0757H319.58V95.231H326.747V88.0757Z" fill="fill"/>
<path d="M319.58 88.0757H312.413V95.231H319.58V88.0757Z" fill="fill"/>
<path d="M312.402 88.0757H305.235V95.231H312.402V88.0757Z" fill="fill"/>
<path d="M305.235 88.0757H298.069V95.231H305.235V88.0757Z" fill="fill"/>
<path d="M298.068 88.0757H290.902V95.231H298.068V88.0757Z" fill="fill"/>
<path d="M290.891 88.0757H283.724V95.231H290.891V88.0757Z" fill="fill"/>
<path d="M283.724 88.0757H276.558V95.231H283.724V88.0757Z" fill="fill"/>
<path d="M326.747 80.9207H319.58V88.076H326.747V80.9207Z" fill="fill"/>
<path d="M319.58 80.9207H312.413V88.076H319.58V80.9207Z" fill="fill"/>
<path d="M312.402 80.9207H305.235V88.076H312.402V80.9207Z" fill="fill"/>
<path d="M305.235 80.9207H298.069V88.076H305.235V80.9207Z" fill="fill"/>
<path d="M298.068 80.9207H290.902V88.076H298.068V80.9207Z" fill="fill"/>
<path d="M298.068 73.7651H290.902V80.9205H298.068V73.7651Z" fill="fill"/>
<path d="M326.747 73.7651H319.58V80.9205H326.747V73.7651Z" fill="fill"/>
<path d="M319.58 73.7651H312.413V80.9205H319.58V73.7651Z" fill="fill"/>
<path d="M312.402 73.7651H305.235V80.9205H312.402V73.7651Z" fill="fill"/>
<path d="M305.235 73.7651H298.069V80.9205H305.235V73.7651Z" fill="fill"/>
<path d="M319.58 66.6099H312.413V73.7652H319.58V66.6099Z" fill="fill"/>
<path d="M312.402 66.6099H305.235V73.7652H312.402V66.6099Z" fill="fill"/>
<path d="M305.235 66.6099H298.069V73.7652H305.235V66.6099Z" fill="fill"/>
<path d="M319.58 59.4543H312.413V66.6097H319.58V59.4543Z" fill="fill"/>
<path d="M312.402 59.4543H305.235V66.6097H312.402V59.4543Z" fill="fill"/>
<path d="M305.235 59.4543H298.069V66.6097H305.235V59.4543Z" fill="fill"/>
<path d="M319.58 52.2991H312.413V59.4544H319.58V52.2991Z" fill="fill"/>
<path d="M312.402 52.2991H305.235V59.4544H312.402V52.2991Z" fill="fill"/>
<path d="M312.402 45.1438H305.235V52.2992H312.402V45.1438Z" fill="fill"/>
<path d="M305.235 52.2991H298.069V59.4544H305.235V52.2991Z" fill="fill"/>
<path d="M305.235 45.1438H298.069V52.2992H305.235V45.1438Z" fill="fill"/>
<path d="M312.402 37.9883H305.235V45.1436H312.402V37.9883Z" fill="fill"/>
<path d="M312.402 30.833H305.235V37.9884H312.402V30.833Z" fill="fill"/>
<path d="M46.6442 320.703H42.0044V325.332H46.6442V320.703Z" fill="fill"/>
<path d="M46.6442 316.075H42.0044V320.703H46.6442V316.075Z" fill="fill"/>
<path d="M51.2849 311.435H46.645V316.064H51.2849V311.435Z" fill="fill"/>
<path d="M46.6442 311.435H42.0044V316.063H46.6442V311.435Z" fill="fill"/>
<path d="M51.2849 306.806H46.645V311.435H51.2849V306.806Z" fill="fill"/>
<path d="M46.6442 306.806H42.0044V311.435H46.6442V306.806Z" fill="fill"/>
<path d="M51.2849 302.167H46.645V306.795H51.2849V302.167Z" fill="fill"/>
<path d="M46.6442 302.167H42.0044V306.795H46.6442V302.167Z" fill="fill"/>
<path d="M42.0041 302.167H37.3643V306.795H42.0041V302.167Z" fill="fill"/>
<path d="M51.2849 297.538H46.645V302.166H51.2849V297.538Z" fill="fill"/>
<path d="M46.6442 297.538H42.0044V302.166H46.6442V297.538Z" fill="fill"/>
<path d="M42.0041 297.538H37.3643V302.166H42.0041V297.538Z" fill="fill"/>
<path d="M55.9356 292.909H51.2959V297.538H55.9356V292.909Z" fill="fill"/>
<path d="M55.9356 297.538H51.2959V302.166H55.9356V297.538Z" fill="fill"/>
<path d="M51.2849 292.909H46.645V297.538H51.2849V292.909Z" fill="fill"/>
<path d="M46.6442 292.909H42.0044V297.538H46.6442V292.909Z" fill="fill"/>
<path d="M42.0041 292.909H37.3643V297.538H42.0041V292.909Z" fill="fill"/>
<path d="M37.3638 292.909H32.7241V297.538H37.3638V292.909Z" fill="fill"/>
<path d="M37.3638 297.538H32.7241V302.166H37.3638V297.538Z" fill="fill"/>
<path d="M60.5739 288.269H55.9341V292.898H60.5739V288.269Z" fill="fill"/>
<path d="M65.2141 288.269H60.5742V292.898H65.2141V288.269Z" fill="fill"/>
<path d="M55.9356 288.269H51.2959V292.898H55.9356V288.269Z" fill="fill"/>
<path d="M51.2849 288.269H46.645V292.898H51.2849V288.269Z" fill="fill"/>
<path d="M46.6442 288.27H42.0044V292.898H46.6442V288.27Z" fill="fill"/>
<path d="M42.0041 288.269H37.3643V292.898H42.0041V288.269Z" fill="fill"/>
<path d="M37.3638 288.269H32.7241V292.898H37.3638V288.269Z" fill="fill"/>
<path d="M69.8547 283.641H65.2148V288.269H69.8547V283.641Z" fill="fill"/>
<path d="M65.2141 283.641H60.5742V288.269H65.2141V283.641Z" fill="fill"/>
<path d="M60.5739 283.641H55.9341V288.269H60.5739V283.641Z" fill="fill"/>
<path d="M55.9356 283.641H51.2959V288.269H55.9356V283.641Z" fill="fill"/>
<path d="M51.2849 283.641H46.645V288.269H51.2849V283.641Z" fill="fill"/>
<path d="M46.6442 283.641H42.0044V288.269H46.6442V283.641Z" fill="fill"/>
<path d="M42.0041 283.641H37.3643V288.269H42.0041V283.641Z" fill="fill"/>
<path d="M37.3638 283.641H32.7241V288.269H37.3638V283.641Z" fill="fill"/>
<path d="M32.7258 283.641H28.0859V288.269H32.7258V283.641Z" fill="fill"/>
<path d="M28.0856 283.641H23.4458V288.269H28.0856V283.641Z" fill="fill"/>
<path d="M23.4343 283.641H18.7944V288.269H23.4343V283.641Z" fill="fill"/>
<path d="M79.1348 279.012H74.4951V283.641H79.1348V279.012Z" fill="fill"/>
<path d="M74.4948 279.012H69.855V283.641H74.4948V279.012Z" fill="fill"/>
<path d="M69.8547 279.012H65.2148V283.641H69.8547V279.012Z" fill="fill"/>
<path d="M65.2141 279.012H60.5742V283.641H65.2141V279.012Z" fill="fill"/>
<path d="M60.5739 279.012H55.9341V283.641H60.5739V279.012Z" fill="fill"/>
<path d="M55.9356 279.012H51.2959V283.641H55.9356V279.012Z" fill="fill"/>
<path d="M51.2849 279.012H46.645V283.641H51.2849V279.012Z" fill="fill"/>
<path d="M46.6442 279.012H42.0044V283.641H46.6442V279.012Z" fill="fill"/>
<path d="M42.0041 279.012H37.3643V283.641H42.0041V279.012Z" fill="fill"/>
<path d="M37.3638 279.012H32.7241V283.641H37.3638V279.012Z" fill="fill"/>
<path d="M32.7258 279.012H28.0859V283.641H32.7258V279.012Z" fill="fill"/>
<path d="M28.0856 279.012H23.4458V283.641H28.0856V279.012Z" fill="fill"/>
<path d="M23.4343 279.012H18.7944V283.641H23.4343V279.012Z" fill="fill"/>
<path d="M18.7941 279.012H14.1543V283.641H18.7941V279.012Z" fill="fill"/>
<path d="M65.2141 274.372H60.5742V279.001H65.2141V274.372Z" fill="fill"/>
<path d="M60.5739 274.372H55.9341V279.001H60.5739V274.372Z" fill="fill"/>
<path d="M55.9356 274.372H51.2959V279.001H55.9356V274.372Z" fill="fill"/>
<path d="M51.2849 274.372H46.645V279.001H51.2849V274.372Z" fill="fill"/>
<path d="M46.6442 274.372H42.0044V279.001H46.6442V274.372Z" fill="fill"/>
<path d="M42.0041 274.372H37.3643V279.001H42.0041V274.372Z" fill="fill"/>
<path d="M37.3638 274.372H32.7241V279.001H37.3638V274.372Z" fill="fill"/>
<path d="M32.7258 274.372H28.0859V279.001H32.7258V274.372Z" fill="fill"/>
<path d="M28.0856 274.372H23.4458V279.001H28.0856V274.372Z" fill="fill"/>
<path d="M55.9356 269.744H51.2959V274.372H55.9356V269.744Z" fill="fill"/>
<path d="M51.2849 269.744H46.645V274.372H51.2849V269.744Z" fill="fill"/>
<path d="M46.6442 269.744H42.0044V274.372H46.6442V269.744Z" fill="fill"/>
<path d="M42.0041 269.744H37.3643V274.372H42.0041V269.744Z" fill="fill"/>
<path d="M37.3638 269.744H32.7241V274.372H37.3638V269.744Z" fill="fill"/>
<path d="M37.3638 265.115H32.7241V269.744H37.3638V265.115Z" fill="fill"/>
<path d="M55.9356 265.115H51.2959V269.744H55.9356V265.115Z" fill="fill"/>
<path d="M51.2849 265.115H46.645V269.744H51.2849V265.115Z" fill="fill"/>
<path d="M46.6442 265.115H42.0044V269.744H46.6442V265.115Z" fill="fill"/>
<path d="M42.0041 265.115H37.3643V269.744H42.0041V265.115Z" fill="fill"/>
<path d="M51.2849 260.475H46.645V265.104H51.2849V260.475Z" fill="fill"/>
<path d="M46.6442 260.475H42.0044V265.104H46.6442V260.475Z" fill="fill"/>
<path d="M42.0041 260.475H37.3643V265.104H42.0041V260.475Z" fill="fill"/>
<path d="M51.2849 255.847H46.645V260.475H51.2849V255.847Z" fill="fill"/>
<path d="M46.6442 255.847H42.0044V260.475H46.6442V255.847Z" fill="fill"/>
<path d="M42.0041 255.847H37.3643V260.475H42.0041V255.847Z" fill="fill"/>
<path d="M51.2849 251.218H46.645V255.847H51.2849V251.218Z" fill="fill"/>
<path d="M46.6442 251.218H42.0044V255.847H46.6442V251.218Z" fill="fill"/>
<path d="M46.6442 246.578H42.0044V251.207H46.6442V246.578Z" fill="fill"/>
<path d="M42.0041 251.218H37.3643V255.847H42.0041V251.218Z" fill="fill"/>
<path d="M42.0041 246.578H37.3643V251.207H42.0041V246.578Z" fill="fill"/>
<path d="M46.6442 241.95H42.0044V246.578H46.6442V241.95Z" fill="fill"/>
<path d="M46.6442 237.321H42.0044V241.95H46.6442V237.321Z" fill="fill"/>
<path d="M137.631 171.369H133.561V175.427H137.631V171.369Z" fill="fill"/>
<path d="M137.631 167.31H133.561V171.369H137.631V167.31Z" fill="fill"/>
<path d="M141.701 163.252H137.631V167.31H141.701V163.252Z" fill="fill"/>
<path d="M137.631 163.252H133.561V167.31H137.631V163.252Z" fill="fill"/>
<path d="M141.701 159.194H137.631V163.252H141.701V159.194Z" fill="fill"/>
<path d="M137.631 159.194H133.561V163.252H137.631V159.194Z" fill="fill"/>
<path d="M141.701 155.135H137.631V159.193H141.701V155.135Z" fill="fill"/>
<path d="M137.631 155.135H133.561V159.193H137.631V155.135Z" fill="fill"/>
<path d="M133.572 155.135H129.502V159.193H133.572V155.135Z" fill="fill"/>
<path d="M141.701 151.077H137.631V155.135H141.701V151.077Z" fill="fill"/>
<path d="M137.631 151.077H133.561V155.135H137.631V151.077Z" fill="fill"/>
<path d="M133.572 151.077H129.502V155.135H133.572V151.077Z" fill="fill"/>
<path d="M145.769 147.018H141.7V151.077H145.769V147.018Z" fill="fill"/>
<path d="M145.769 151.077H141.7V155.135H145.769V151.077Z" fill="fill"/>
<path d="M141.701 147.018H137.631V151.077H141.701V147.018Z" fill="fill"/>
<path d="M137.631 147.018H133.561V151.077H137.631V147.018Z" fill="fill"/>
<path d="M133.572 147.018H129.502V151.077H133.572V147.018Z" fill="fill"/>
<path d="M129.503 147.018H125.434V151.077H129.503V147.018Z" fill="fill"/>
<path d="M129.503 151.077H125.434V155.135H129.503V151.077Z" fill="fill"/>
<path d="M149.84 142.96H145.77V147.018H149.84V142.96Z" fill="fill"/>
<path d="M153.897 142.96H149.827V147.018H153.897V142.96Z" fill="fill"/>
<path d="M145.769 142.96H141.7V147.018H145.769V142.96Z" fill="fill"/>
<path d="M141.701 142.96H137.631V147.018H141.701V142.96Z" fill="fill"/>
<path d="M137.631 142.96H133.561V147.018H137.631V142.96Z" fill="fill"/>
<path d="M133.572 142.96H129.502V147.018H133.572V142.96Z" fill="fill"/>
<path d="M129.503 142.96H125.434V147.018H129.503V142.96Z" fill="fill"/>
<path d="M157.967 138.901H153.897V142.96H157.967V138.901Z" fill="fill"/>
<path d="M153.897 138.901H149.827V142.96H153.897V138.901Z" fill="fill"/>
<path d="M149.84 138.901H145.77V142.96H149.84V138.901Z" fill="fill"/>
<path d="M145.769 138.901H141.7V142.96H145.769V138.901Z" fill="fill"/>
<path d="M141.701 138.901H137.631V142.96H141.701V138.901Z" fill="fill"/>
<path d="M137.631 138.901H133.561V142.96H137.631V138.901Z" fill="fill"/>
<path d="M133.572 138.901H129.502V142.96H133.572V138.901Z" fill="fill"/>
<path d="M129.503 138.901H125.434V142.96H129.503V138.901Z" fill="fill"/>
<path d="M125.433 138.901H121.363V142.96H125.433V138.901Z" fill="fill"/>
<path d="M121.363 138.901H117.293V142.96H121.363V138.901Z" fill="fill"/>
<path d="M117.305 138.901H113.236V142.96H117.305V138.901Z" fill="fill"/>
<path d="M166.106 134.843H162.036V138.901H166.106V134.843Z" fill="fill"/>
<path d="M162.037 134.843H157.968V138.901H162.037V134.843Z" fill="fill"/>
<path d="M157.967 134.843H153.897V138.901H157.967V134.843Z" fill="fill"/>
<path d="M153.897 134.843H149.827V138.901H153.897V134.843Z" fill="fill"/>
<path d="M149.84 134.843H145.77V138.901H149.84V134.843Z" fill="fill"/>
<path d="M145.769 134.843H141.7V138.901H145.769V134.843Z" fill="fill"/>
<path d="M141.701 134.843H137.631V138.901H141.701V134.843Z" fill="fill"/>
<path d="M137.631 134.843H133.561V138.901H137.631V134.843Z" fill="fill"/>
<path d="M133.572 134.843H129.502V138.901H133.572V134.843Z" fill="fill"/>
<path d="M129.503 134.843H125.434V138.901H129.503V134.843Z" fill="fill"/>
<path d="M125.433 134.843H121.363V138.901H125.433V134.843Z" fill="fill"/>
<path d="M121.363 134.843H117.293V138.901H121.363V134.843Z" fill="fill"/>
<path d="M117.305 134.843H113.236V138.901H117.305V134.843Z" fill="fill"/>
<path d="M113.235 134.843H109.166V138.901H113.235V134.843Z" fill="fill"/>
<path d="M153.897 130.785H149.827V134.843H153.897V130.785Z" fill="fill"/>
<path d="M149.84 130.785H145.77V134.843H149.84V130.785Z" fill="fill"/>
<path d="M145.769 130.785H141.7V134.843H145.769V130.785Z" fill="fill"/>
<path d="M141.701 130.785H137.631V134.843H141.701V130.785Z" fill="fill"/>
<path d="M137.631 130.785H133.561V134.843H137.631V130.785Z" fill="fill"/>
<path d="M133.572 130.785H129.502V134.843H133.572V130.785Z" fill="fill"/>
<path d="M129.503 130.785H125.434V134.843H129.503V130.785Z" fill="fill"/>
<path d="M125.433 130.785H121.363V134.843H125.433V130.785Z" fill="fill"/>
<path d="M121.363 130.785H117.293V134.843H121.363V130.785Z" fill="fill"/>
<path d="M145.769 126.726H141.7V130.785H145.769V126.726Z" fill="fill"/>
<path d="M141.701 126.726H137.631V130.785H141.701V126.726Z" fill="fill"/>
<path d="M137.631 126.726H133.561V130.785H137.631V126.726Z" fill="fill"/>
<path d="M133.572 126.726H129.502V130.785H133.572V126.726Z" fill="fill"/>
<path d="M129.503 126.726H125.434V130.785H129.503V126.726Z" fill="fill"/>
<path d="M129.503 122.668H125.434V126.726H129.503V122.668Z" fill="fill"/>
<path d="M145.769 122.668H141.7V126.726H145.769V122.668Z" fill="fill"/>
<path d="M141.701 122.668H137.631V126.726H141.701V122.668Z" fill="fill"/>
<path d="M137.631 122.668H133.561V126.726H137.631V122.668Z" fill="fill"/>
<path d="M133.572 122.668H129.502V126.726H133.572V122.668Z" fill="fill"/>
<path d="M141.701 118.609H137.631V122.668H141.701V118.609Z" fill="fill"/>
<path d="M137.631 118.609H133.561V122.668H137.631V118.609Z" fill="fill"/>
<path d="M133.572 118.609H129.502V122.668H133.572V118.609Z" fill="fill"/>
<path d="M141.701 114.551H137.631V118.609H141.701V114.551Z" fill="fill"/>
<path d="M137.631 114.551H133.561V118.609H137.631V114.551Z" fill="fill"/>
<path d="M133.572 114.551H129.502V118.609H133.572V114.551Z" fill="fill"/>
<path d="M141.701 110.492H137.631V114.551H141.701V110.492Z" fill="fill"/>
<path d="M137.631 110.492H133.561V114.551H137.631V110.492Z" fill="fill"/>
<path d="M137.631 106.434H133.561V110.493H137.631V106.434Z" fill="fill"/>
<path d="M133.572 110.492H129.502V114.551H133.572V110.492Z" fill="fill"/>
<path d="M133.572 106.434H129.502V110.493H133.572V106.434Z" fill="fill"/>
<path d="M137.631 102.375H133.561V106.434H137.631V102.375Z" fill="fill"/>
<path d="M137.631 98.3171H133.561V102.376H137.631V98.3171Z" fill="fill"/>
<path d="M339.881 239.87H335.812V243.929H339.881V239.87Z" fill="fill"/>
<path d="M339.881 235.812H335.812V239.87H339.881V235.812Z" fill="fill"/>
<path d="M343.951 231.753H339.882V235.812H343.951V231.753Z" fill="fill"/>
<path d="M339.881 231.753H335.812V235.812H339.881V231.753Z" fill="fill"/>
<path d="M343.951 227.695H339.882V231.753H343.951V227.695Z" fill="fill"/>
<path d="M339.881 227.695H335.812V231.753H339.881V227.695Z" fill="fill"/>
<path d="M343.951 223.636H339.882V227.695H343.951V223.636Z" fill="fill"/>
<path d="M339.881 223.636H335.812V227.695H339.881V223.636Z" fill="fill"/>
<path d="M335.811 223.636H331.741V227.695H335.811V223.636Z" fill="fill"/>
<path d="M343.951 219.578H339.882V223.637H343.951V219.578Z" fill="fill"/>
<path d="M339.881 219.578H335.812V223.636H339.881V219.578Z" fill="fill"/>
<path d="M335.811 219.578H331.741V223.637H335.811V219.578Z" fill="fill"/>
<path d="M348.009 215.52H343.939V219.578H348.009V215.52Z" fill="fill"/>
<path d="M348.009 219.578H343.939V223.637H348.009V219.578Z" fill="fill"/>
<path d="M343.951 215.52H339.882V219.578H343.951V215.52Z" fill="fill"/>
<path d="M339.881 215.52H335.812V219.578H339.881V215.52Z" fill="fill"/>
<path d="M335.811 215.52H331.741V219.578H335.811V215.52Z" fill="fill"/>
<path d="M331.742 215.52H327.673V219.578H331.742V215.52Z" fill="fill"/>
<path d="M331.742 219.578H327.673V223.637H331.742V219.578Z" fill="fill"/>
<path d="M352.079 211.461H348.009V215.52H352.079V211.461Z" fill="fill"/>
<path d="M356.149 211.461H352.08V215.52H356.149V211.461Z" fill="fill"/>
<path d="M348.009 211.461H343.939V215.52H348.009V211.461Z" fill="fill"/>
<path d="M343.951 211.461H339.882V215.52H343.951V211.461Z" fill="fill"/>
<path d="M339.881 211.461H335.812V215.52H339.881V211.461Z" fill="fill"/>
<path d="M335.811 211.461H331.741V215.52H335.811V211.461Z" fill="fill"/>
<path d="M331.742 211.461H327.673V215.52H331.742V211.461Z" fill="fill"/>
<path d="M360.218 207.403H356.148V211.461H360.218V207.403Z" fill="fill"/>
<path d="M356.149 207.403H352.08V211.461H356.149V207.403Z" fill="fill"/>
<path d="M352.079 207.403H348.009V211.461H352.079V207.403Z" fill="fill"/>
<path d="M348.009 207.403H343.939V211.461H348.009V207.403Z" fill="fill"/>
<path d="M343.951 207.403H339.882V211.461H343.951V207.403Z" fill="fill"/>
<path d="M339.881 207.403H335.812V211.461H339.881V207.403Z" fill="fill"/>
<path d="M335.811 207.403H331.741V211.461H335.811V207.403Z" fill="fill"/>
<path d="M331.742 207.403H327.673V211.461H331.742V207.403Z" fill="fill"/>
<path d="M327.683 207.403H323.614V211.461H327.683V207.403Z" fill="fill"/>
<path d="M323.613 207.403H319.543V211.461H323.613V207.403Z" fill="fill"/>
<path d="M319.545 207.403H315.475V211.461H319.545V207.403Z" fill="fill"/>
<path d="M368.347 203.344H364.277V207.403H368.347V203.344Z" fill="fill"/>
<path d="M364.277 203.344H360.207V207.403H364.277V203.344Z" fill="fill"/>
<path d="M360.218 203.344H356.148V207.403H360.218V203.344Z" fill="fill"/>
<path d="M356.149 203.344H352.08V207.403H356.149V203.344Z" fill="fill"/>
<path d="M352.079 203.344H348.009V207.403H352.079V203.344Z" fill="fill"/>
<path d="M348.009 203.344H343.939V207.403H348.009V203.344Z" fill="fill"/>
<path d="M343.951 203.344H339.882V207.403H343.951V203.344Z" fill="fill"/>
<path d="M339.881 203.344H335.812V207.403H339.881V203.344Z" fill="fill"/>
<path d="M335.811 203.344H331.741V207.403H335.811V203.344Z" fill="fill"/>
<path d="M331.742 203.344H327.673V207.403H331.742V203.344Z" fill="fill"/>
<path d="M327.683 203.344H323.614V207.403H327.683V203.344Z" fill="fill"/>
<path d="M323.613 203.344H319.543V207.403H323.613V203.344Z" fill="fill"/>
<path d="M319.545 203.344H315.475V207.403H319.545V203.344Z" fill="fill"/>
<path d="M315.474 203.344H311.405V207.403H315.474V203.344Z" fill="fill"/>
<path d="M356.149 199.286H352.08V203.344H356.149V199.286Z" fill="fill"/>
<path d="M352.079 199.286H348.009V203.344H352.079V199.286Z" fill="fill"/>
<path d="M348.009 199.286H343.939V203.344H348.009V199.286Z" fill="fill"/>
<path d="M343.951 199.286H339.882V203.344H343.951V199.286Z" fill="fill"/>
<path d="M339.881 199.286H335.812V203.344H339.881V199.286Z" fill="fill"/>
<path d="M335.811 199.286H331.741V203.344H335.811V199.286Z" fill="fill"/>
<path d="M331.742 199.286H327.673V203.344H331.742V199.286Z" fill="fill"/>
<path d="M327.683 199.286H323.614V203.344H327.683V199.286Z" fill="fill"/>
<path d="M323.613 199.286H319.543V203.344H323.613V199.286Z" fill="fill"/>
<path d="M348.009 195.227H343.939V199.286H348.009V195.227Z" fill="fill"/>
<path d="M343.951 195.227H339.882V199.286H343.951V195.227Z" fill="fill"/>
<path d="M339.881 195.227H335.812V199.286H339.881V195.227Z" fill="fill"/>
<path d="M335.811 195.227H331.741V199.286H335.811V195.227Z" fill="fill"/>
<path d="M331.742 195.227H327.673V199.286H331.742V195.227Z" fill="fill"/>
<path d="M331.742 191.169H327.673V195.227H331.742V191.169Z" fill="fill"/>
<path d="M348.009 191.169H343.939V195.227H348.009V191.169Z" fill="fill"/>
<path d="M343.951 191.169H339.882V195.227H343.951V191.169Z" fill="fill"/>
<path d="M339.881 191.169H335.812V195.227H339.881V191.169Z" fill="fill"/>
<path d="M335.811 191.169H331.741V195.227H335.811V191.169Z" fill="fill"/>
<path d="M343.951 187.111H339.882V191.169H343.951V187.111Z" fill="fill"/>
<path d="M339.881 187.111H335.812V191.169H339.881V187.111Z" fill="fill"/>
<path d="M335.811 187.111H331.741V191.169H335.811V187.111Z" fill="fill"/>
<path d="M343.951 183.052H339.882V187.11H343.951V183.052Z" fill="fill"/>
<path d="M339.881 183.052H335.812V187.11H339.881V183.052Z" fill="fill"/>
<path d="M335.811 183.052H331.741V187.11H335.811V183.052Z" fill="fill"/>
<path d="M343.951 178.994H339.882V183.052H343.951V178.994Z" fill="fill"/>
<path d="M339.881 178.994H335.812V183.052H339.881V178.994Z" fill="fill"/>
<path d="M339.881 174.935H335.812V178.994H339.881V174.935Z" fill="fill"/>
<path d="M335.811 178.994H331.741V183.052H335.811V178.994Z" fill="fill"/>
<path d="M335.811 174.935H331.741V178.994H335.811V174.935Z" fill="fill"/>
<path d="M339.881 170.877H335.812V174.935H339.881V170.877Z" fill="fill"/>
<path d="M339.881 166.818H335.812V170.877H339.881V166.818Z" fill="fill"/>
<path d="M313.652 475.662H309.583V479.72H313.652V475.662Z" fill="fill"/>
<path d="M313.652 471.603H309.583V475.662H313.652V471.603Z" fill="fill"/>
<path d="M317.712 467.545H313.642V471.603H317.712V467.545Z" fill="fill"/>
<path d="M313.652 467.545H309.583V471.603H313.652V467.545Z" fill="fill"/>
<path d="M317.712 463.486H313.642V467.545H317.712V463.486Z" fill="fill"/>
<path d="M313.652 463.486H309.583V467.545H313.652V463.486Z" fill="fill"/>
<path d="M317.712 459.428H313.642V463.486H317.712V459.428Z" fill="fill"/>
<path d="M313.652 459.428H309.583V463.486H313.652V459.428Z" fill="fill"/>
<path d="M309.582 459.428H305.512V463.486H309.582V459.428Z" fill="fill"/>
<path d="M317.712 455.369H313.642V459.428H317.712V455.369Z" fill="fill"/>
<path d="M313.652 455.369H309.583V459.428H313.652V455.369Z" fill="fill"/>
<path d="M309.582 455.369H305.512V459.428H309.582V455.369Z" fill="fill"/>
<path d="M321.78 451.311H317.71V455.369H321.78V451.311Z" fill="fill"/>
<path d="M321.78 455.369H317.71V459.428H321.78V455.369Z" fill="fill"/>
<path d="M317.712 451.311H313.642V455.369H317.712V451.311Z" fill="fill"/>
<path d="M313.652 451.311H309.583V455.369H313.652V451.311Z" fill="fill"/>
<path d="M309.582 451.311H305.512V455.369H309.582V451.311Z" fill="fill"/>
<path d="M305.514 451.311H301.444V455.369H305.514V451.311Z" fill="fill"/>
<path d="M305.514 455.369H301.444V459.428H305.514V455.369Z" fill="fill"/>
<path d="M325.85 447.253H321.78V451.311H325.85V447.253Z" fill="fill"/>
<path d="M329.92 447.253H325.851V451.311H329.92V447.253Z" fill="fill"/>
<path d="M321.78 447.253H317.71V451.311H321.78V447.253Z" fill="fill"/>
<path d="M317.712 447.253H313.642V451.311H317.712V447.253Z" fill="fill"/>
<path d="M313.652 447.253H309.583V451.311H313.652V447.253Z" fill="fill"/>
<path d="M309.582 447.253H305.512V451.311H309.582V447.253Z" fill="fill"/>
<path d="M305.514 447.253H301.444V451.311H305.514V447.253Z" fill="fill"/>
<path d="M333.978 443.194H329.908V447.253H333.978V443.194Z" fill="fill"/>
<path d="M329.92 443.194H325.851V447.253H329.92V443.194Z" fill="fill"/>
<path d="M325.85 443.194H321.78V447.253H325.85V443.194Z" fill="fill"/>
<path d="M321.78 443.194H317.71V447.253H321.78V443.194Z" fill="fill"/>
<path d="M317.712 443.194H313.642V447.253H317.712V443.194Z" fill="fill"/>
<path d="M313.652 443.194H309.583V447.253H313.652V443.194Z" fill="fill"/>
<path d="M309.582 443.194H305.512V447.253H309.582V443.194Z" fill="fill"/>
<path d="M305.514 443.194H301.444V447.253H305.514V443.194Z" fill="fill"/>
<path d="M301.444 443.194H297.374V447.253H301.444V443.194Z" fill="fill"/>
<path d="M297.384 443.194H293.314V447.253H297.384V443.194Z" fill="fill"/>
<path d="M293.316 443.194H289.246V447.253H293.316V443.194Z" fill="fill"/>
<path d="M342.116 439.136H338.046V443.194H342.116V439.136Z" fill="fill"/>
<path d="M338.048 439.136H333.979V443.194H338.048V439.136Z" fill="fill"/>
<path d="M333.978 439.136H329.908V443.194H333.978V439.136Z" fill="fill"/>
<path d="M329.92 439.136H325.851V443.194H329.92V439.136Z" fill="fill"/>
<path d="M325.85 439.136H321.78V443.194H325.85V439.136Z" fill="fill"/>
<path d="M321.78 439.136H317.71V443.194H321.78V439.136Z" fill="fill"/>
<path d="M317.712 439.136H313.642V443.194H317.712V439.136Z" fill="fill"/>
<path d="M313.652 439.136H309.583V443.194H313.652V439.136Z" fill="fill"/>
<path d="M309.582 439.136H305.512V443.194H309.582V439.136Z" fill="fill"/>
<path d="M305.514 439.136H301.444V443.194H305.514V439.136Z" fill="fill"/>
<path d="M301.444 439.136H297.374V443.194H301.444V439.136Z" fill="fill"/>
<path d="M297.384 439.136H293.314V443.194H297.384V439.136Z" fill="fill"/>
<path d="M293.316 439.136H289.246V443.194H293.316V439.136Z" fill="fill"/>
<path d="M289.245 439.136H285.176V443.194H289.245V439.136Z" fill="fill"/>
<path d="M329.92 435.077H325.851V439.136H329.92V435.077Z" fill="fill"/>
<path d="M325.85 435.077H321.78V439.136H325.85V435.077Z" fill="fill"/>
<path d="M321.78 435.077H317.71V439.136H321.78V435.077Z" fill="fill"/>
<path d="M317.712 435.077H313.642V439.136H317.712V435.077Z" fill="fill"/>
<path d="M313.652 435.077H309.583V439.136H313.652V435.077Z" fill="fill"/>
<path d="M309.582 435.077H305.512V439.136H309.582V435.077Z" fill="fill"/>
<path d="M305.514 435.077H301.444V439.136H305.514V435.077Z" fill="fill"/>
<path d="M301.444 435.077H297.374V439.136H301.444V435.077Z" fill="fill"/>
<path d="M297.384 435.077H293.314V439.136H297.384V435.077Z" fill="fill"/>
<path d="M321.78 431.019H317.71V435.077H321.78V431.019Z" fill="fill"/>
<path d="M317.712 431.019H313.642V435.077H317.712V431.019Z" fill="fill"/>
<path d="M313.652 431.019H309.583V435.077H313.652V431.019Z" fill="fill"/>
<path d="M309.582 431.019H305.512V435.077H309.582V431.019Z" fill="fill"/>
<path d="M305.514 431.019H301.444V435.077H305.514V431.019Z" fill="fill"/>
<path d="M305.514 426.96H301.444V431.019H305.514V426.96Z" fill="fill"/>
<path d="M321.78 426.96H317.71V431.019H321.78V426.96Z" fill="fill"/>
<path d="M317.712 426.96H313.642V431.019H317.712V426.96Z" fill="fill"/>
<path d="M313.652 426.96H309.583V431.019H313.652V426.96Z" fill="fill"/>
<path d="M309.582 426.96H305.512V431.019H309.582V426.96Z" fill="fill"/>
<path d="M317.712 422.902H313.642V426.961H317.712V422.902Z" fill="fill"/>
<path d="M313.652 422.902H309.583V426.961H313.652V422.902Z" fill="fill"/>
<path d="M309.582 422.902H305.512V426.961H309.582V422.902Z" fill="fill"/>
<path d="M317.712 418.844H313.642V422.902H317.712V418.844Z" fill="fill"/>
<path d="M313.652 418.844H309.583V422.902H313.652V418.844Z" fill="fill"/>
<path d="M309.582 418.844H305.512V422.902H309.582V418.844Z" fill="fill"/>
<path d="M317.712 414.785H313.642V418.844H317.712V414.785Z" fill="fill"/>
<path d="M313.652 414.785H309.583V418.844H313.652V414.785Z" fill="fill"/>
<path d="M313.652 410.727H309.583V414.785H313.652V410.727Z" fill="fill"/>
<path d="M309.582 414.785H305.512V418.844H309.582V414.785Z" fill="fill"/>
<path d="M309.582 410.727H305.512V414.785H309.582V410.727Z" fill="fill"/>
<path d="M313.652 406.668H309.583V410.727H313.652V406.668Z" fill="fill"/>
<path d="M313.652 402.61H309.583V406.668H313.652V402.61Z" fill="fill"/>
<path d="M290.9 372.378H286.831V376.437H290.9V372.378Z" fill="fill"/>
<path d="M290.9 368.32H286.831V372.378H290.9V368.32Z" fill="fill"/>
<path d="M294.971 364.261H290.901V368.32H294.971V364.261Z" fill="fill"/>
<path d="M290.9 364.261H286.831V368.32H290.9V364.261Z" fill="fill"/>
<path d="M294.971 360.203H290.901V364.262H294.971V360.203Z" fill="fill"/>
<path d="M290.9 360.203H286.831V364.262H290.9V360.203Z" fill="fill"/>
<path d="M294.971 356.145H290.901V360.203H294.971V356.145Z" fill="fill"/>
<path d="M290.9 356.145H286.831V360.203H290.9V356.145Z" fill="fill"/>
<path d="M286.83 356.145H282.76V360.203H286.83V356.145Z" fill="fill"/>
<path d="M294.971 352.086H290.901V356.145H294.971V352.086Z" fill="fill"/>
<path d="M290.9 352.086H286.831V356.145H290.9V352.086Z" fill="fill"/>
<path d="M286.83 352.086H282.76V356.145H286.83V352.086Z" fill="fill"/>
<path d="M299.039 348.028H294.969V352.086H299.039V348.028Z" fill="fill"/>
<path d="M299.039 352.086H294.969V356.145H299.039V352.086Z" fill="fill"/>
<path d="M294.971 348.028H290.901V352.086H294.971V348.028Z" fill="fill"/>
<path d="M290.9 348.028H286.831V352.086H290.9V348.028Z" fill="fill"/>
<path d="M286.83 348.028H282.76V352.086H286.83V348.028Z" fill="fill"/>
<path d="M282.773 348.028H278.703V352.086H282.773V348.028Z" fill="fill"/>
<path d="M282.773 352.086H278.703V356.145H282.773V352.086Z" fill="fill"/>
<path d="M303.098 343.969H299.029V348.028H303.098V343.969Z" fill="fill"/>
<path d="M307.166 343.969H303.097V348.028H307.166V343.969Z" fill="fill"/>
<path d="M299.039 343.969H294.969V348.028H299.039V343.969Z" fill="fill"/>
<path d="M294.971 343.969H290.901V348.028H294.971V343.969Z" fill="fill"/>
<path d="M290.9 343.969H286.831V348.028H290.9V343.969Z" fill="fill"/>
<path d="M286.83 343.969H282.76V348.028H286.83V343.969Z" fill="fill"/>
<path d="M282.773 343.969H278.703V348.028H282.773V343.969Z" fill="fill"/>
<path d="M311.237 339.911H307.167V343.969H311.237V339.911Z" fill="fill"/>
<path d="M307.166 339.911H303.097V343.969H307.166V339.911Z" fill="fill"/>
<path d="M303.098 339.911H299.029V343.969H303.098V339.911Z" fill="fill"/>
<path d="M299.039 339.911H294.969V343.969H299.039V339.911Z" fill="fill"/>
<path d="M294.971 339.911H290.901V343.969H294.971V339.911Z" fill="fill"/>
<path d="M290.9 339.911H286.831V343.969H290.9V339.911Z" fill="fill"/>
<path d="M286.83 339.911H282.76V343.969H286.83V339.911Z" fill="fill"/>
<path d="M282.773 339.911H278.703V343.969H282.773V339.911Z" fill="fill"/>
<path d="M278.702 339.911H274.633V343.969H278.702V339.911Z" fill="fill"/>
<path d="M274.632 339.911H270.562V343.969H274.632V339.911Z" fill="fill"/>
<path d="M270.564 339.911H266.495V343.969H270.564V339.911Z" fill="fill"/>
<path d="M319.364 335.853H315.294V339.911H319.364V335.853Z" fill="fill"/>
<path d="M315.307 335.853H311.237V339.911H315.307V335.853Z" fill="fill"/>
<path d="M311.237 335.853H307.167V339.911H311.237V335.853Z" fill="fill"/>
<path d="M307.166 335.853H303.097V339.911H307.166V335.853Z" fill="fill"/>
<path d="M303.098 335.853H299.029V339.911H303.098V335.853Z" fill="fill"/>
<path d="M299.039 335.853H294.969V339.911H299.039V335.853Z" fill="fill"/>
<path d="M294.971 335.853H290.901V339.911H294.971V335.853Z" fill="fill"/>
<path d="M290.9 335.853H286.831V339.911H290.9V335.853Z" fill="fill"/>
<path d="M286.83 335.853H282.76V339.911H286.83V335.853Z" fill="fill"/>
<path d="M282.773 335.853H278.703V339.911H282.773V335.853Z" fill="fill"/>
<path d="M278.702 335.853H274.633V339.911H278.702V335.853Z" fill="fill"/>
<path d="M274.632 335.853H270.562V339.911H274.632V335.853Z" fill="fill"/>
<path d="M270.564 335.853H266.495V339.911H270.564V335.853Z" fill="fill"/>
<path d="M266.505 335.853H262.435V339.911H266.505V335.853Z" fill="fill"/>
<path d="M307.166 331.794H303.097V335.852H307.166V331.794Z" fill="fill"/>
<path d="M303.098 331.794H299.029V335.852H303.098V331.794Z" fill="fill"/>
<path d="M299.039 331.794H294.969V335.852H299.039V331.794Z" fill="fill"/>
<path d="M294.971 331.794H290.901V335.852H294.971V331.794Z" fill="fill"/>
<path d="M290.9 331.794H286.831V335.852H290.9V331.794Z" fill="fill"/>
<path d="M286.83 331.794H282.76V335.852H286.83V331.794Z" fill="fill"/>
<path d="M282.773 331.794H278.703V335.852H282.773V331.794Z" fill="fill"/>
<path d="M278.702 331.794H274.633V335.852H278.702V331.794Z" fill="fill"/>
<path d="M274.632 331.794H270.562V335.852H274.632V331.794Z" fill="fill"/>
<path d="M299.039 327.736H294.969V331.794H299.039V327.736Z" fill="fill"/>
<path d="M294.971 327.736H290.901V331.794H294.971V327.736Z" fill="fill"/>
<path d="M290.9 327.736H286.831V331.794H290.9V327.736Z" fill="fill"/>
<path d="M286.83 327.736H282.76V331.794H286.83V327.736Z" fill="fill"/>
<path d="M282.773 327.736H278.703V331.794H282.773V327.736Z" fill="fill"/>
<path d="M282.773 323.677H278.703V327.736H282.773V323.677Z" fill="fill"/>
<path d="M299.039 323.677H294.969V327.736H299.039V323.677Z" fill="fill"/>
<path d="M294.971 323.677H290.901V327.736H294.971V323.677Z" fill="fill"/>
<path d="M290.9 323.677H286.831V327.736H290.9V323.677Z" fill="fill"/>
<path d="M286.83 323.677H282.76V327.736H286.83V323.677Z" fill="fill"/>
<path d="M294.971 319.619H290.901V323.677H294.971V319.619Z" fill="fill"/>
<path d="M290.9 319.619H286.831V323.677H290.9V319.619Z" fill="fill"/>
<path d="M286.83 319.619H282.76V323.677H286.83V319.619Z" fill="fill"/>
<path d="M294.971 315.56H290.901V319.619H294.971V315.56Z" fill="fill"/>
<path d="M290.9 315.56H286.831V319.619H290.9V315.56Z" fill="fill"/>
<path d="M286.83 315.56H282.76V319.619H286.83V315.56Z" fill="fill"/>
<path d="M294.971 311.502H290.901V315.56H294.971V311.502Z" fill="fill"/>
<path d="M290.9 311.502H286.831V315.56H290.9V311.502Z" fill="fill"/>
<path d="M290.9 307.444H286.831V311.502H290.9V307.444Z" fill="fill"/>
<path d="M286.83 311.502H282.76V315.56H286.83V311.502Z" fill="fill"/>
<path d="M286.83 307.444H282.76V311.502H286.83V307.444Z" fill="fill"/>
<path d="M290.9 303.385H286.831V307.443H290.9V303.385Z" fill="fill"/>
<path d="M290.9 299.327H286.831V303.385H290.9V299.327Z" fill="fill"/>
<path d="M356.148 269.52H354.404V271.264H356.148V269.52Z" fill="fill"/>
<path d="M356.148 267.776H354.404V269.52H356.148V267.776Z" fill="fill"/>
<path d="M357.894 266.043H356.149V267.787H357.894V266.043Z" fill="fill"/>
<path d="M356.148 266.043H354.404V267.787H356.148V266.043Z" fill="fill"/>
<path d="M357.894 264.299H356.149V266.043H357.894V264.299Z" fill="fill"/>
<path d="M356.148 264.299H354.404V266.043H356.148V264.299Z" fill="fill"/>
<path d="M357.894 262.566H356.149V264.31H357.894V262.566Z" fill="fill"/>
<path d="M356.148 262.566H354.404V264.31H356.148V262.566Z" fill="fill"/>
<path d="M354.406 262.566H352.662V264.31H354.406V262.566Z" fill="fill"/>
<path d="M357.894 260.822H356.149V262.566H357.894V260.822Z" fill="fill"/>
<path d="M356.148 260.822H354.404V262.566H356.148V260.822Z" fill="fill"/>
<path d="M354.406 260.822H352.662V262.566H354.406V260.822Z" fill="fill"/>
<path d="M359.638 259.078H357.894V260.822H359.638V259.078Z" fill="fill"/>
<path d="M359.638 260.822H357.894V262.566H359.638V260.822Z" fill="fill"/>
<path d="M357.894 259.078H356.149V260.822H357.894V259.078Z" fill="fill"/>
<path d="M356.148 259.078H354.404V260.822H356.148V259.078Z" fill="fill"/>
<path d="M354.406 259.078H352.662V260.822H354.406V259.078Z" fill="fill"/>
<path d="M352.661 259.078H350.917V260.822H352.661V259.078Z" fill="fill"/>
<path d="M352.661 260.822H350.917V262.566H352.661V260.822Z" fill="fill"/>
<path d="M361.37 257.345H359.625V259.089H361.37V257.345Z" fill="fill"/>
<path d="M363.115 257.345H361.371V259.089H363.115V257.345Z" fill="fill"/>
<path d="M359.638 257.345H357.894V259.089H359.638V257.345Z" fill="fill"/>
<path d="M357.894 257.345H356.149V259.089H357.894V257.345Z" fill="fill"/>
<path d="M356.148 257.345H354.404V259.089H356.148V257.345Z" fill="fill"/>
<path d="M354.406 257.345H352.662V259.089H354.406V257.345Z" fill="fill"/>
<path d="M352.661 257.345H350.917V259.089H352.661V257.345Z" fill="fill"/>
<path d="M364.859 255.601H363.115V257.345H364.859V255.601Z" fill="fill"/>
<path d="M363.115 255.601H361.371V257.345H363.115V255.601Z" fill="fill"/>
<path d="M361.37 255.601H359.625V257.345H361.37V255.601Z" fill="fill"/>
<path d="M359.638 255.601H357.894V257.345H359.638V255.601Z" fill="fill"/>
<path d="M357.894 255.601H356.149V257.345H357.894V255.601Z" fill="fill"/>
<path d="M356.148 255.601H354.404V257.345H356.148V255.601Z" fill="fill"/>
<path d="M354.406 255.601H352.662V257.345H354.406V255.601Z" fill="fill"/>
<path d="M352.661 255.601H350.917V257.345H352.661V255.601Z" fill="fill"/>
<path d="M350.917 255.601H349.172V257.345H350.917V255.601Z" fill="fill"/>
<path d="M349.172 255.601H347.428V257.345H349.172V255.601Z" fill="fill"/>
<path d="M347.429 255.601H345.685V257.345H347.429V255.601Z" fill="fill"/>
<path d="M368.347 253.868H366.603V255.612H368.347V253.868Z" fill="fill"/>
<path d="M366.602 253.868H364.857V255.612H366.602V253.868Z" fill="fill"/>
<path d="M364.859 253.868H363.115V255.612H364.859V253.868Z" fill="fill"/>
<path d="M363.115 253.868H361.371V255.612H363.115V253.868Z" fill="fill"/>
<path d="M361.37 253.868H359.625V255.612H361.37V253.868Z" fill="fill"/>
<path d="M359.638 253.868H357.894V255.612H359.638V253.868Z" fill="fill"/>
<path d="M357.894 253.868H356.149V255.612H357.894V253.868Z" fill="fill"/>
<path d="M356.148 253.868H354.404V255.612H356.148V253.868Z" fill="fill"/>
<path d="M354.406 253.868H352.662V255.612H354.406V253.868Z" fill="fill"/>
<path d="M352.661 253.868H350.917V255.612H352.661V253.868Z" fill="fill"/>
<path d="M350.917 253.868H349.172V255.612H350.917V253.868Z" fill="fill"/>
<path d="M349.172 253.868H347.428V255.612H349.172V253.868Z" fill="fill"/>
<path d="M347.429 253.868H345.685V255.612H347.429V253.868Z" fill="fill"/>
<path d="M345.684 253.868H343.94V255.612H345.684V253.868Z" fill="fill"/>
<path d="M363.115 252.124H361.371V253.868H363.115V252.124Z" fill="fill"/>
<path d="M361.37 252.124H359.625V253.868H361.37V252.124Z" fill="fill"/>
<path d="M359.638 252.124H357.894V253.868H359.638V252.124Z" fill="fill"/>
<path d="M357.894 252.124H356.149V253.868H357.894V252.124Z" fill="fill"/>
<path d="M356.148 252.124H354.404V253.868H356.148V252.124Z" fill="fill"/>
<path d="M354.406 252.124H352.662V253.868H354.406V252.124Z" fill="fill"/>
<path d="M352.661 252.124H350.917V253.868H352.661V252.124Z" fill="fill"/>
<path d="M350.917 252.124H349.172V253.868H350.917V252.124Z" fill="fill"/>
<path d="M349.172 252.124H347.428V253.868H349.172V252.124Z" fill="fill"/>
<path d="M359.638 250.38H357.894V252.124H359.638V250.38Z" fill="fill"/>
<path d="M357.894 250.38H356.149V252.124H357.894V250.38Z" fill="fill"/>
<path d="M356.148 250.38H354.404V252.124H356.148V250.38Z" fill="fill"/>
<path d="M354.406 250.38H352.662V252.124H354.406V250.38Z" fill="fill"/>
<path d="M352.661 250.38H350.917V252.124H352.661V250.38Z" fill="fill"/>
<path d="M352.661 248.647H350.917V250.391H352.661V248.647Z" fill="fill"/>
<path d="M359.638 248.647H357.894V250.391H359.638V248.647Z" fill="fill"/>
<path d="M357.894 248.647H356.149V250.391H357.894V248.647Z" fill="fill"/>
<path d="M356.148 248.647H354.404V250.391H356.148V248.647Z" fill="fill"/>
<path d="M354.406 248.647H352.662V250.391H354.406V248.647Z" fill="fill"/>
<path d="M357.894 246.903H356.149V248.647H357.894V246.903Z" fill="fill"/>
<path d="M356.148 246.903H354.404V248.647H356.148V246.903Z" fill="fill"/>
<path d="M354.406 246.903H352.662V248.647H354.406V246.903Z" fill="fill"/>
<path d="M357.894 245.17H356.149V246.914H357.894V245.17Z" fill="fill"/>
<path d="M356.148 245.17H354.404V246.914H356.148V245.17Z" fill="fill"/>
<path d="M354.406 245.17H352.662V246.914H354.406V245.17Z" fill="fill"/>
<path d="M357.894 243.426H356.149V245.17H357.894V243.426Z" fill="fill"/>
<path d="M356.148 243.426H354.404V245.17H356.148V243.426Z" fill="fill"/>
<path d="M356.148 241.693H354.404V243.437H356.148V241.693Z" fill="fill"/>
<path d="M354.406 243.426H352.662V245.17H354.406V243.426Z" fill="fill"/>
<path d="M354.406 241.693H352.662V243.437H354.406V241.693Z" fill="fill"/>
<path d="M356.148 239.948H354.404V241.693H356.148V239.948Z" fill="fill"/>
<path d="M356.148 238.204H354.404V239.948H356.148V238.204Z" fill="fill"/>
<path d="M359.01 424.479H357.266V426.223H359.01V424.479Z" fill="fill"/>
<path d="M359.01 422.734H357.266V424.479H359.01V422.734Z" fill="fill"/>
<path d="M360.754 421.001H359.01V422.746H360.754V421.001Z" fill="fill"/>
<path d="M359.01 421.001H357.266V422.746H359.01V421.001Z" fill="fill"/>
<path d="M360.754 419.257H359.01V421.001H360.754V419.257Z" fill="fill"/>
<path d="M359.01 419.257H357.266V421.001H359.01V419.257Z" fill="fill"/>
<path d="M360.754 417.524H359.01V419.269H360.754V417.524Z" fill="fill"/>
<path d="M359.01 417.524H357.266V419.269H359.01V417.524Z" fill="fill"/>
<path d="M357.265 417.524H355.521V419.269H357.265V417.524Z" fill="fill"/>
<path d="M360.754 415.78H359.01V417.524H360.754V415.78Z" fill="fill"/>
<path d="M359.01 415.78H357.266V417.524H359.01V415.78Z" fill="fill"/>
<path d="M357.265 415.78H355.521V417.524H357.265V415.78Z" fill="fill"/>
<path d="M362.499 414.036H360.755V415.78H362.499V414.036Z" fill="fill"/>
<path d="M362.499 415.78H360.755V417.524H362.499V415.78Z" fill="fill"/>
<path d="M360.754 414.036H359.01V415.78H360.754V414.036Z" fill="fill"/>
<path d="M359.01 414.036H357.266V415.78H359.01V414.036Z" fill="fill"/>
<path d="M357.265 414.036H355.521V415.78H357.265V414.036Z" fill="fill"/>
<path d="M355.523 414.036H353.778V415.78H355.523V414.036Z" fill="fill"/>
<path d="M355.523 415.78H353.778V417.524H355.523V415.78Z" fill="fill"/>
<path d="M364.242 412.303H362.498V414.047H364.242V412.303Z" fill="fill"/>
<path d="M365.987 412.303H364.243V414.047H365.987V412.303Z" fill="fill"/>
<path d="M362.499 412.303H360.755V414.047H362.499V412.303Z" fill="fill"/>
<path d="M360.754 412.303H359.01V414.047H360.754V412.303Z" fill="fill"/>
<path d="M359.01 412.303H357.266V414.047H359.01V412.303Z" fill="fill"/>
<path d="M357.265 412.303H355.521V414.047H357.265V412.303Z" fill="fill"/>
<path d="M355.523 412.303H353.778V414.047H355.523V412.303Z" fill="fill"/>
<path d="M367.731 410.559H365.987V412.303H367.731V410.559Z" fill="fill"/>
<path d="M365.987 410.559H364.243V412.303H365.987V410.559Z" fill="fill"/>
<path d="M364.242 410.559H362.498V412.303H364.242V410.559Z" fill="fill"/>
<path d="M362.499 410.559H360.755V412.303H362.499V410.559Z" fill="fill"/>
<path d="M360.754 410.559H359.01V412.303H360.754V410.559Z" fill="fill"/>
<path d="M359.01 410.559H357.266V412.303H359.01V410.559Z" fill="fill"/>
<path d="M357.265 410.559H355.521V412.303H357.265V410.559Z" fill="fill"/>
<path d="M355.523 410.559H353.778V412.303H355.523V410.559Z" fill="fill"/>
<path d="M353.788 410.559H352.044V412.303H353.788V410.559Z" fill="fill"/>
<path d="M352.044 410.559H350.3V412.303H352.044V410.559Z" fill="fill"/>
<path d="M350.301 410.559H348.557V412.303H350.301V410.559Z" fill="fill"/>
<path d="M371.208 408.826H369.463V410.57H371.208V408.826Z" fill="fill"/>
<path d="M369.476 408.826H367.732V410.57H369.476V408.826Z" fill="fill"/>
<path d="M367.731 408.826H365.987V410.57H367.731V408.826Z" fill="fill"/>
<path d="M365.987 408.826H364.243V410.57H365.987V408.826Z" fill="fill"/>
<path d="M364.242 408.826H362.498V410.57H364.242V408.826Z" fill="fill"/>
<path d="M362.499 408.826H360.755V410.57H362.499V408.826Z" fill="fill"/>
<path d="M360.754 408.826H359.01V410.57H360.754V408.826Z" fill="fill"/>
<path d="M359.01 408.826H357.266V410.57H359.01V408.826Z" fill="fill"/>
<path d="M357.265 408.826H355.521V410.57H357.265V408.826Z" fill="fill"/>
<path d="M355.523 408.826H353.778V410.57H355.523V408.826Z" fill="fill"/>
<path d="M353.788 408.826H352.044V410.57H353.788V408.826Z" fill="fill"/>
<path d="M352.044 408.826H350.3V410.57H352.044V408.826Z" fill="fill"/>
<path d="M350.301 408.826H348.557V410.57H350.301V408.826Z" fill="fill"/>
<path d="M348.557 408.826H346.812V410.57H348.557V408.826Z" fill="fill"/>
<path d="M365.987 407.082H364.243V408.826H365.987V407.082Z" fill="fill"/>
<path d="M364.242 407.082H362.498V408.826H364.242V407.082Z" fill="fill"/>
<path d="M362.499 407.082H360.755V408.826H362.499V407.082Z" fill="fill"/>
<path d="M360.754 407.082H359.01V408.826H360.754V407.082Z" fill="fill"/>
<path d="M359.01 407.082H357.266V408.826H359.01V407.082Z" fill="fill"/>
<path d="M357.265 407.082H355.521V408.826H357.265V407.082Z" fill="fill"/>
<path d="M355.523 407.082H353.778V408.826H355.523V407.082Z" fill="fill"/>
<path d="M353.788 407.082H352.044V408.826H353.788V407.082Z" fill="fill"/>
<path d="M352.044 407.082H350.3V408.826H352.044V407.082Z" fill="fill"/>
<path d="M362.499 405.349H360.755V407.093H362.499V405.349Z" fill="fill"/>
<path d="M360.754 405.349H359.01V407.093H360.754V405.349Z" fill="fill"/>
<path d="M359.01 405.349H357.266V407.093H359.01V405.349Z" fill="fill"/>
<path d="M357.265 405.349H355.521V407.093H357.265V405.349Z" fill="fill"/>
<path d="M355.523 405.349H353.778V407.093H355.523V405.349Z" fill="fill"/>
<path d="M355.523 403.605H353.778V405.349H355.523V403.605Z" fill="fill"/>
<path d="M362.499 403.605H360.755V405.349H362.499V403.605Z" fill="fill"/>
<path d="M360.754 403.605H359.01V405.349H360.754V403.605Z" fill="fill"/>
<path d="M359.01 403.605H357.266V405.349H359.01V403.605Z" fill="fill"/>
<path d="M357.265 403.605H355.521V405.349H357.265V403.605Z" fill="fill"/>
<path d="M360.754 401.861H359.01V403.605H360.754V401.861Z" fill="fill"/>
<path d="M359.01 401.861H357.266V403.605H359.01V401.861Z" fill="fill"/>
<path d="M357.265 401.861H355.521V403.605H357.265V401.861Z" fill="fill"/>
<path d="M360.754 400.128H359.01V401.872H360.754V400.128Z" fill="fill"/>
<path d="M359.01 400.128H357.266V401.872H359.01V400.128Z" fill="fill"/>
<path d="M357.265 400.128H355.521V401.872H357.265V400.128Z" fill="fill"/>
<path d="M360.754 398.384H359.01V400.128H360.754V398.384Z" fill="fill"/>
<path d="M359.01 398.384H357.266V400.128H359.01V398.384Z" fill="fill"/>
<path d="M359.01 396.651H357.266V398.395H359.01V396.651Z" fill="fill"/>
<path d="M357.265 398.384H355.521V400.128H357.265V398.384Z" fill="fill"/>
<path d="M357.265 396.651H355.521V398.395H357.265V396.651Z" fill="fill"/>
<path d="M359.01 394.907H357.266V396.651H359.01V394.907Z" fill="fill"/>
<path d="M359.01 393.163H357.266V394.907H359.01V393.163Z" fill="fill"/>
<path d="M239.683 377.018H237.939V378.762H239.683V377.018Z" fill="fill"/>
<path d="M239.683 375.285H237.939V377.03H239.683V375.285Z" fill="fill"/>
<path d="M241.428 373.541H239.684V375.285H241.428V373.541Z" fill="fill"/>
<path d="M239.683 373.541H237.939V375.285H239.683V373.541Z" fill="fill"/>
<path d="M241.428 371.797H239.684V373.541H241.428V371.797Z" fill="fill"/>
<path d="M239.683 371.797H237.939V373.541H239.683V371.797Z" fill="fill"/>
<path d="M241.428 370.064H239.684V371.808H241.428V370.064Z" fill="fill"/>
<path d="M239.683 370.064H237.939V371.808H239.683V370.064Z" fill="fill"/>
<path d="M237.952 370.064H236.208V371.808H237.952V370.064Z" fill="fill"/>
<path d="M241.428 368.32H239.684V370.064H241.428V368.32Z" fill="fill"/>
<path d="M239.683 368.32H237.939V370.064H239.683V368.32Z" fill="fill"/>
<path d="M237.952 368.32H236.208V370.064H237.952V368.32Z" fill="fill"/>
<path d="M243.172 366.587H241.428V368.331H243.172V366.587Z" fill="fill"/>
<path d="M243.172 368.32H241.428V370.064H243.172V368.32Z" fill="fill"/>
<path d="M241.428 366.587H239.684V368.331H241.428V366.587Z" fill="fill"/>
<path d="M239.683 366.587H237.939V368.331H239.683V366.587Z" fill="fill"/>
<path d="M237.952 366.587H236.208V368.331H237.952V366.587Z" fill="fill"/>
<path d="M236.207 366.587H234.462V368.331H236.207V366.587Z" fill="fill"/>
<path d="M236.207 368.32H234.462V370.064H236.207V368.32Z" fill="fill"/>
<path d="M244.915 364.843H243.171V366.587H244.915V364.843Z" fill="fill"/>
<path d="M246.66 364.843H244.916V366.587H246.66V364.843Z" fill="fill"/>
<path d="M243.172 364.843H241.428V366.587H243.172V364.843Z" fill="fill"/>
<path d="M241.428 364.843H239.684V366.587H241.428V364.843Z" fill="fill"/>
<path d="M239.683 364.843H237.939V366.587H239.683V364.843Z" fill="fill"/>
<path d="M237.952 364.843H236.208V366.587H237.952V364.843Z" fill="fill"/>
<path d="M236.207 364.843H234.462V366.587H236.207V364.843Z" fill="fill"/>
<path d="M248.405 363.099H246.661V364.843H248.405V363.099Z" fill="fill"/>
<path d="M246.66 363.099H244.916V364.843H246.66V363.099Z" fill="fill"/>
<path d="M244.915 363.099H243.171V364.843H244.915V363.099Z" fill="fill"/>
<path d="M243.172 363.099H241.428V364.843H243.172V363.099Z" fill="fill"/>
<path d="M241.428 363.099H239.684V364.843H241.428V363.099Z" fill="fill"/>
<path d="M239.683 363.099H237.939V364.843H239.683V363.099Z" fill="fill"/>
<path d="M237.952 363.099H236.208V364.843H237.952V363.099Z" fill="fill"/>
<path d="M236.207 363.099H234.462V364.843H236.207V363.099Z" fill="fill"/>
<path d="M234.462 363.099H232.718V364.843H234.462V363.099Z" fill="fill"/>
<path d="M232.717 363.099H230.973V364.843H232.717V363.099Z" fill="fill"/>
<path d="M230.975 363.099H229.23V364.843H230.975V363.099Z" fill="fill"/>
<path d="M251.892 361.366H250.148V363.11H251.892V361.366Z" fill="fill"/>
<path d="M250.147 361.366H248.403V363.11H250.147V361.366Z" fill="fill"/>
<path d="M248.405 361.366H246.661V363.11H248.405V361.366Z" fill="fill"/>
<path d="M246.66 361.366H244.916V363.11H246.66V361.366Z" fill="fill"/>
<path d="M244.915 361.366H243.171V363.11H244.915V361.366Z" fill="fill"/>
<path d="M243.172 361.366H241.428V363.11H243.172V361.366Z" fill="fill"/>
<path d="M241.428 361.366H239.684V363.11H241.428V361.366Z" fill="fill"/>
<path d="M239.683 361.366H237.939V363.11H239.683V361.366Z" fill="fill"/>
<path d="M237.952 361.366H236.208V363.11H237.952V361.366Z" fill="fill"/>
<path d="M236.207 361.366H234.462V363.11H236.207V361.366Z" fill="fill"/>
<path d="M234.462 361.366H232.718V363.11H234.462V361.366Z" fill="fill"/>
<path d="M232.717 361.366H230.973V363.11H232.717V361.366Z" fill="fill"/>
<path d="M230.975 361.366H229.23V363.11H230.975V361.366Z" fill="fill"/>
<path d="M229.23 361.366H227.486V363.11H229.23V361.366Z" fill="fill"/>
<path d="M246.66 359.622H244.916V361.366H246.66V359.622Z" fill="fill"/>
<path d="M244.915 359.622H243.171V361.366H244.915V359.622Z" fill="fill"/>
<path d="M243.172 359.622H241.428V361.366H243.172V359.622Z" fill="fill"/>
<path d="M241.428 359.622H239.684V361.366H241.428V359.622Z" fill="fill"/>
<path d="M239.683 359.622H237.939V361.366H239.683V359.622Z" fill="fill"/>
<path d="M237.952 359.622H236.208V361.366H237.952V359.622Z" fill="fill"/>
<path d="M236.207 359.622H234.462V361.366H236.207V359.622Z" fill="fill"/>
<path d="M234.462 359.622H232.718V361.366H234.462V359.622Z" fill="fill"/>
<path d="M232.717 359.622H230.973V361.366H232.717V359.622Z" fill="fill"/>
<path d="M243.172 357.889H241.428V359.633H243.172V357.889Z" fill="fill"/>
<path d="M241.428 357.889H239.684V359.633H241.428V357.889Z" fill="fill"/>
<path d="M239.683 357.889H237.939V359.633H239.683V357.889Z" fill="fill"/>
<path d="M237.952 357.889H236.208V359.633H237.952V357.889Z" fill="fill"/>
<path d="M236.207 357.889H234.462V359.633H236.207V357.889Z" fill="fill"/>
<path d="M236.207 356.145H234.462V357.889H236.207V356.145Z" fill="fill"/>
<path d="M243.172 356.145H241.428V357.889H243.172V356.145Z" fill="fill"/>
<path d="M241.428 356.145H239.684V357.889H241.428V356.145Z" fill="fill"/>
<path d="M239.683 356.145H237.939V357.889H239.683V356.145Z" fill="fill"/>
<path d="M237.952 356.145H236.208V357.889H237.952V356.145Z" fill="fill"/>
<path d="M241.428 354.412H239.684V356.156H241.428V354.412Z" fill="fill"/>
<path d="M239.683 354.412H237.939V356.156H239.683V354.412Z" fill="fill"/>
<path d="M237.952 354.412H236.208V356.156H237.952V354.412Z" fill="fill"/>
<path d="M241.428 352.668H239.684V354.412H241.428V352.668Z" fill="fill"/>
<path d="M239.683 352.668H237.939V354.412H239.683V352.668Z" fill="fill"/>
<path d="M237.952 352.668H236.208V354.412H237.952V352.668Z" fill="fill"/>
<path d="M241.428 350.924H239.684V352.668H241.428V350.924Z" fill="fill"/>
<path d="M239.683 350.924H237.939V352.668H239.683V350.924Z" fill="fill"/>
<path d="M239.683 349.191H237.939V350.935H239.683V349.191Z" fill="fill"/>
<path d="M237.952 350.924H236.208V352.668H237.952V350.924Z" fill="fill"/>
<path d="M237.952 349.191H236.208V350.935H237.952V349.191Z" fill="fill"/>
<path d="M239.683 347.447H237.939V349.191H239.683V347.447Z" fill="fill"/>
<path d="M239.683 345.714H237.939V347.458H239.683V345.714Z" fill="fill"/>
<path d="M41.1674 472.811H38.4395V475.539H41.1674V472.811Z" fill="fill"/>
<path d="M41.1674 470.083H38.4395V472.811H41.1674V470.083Z" fill="fill"/>
<path d="M43.8951 467.366H41.167V470.094H43.8951V467.366Z" fill="fill"/>
<path d="M41.1674 467.366H38.4395V470.094H41.1674V467.366Z" fill="fill"/>
<path d="M43.8951 464.638H41.167V467.366H43.8951V464.638Z" fill="fill"/>
<path d="M41.1674 464.638H38.4395V467.366H41.1674V464.638Z" fill="fill"/>
<path d="M43.8951 461.91H41.167V464.638H43.8951V461.91Z" fill="fill"/>
<path d="M41.1674 461.91H38.4395V464.638H41.1674V461.91Z" fill="fill"/>
<path d="M38.4405 461.91H35.7124V464.638H38.4405V461.91Z" fill="fill"/>
<path d="M43.8951 459.182H41.167V461.91H43.8951V459.182Z" fill="fill"/>
<path d="M41.1674 459.182H38.4395V461.91H41.1674V459.182Z" fill="fill"/>
<path d="M38.4405 459.182H35.7124V461.91H38.4405V459.182Z" fill="fill"/>
<path d="M46.6356 456.454H43.9077V459.182H46.6356V456.454Z" fill="fill"/>
<path d="M46.6356 459.182H43.9077V461.91H46.6356V459.182Z" fill="fill"/>
<path d="M43.8951 456.454H41.167V459.182H43.8951V456.454Z" fill="fill"/>
<path d="M41.1674 456.454H38.4395V459.182H41.1674V456.454Z" fill="fill"/>
<path d="M38.4405 456.454H35.7124V459.182H38.4405V456.454Z" fill="fill"/>
<path d="M35.7108 456.454H32.9829V459.182H35.7108V456.454Z" fill="fill"/>
<path d="M35.7108 459.182H32.9829V461.91H35.7108V459.182Z" fill="fill"/>
<path d="M49.3633 453.726H46.6353V456.454H49.3633V453.726Z" fill="fill"/>
<path d="M52.0902 453.726H49.3623V456.454H52.0902V453.726Z" fill="fill"/>
<path d="M46.6356 453.726H43.9077V456.454H46.6356V453.726Z" fill="fill"/>
<path d="M43.8951 453.726H41.167V456.454H43.8951V453.726Z" fill="fill"/>
<path d="M41.1674 453.726H38.4395V456.454H41.1674V453.726Z" fill="fill"/>
<path d="M38.4405 453.726H35.7124V456.454H38.4405V453.726Z" fill="fill"/>
<path d="M35.7108 453.726H32.9829V456.454H35.7108V453.726Z" fill="fill"/>
<path d="M54.831 450.998H52.103V453.726H54.831V450.998Z" fill="fill"/>
<path d="M52.0902 450.998H49.3623V453.726H52.0902V450.998Z" fill="fill"/>
<path d="M49.3633 450.998H46.6353V453.726H49.3633V450.998Z" fill="fill"/>
<path d="M46.6356 450.998H43.9077V453.726H46.6356V450.998Z" fill="fill"/>
<path d="M43.8951 450.998H41.167V453.726H43.8951V450.998Z" fill="fill"/>
<path d="M41.1674 450.998H38.4395V453.726H41.1674V450.998Z" fill="fill"/>
<path d="M38.4405 450.998H35.7124V453.726H38.4405V450.998Z" fill="fill"/>
<path d="M35.7108 450.998H32.9829V453.726H35.7108V450.998Z" fill="fill"/>
<path d="M32.9727 450.998H30.2446V453.726H32.9727V450.998Z" fill="fill"/>
<path d="M30.245 450.998H27.5171V453.726H30.245V450.998Z" fill="fill"/>
<path d="M27.5157 450.998H24.7876V453.726H27.5157V450.998Z" fill="fill"/>
<path d="M60.2855 448.281H57.5576V451.009H60.2855V448.281Z" fill="fill"/>
<path d="M57.5581 448.281H54.8301V451.009H57.5581V448.281Z" fill="fill"/>
<path d="M54.831 448.281H52.103V451.009H54.831V448.281Z" fill="fill"/>
<path d="M52.0902 448.281H49.3623V451.009H52.0902V448.281Z" fill="fill"/>
<path d="M49.3633 448.281H46.6353V451.009H49.3633V448.281Z" fill="fill"/>
<path d="M46.6356 448.281H43.9077V451.009H46.6356V448.281Z" fill="fill"/>
<path d="M43.8951 448.281H41.167V451.009H43.8951V448.281Z" fill="fill"/>
<path d="M41.1674 448.281H38.4395V451.009H41.1674V448.281Z" fill="fill"/>
<path d="M38.4405 448.281H35.7124V451.009H38.4405V448.281Z" fill="fill"/>
<path d="M35.7108 448.281H32.9829V451.009H35.7108V448.281Z" fill="fill"/>
<path d="M32.9727 448.281H30.2446V451.009H32.9727V448.281Z" fill="fill"/>
<path d="M30.245 448.281H27.5171V451.009H30.245V448.281Z" fill="fill"/>
<path d="M27.5157 448.281H24.7876V451.009H27.5157V448.281Z" fill="fill"/>
<path d="M24.7772 448.281H22.0493V451.009H24.7772V448.281Z" fill="fill"/>
<path d="M52.0902 445.553H49.3623V448.281H52.0902V445.553Z" fill="fill"/>
<path d="M49.3633 445.553H46.6353V448.281H49.3633V445.553Z" fill="fill"/>
<path d="M46.6356 445.553H43.9077V448.281H46.6356V445.553Z" fill="fill"/>
<path d="M43.8951 445.553H41.167V448.281H43.8951V445.553Z" fill="fill"/>
<path d="M41.1674 445.553H38.4395V448.281H41.1674V445.553Z" fill="fill"/>
<path d="M38.4405 445.553H35.7124V448.281H38.4405V445.553Z" fill="fill"/>
<path d="M35.7108 445.553H32.9829V448.281H35.7108V445.553Z" fill="fill"/>
<path d="M32.9727 445.553H30.2446V448.281H32.9727V445.553Z" fill="fill"/>
<path d="M30.245 445.553H27.5171V448.281H30.245V445.553Z" fill="fill"/>
<path d="M46.6356 442.825H43.9077V445.553H46.6356V442.825Z" fill="fill"/>
<path d="M43.8951 442.825H41.167V445.553H43.8951V442.825Z" fill="fill"/>
<path d="M41.1674 442.825H38.4395V445.553H41.1674V442.825Z" fill="fill"/>
<path d="M38.4405 442.825H35.7124V445.553H38.4405V442.825Z" fill="fill"/>
<path d="M35.7108 442.825H32.9829V445.553H35.7108V442.825Z" fill="fill"/>
<path d="M35.7108 440.097H32.9829V442.825H35.7108V440.097Z" fill="fill"/>
<path d="M46.6356 440.097H43.9077V442.825H46.6356V440.097Z" fill="fill"/>
<path d="M43.8951 440.097H41.167V442.825H43.8951V440.097Z" fill="fill"/>
<path d="M41.1674 440.097H38.4395V442.825H41.1674V440.097Z" fill="fill"/>
<path d="M38.4405 440.097H35.7124V442.825H38.4405V440.097Z" fill="fill"/>
<path d="M43.8951 437.369H41.167V440.097H43.8951V437.369Z" fill="fill"/>
<path d="M41.1674 437.369H38.4395V440.097H41.1674V437.369Z" fill="fill"/>
<path d="M38.4405 437.369H35.7124V440.097H38.4405V437.369Z" fill="fill"/>
<path d="M43.8951 434.641H41.167V437.369H43.8951V434.641Z" fill="fill"/>
<path d="M41.1674 434.641H38.4395V437.369H41.1674V434.641Z" fill="fill"/>
<path d="M38.4405 434.641H35.7124V437.369H38.4405V434.641Z" fill="fill"/>
<path d="M43.8951 431.924H41.167V434.652H43.8951V431.924Z" fill="fill"/>
<path d="M41.1674 431.924H38.4395V434.652H41.1674V431.924Z" fill="fill"/>
<path d="M41.1674 429.196H38.4395V431.924H41.1674V429.196Z" fill="fill"/>
<path d="M38.4405 431.924H35.7124V434.652H38.4405V431.924Z" fill="fill"/>
<path d="M38.4405 429.197H35.7124V431.925H38.4405V429.197Z" fill="fill"/>
<path d="M41.1674 426.469H38.4395V429.196H41.1674V426.469Z" fill="fill"/>
<path d="M41.1674 423.74H38.4395V426.468H41.1674V423.74Z" fill="fill"/>
<path d="M66.6926 134.508H60.2974V140.88H66.6926V134.508Z" fill="fill"/>
<path d="M66.6926 128.135H60.2974V134.508H66.6926V128.135Z" fill="fill"/>
<path d="M73.0753 121.762H66.6802V128.135H73.0753V121.762Z" fill="fill"/>
<path d="M66.6926 121.762H60.2974V128.135H66.6926V121.762Z" fill="fill"/>
<path d="M73.0753 115.378H66.6802V121.751H73.0753V115.378Z" fill="fill"/>
<path d="M66.6926 115.378H60.2974V121.751H66.6926V115.378Z" fill="fill"/>
<path d="M73.0753 109.005H66.6802V115.378H73.0753V109.005Z" fill="fill"/>
<path d="M66.6926 109.005H60.2974V115.378H66.6926V109.005Z" fill="fill"/>
<path d="M60.2965 109.005H53.9014V115.378H60.2965V109.005Z" fill="fill"/>
<path d="M73.0753 102.622H66.6802V108.994H73.0753V102.622Z" fill="fill"/>
<path d="M66.6926 102.622H60.2974V108.994H66.6926V102.622Z" fill="fill"/>
<path d="M60.2965 102.622H53.9014V108.994H60.2965V102.622Z" fill="fill"/>
<path d="M79.4713 96.2488H73.0762V102.622H79.4713V96.2488Z" fill="fill"/>
<path d="M79.4713 102.622H73.0762V108.994H79.4713V102.622Z" fill="fill"/>
<path d="M73.0753 96.2488H66.6802V102.622H73.0753V96.2488Z" fill="fill"/>
<path d="M66.6926 96.2488H60.2974V102.622H66.6926V96.2488Z" fill="fill"/>
<path d="M60.2965 96.2488H53.9014V102.622H60.2965V96.2488Z" fill="fill"/>
<path d="M53.9117 96.2488H47.5166V102.622H53.9117V96.2488Z" fill="fill"/>
<path d="M53.9117 102.622H47.5166V108.994H53.9117V102.622Z" fill="fill"/>
<path d="M85.8541 89.876H79.459V96.2487H85.8541V89.876Z" fill="fill"/>
<path d="M92.2502 89.876H85.855V96.2487H92.2502V89.876Z" fill="fill"/>
<path d="M79.4713 89.876H73.0762V96.2487H79.4713V89.876Z" fill="fill"/>
<path d="M73.0753 89.876H66.6802V96.2487H73.0753V89.876Z" fill="fill"/>
<path d="M66.6926 89.876H60.2974V96.2487H66.6926V89.876Z" fill="fill"/>
<path d="M60.2965 89.876H53.9014V96.2487H60.2965V89.876Z" fill="fill"/>
<path d="M53.9117 89.876H47.5166V96.2487H53.9117V89.876Z" fill="fill"/>
<path d="M98.6461 83.4922H92.251V89.8649H98.6461V83.4922Z" fill="fill"/>
<path d="M92.2502 83.4922H85.855V89.8649H92.2502V83.4922Z" fill="fill"/>
<path d="M85.8541 83.4922H79.459V89.8649H85.8541V83.4922Z" fill="fill"/>
<path d="M79.4713 83.4922H73.0762V89.8649H79.4713V83.4922Z" fill="fill"/>
<path d="M73.0753 83.4922H66.6802V89.8649H73.0753V83.4922Z" fill="fill"/>
<path d="M66.6926 83.4922H60.2974V89.8649H66.6926V83.4922Z" fill="fill"/>
<path d="M60.2965 83.4922H53.9014V89.8649H60.2965V83.4922Z" fill="fill"/>
<path d="M53.9117 83.4922H47.5166V89.8649H53.9117V83.4922Z" fill="fill"/>
<path d="M47.5183 83.4922H41.123V89.8649H47.5183V83.4922Z" fill="fill"/>
<path d="M41.1329 83.4922H34.7378V89.8649H41.1329V83.4922Z" fill="fill"/>
<path d="M34.7393 83.4922H28.3442V89.8649H34.7393V83.4922Z" fill="fill"/>
<path d="M111.425 77.1194H105.03V83.4921H111.425V77.1194Z" fill="fill"/>
<path d="M105.029 77.1194H98.6338V83.4921H105.029V77.1194Z" fill="fill"/>
<path d="M98.6461 77.1194H92.251V83.4921H98.6461V77.1194Z" fill="fill"/>
<path d="M92.2502 77.1194H85.855V83.4921H92.2502V77.1194Z" fill="fill"/>
<path d="M85.8541 77.1194H79.459V83.4921H85.8541V77.1194Z" fill="fill"/>
<path d="M79.4713 77.1194H73.0762V83.4921H79.4713V77.1194Z" fill="fill"/>
<path d="M73.0753 77.1194H66.6802V83.4921H73.0753V77.1194Z" fill="fill"/>
<path d="M66.6926 77.1194H60.2974V83.4921H66.6926V77.1194Z" fill="fill"/>
<path d="M60.2965 77.1194H53.9014V83.4921H60.2965V77.1194Z" fill="fill"/>
<path d="M53.9117 77.1194H47.5166V83.4921H53.9117V77.1194Z" fill="fill"/>
<path d="M47.5183 77.1194H41.123V83.4921H47.5183V77.1194Z" fill="fill"/>
<path d="M41.1329 77.1194H34.7378V83.4921H41.1329V77.1194Z" fill="fill"/>
<path d="M34.7393 77.1194H28.3442V83.4921H34.7393V77.1194Z" fill="fill"/>
<path d="M28.3433 77.1194H21.9482V83.4921H28.3433V77.1194Z" fill="fill"/>
<path d="M92.2502 70.7354H85.855V77.1081H92.2502V70.7354Z" fill="fill"/>
<path d="M85.8541 70.7354H79.459V77.1081H85.8541V70.7354Z" fill="fill"/>
<path d="M79.4713 70.7354H73.0762V77.1081H79.4713V70.7354Z" fill="fill"/>
<path d="M73.0753 70.7354H66.6802V77.1081H73.0753V70.7354Z" fill="fill"/>
<path d="M66.6926 70.7354H60.2974V77.1081H66.6926V70.7354Z" fill="fill"/>
<path d="M60.2965 70.7354H53.9014V77.1081H60.2965V70.7354Z" fill="fill"/>
<path d="M53.9117 70.7354H47.5166V77.1081H53.9117V70.7354Z" fill="fill"/>
<path d="M47.5183 70.7354H41.123V77.1081H47.5183V70.7354Z" fill="fill"/>
<path d="M41.1329 70.7354H34.7378V77.1081H41.1329V70.7354Z" fill="fill"/>
<path d="M79.4713 64.3628H73.0762V70.7355H79.4713V64.3628Z" fill="fill"/>
<path d="M73.0753 64.3628H66.6802V70.7355H73.0753V64.3628Z" fill="fill"/>
<path d="M66.6926 64.3628H60.2974V70.7355H66.6926V64.3628Z" fill="fill"/>
<path d="M60.2965 64.3628H53.9014V70.7355H60.2965V64.3628Z" fill="fill"/>
<path d="M53.9117 64.3628H47.5166V70.7355H53.9117V64.3628Z" fill="fill"/>
<path d="M53.9117 57.9788H47.5166V64.3515H53.9117V57.9788Z" fill="fill"/>
<path d="M79.4713 57.9788H73.0762V64.3515H79.4713V57.9788Z" fill="fill"/>
<path d="M73.0753 57.9788H66.6802V64.3515H73.0753V57.9788Z" fill="fill"/>
<path d="M66.6926 57.9788H60.2974V64.3515H66.6926V57.9788Z" fill="fill"/>
<path d="M60.2965 57.9788H53.9014V64.3515H60.2965V57.9788Z" fill="fill"/>
<path d="M73.0753 51.606H66.6802V57.9787H73.0753V51.606Z" fill="fill"/>
<path d="M66.6926 51.606H60.2974V57.9787H66.6926V51.606Z" fill="fill"/>
<path d="M60.2965 51.606H53.9014V57.9787H60.2965V51.606Z" fill="fill"/>
<path d="M73.0753 45.2332H66.6802V51.6059H73.0753V45.2332Z" fill="fill"/>
<path d="M66.6926 45.2332H60.2974V51.6059H66.6926V45.2332Z" fill="fill"/>
<path d="M60.2965 45.2334H53.9014V51.6061H60.2965V45.2334Z" fill="fill"/>
<path d="M73.0753 38.8494H66.6802V45.2221H73.0753V38.8494Z" fill="fill"/>
<path d="M66.6926 38.8494H60.2974V45.2221H66.6926V38.8494Z" fill="fill"/>
<path d="M66.6926 32.4766H60.2974V38.8493H66.6926V32.4766Z" fill="fill"/>
<path d="M60.2965 38.8494H53.9014V45.2221H60.2965V38.8494Z" fill="fill"/>
<path d="M60.2965 32.4766H53.9014V38.8493H60.2965V32.4766Z" fill="fill"/>
<path d="M66.6926 26.0928H60.2974V32.4655H66.6926V26.0928Z" fill="fill"/>
<path d="M66.6926 19.72H60.2974V26.0927H66.6926V19.72Z" fill="fill"/>
<path d="M134.295 469.736H127.9V476.109H134.295V469.736Z" fill="fill"/>
<path d="M134.295 463.364H127.9V469.736H134.295V463.364Z" fill="fill"/>
<path d="M140.691 456.98H134.296V463.352H140.691V456.98Z" fill="fill"/>
<path d="M134.295 456.98H127.9V463.352H134.295V456.98Z" fill="fill"/>
<path d="M140.691 450.607H134.296V456.98H140.691V450.607Z" fill="fill"/>
<path d="M134.295 450.607H127.9V456.98H134.295V450.607Z" fill="fill"/>
<path d="M140.691 444.223H134.296V450.596H140.691V444.223Z" fill="fill"/>
<path d="M134.295 444.223H127.9V450.596H134.295V444.223Z" fill="fill"/>
<path d="M127.913 444.223H121.518V450.596H127.913V444.223Z" fill="fill"/>
<path d="M140.691 437.85H134.296V444.223H140.691V437.85Z" fill="fill"/>
<path d="M134.295 437.85H127.9V444.223H134.295V437.85Z" fill="fill"/>
<path d="M127.913 437.85H121.518V444.223H127.913V437.85Z" fill="fill"/>
<path d="M147.087 431.466H140.692V437.839H147.087V431.466Z" fill="fill"/>
<path d="M147.087 437.85H140.692V444.223H147.087V437.85Z" fill="fill"/>
<path d="M140.691 431.466H134.296V437.839H140.691V431.466Z" fill="fill"/>
<path d="M134.295 431.466H127.9V437.839H134.295V431.466Z" fill="fill"/>
<path d="M127.913 431.466H121.518V437.839H127.913V431.466Z" fill="fill"/>
<path d="M121.517 431.466H115.122V437.839H121.517V431.466Z" fill="fill"/>
<path d="M121.517 437.85H115.122V444.223H121.517V437.85Z" fill="fill"/>
<path d="M153.47 425.094H147.075V431.466H153.47V425.094Z" fill="fill"/>
<path d="M159.866 425.094H153.471V431.466H159.866V425.094Z" fill="fill"/>
<path d="M147.087 425.094H140.692V431.466H147.087V425.094Z" fill="fill"/>
<path d="M140.691 425.094H134.296V431.466H140.691V425.094Z" fill="fill"/>
<path d="M134.295 425.094H127.9V431.466H134.295V425.094Z" fill="fill"/>
<path d="M127.913 425.094H121.518V431.466H127.913V425.094Z" fill="fill"/>
<path d="M121.517 425.094H115.122V431.466H121.517V425.094Z" fill="fill"/>
<path d="M166.249 418.721H159.854V425.094H166.249V418.721Z" fill="fill"/>
<path d="M159.866 418.721H153.471V425.093H159.866V418.721Z" fill="fill"/>
<path d="M153.47 418.721H147.075V425.094H153.47V418.721Z" fill="fill"/>
<path d="M147.087 418.721H140.692V425.094H147.087V418.721Z" fill="fill"/>
<path d="M140.691 418.721H134.296V425.094H140.691V418.721Z" fill="fill"/>
<path d="M134.295 418.721H127.9V425.094H134.295V418.721Z" fill="fill"/>
<path d="M127.913 418.721H121.518V425.093H127.913V418.721Z" fill="fill"/>
<path d="M121.517 418.721H115.122V425.094H121.517V418.721Z" fill="fill"/>
<path d="M115.134 418.721H108.739V425.094H115.134V418.721Z" fill="fill"/>
<path d="M108.738 418.721H102.343V425.094H108.738V418.721Z" fill="fill"/>
<path d="M102.356 418.721H95.9604V425.094H102.356V418.721Z" fill="fill"/>
<path d="M179.03 412.337H172.635V418.71H179.03V412.337Z" fill="fill"/>
<path d="M172.645 412.337H166.25V418.71H172.645V412.337Z" fill="fill"/>
<path d="M166.249 412.337H159.854V418.71H166.249V412.337Z" fill="fill"/>
<path d="M159.866 412.337H153.471V418.71H159.866V412.337Z" fill="fill"/>
<path d="M153.47 412.337H147.075V418.71H153.47V412.337Z" fill="fill"/>
<path d="M147.087 412.337H140.692V418.71H147.087V412.337Z" fill="fill"/>
<path d="M140.691 412.337H134.296V418.71H140.691V412.337Z" fill="fill"/>
<path d="M134.295 412.337H127.9V418.71H134.295V412.337Z" fill="fill"/>
<path d="M127.913 412.337H121.518V418.71H127.913V412.337Z" fill="fill"/>
<path d="M121.517 412.337H115.122V418.71H121.517V412.337Z" fill="fill"/>
<path d="M115.134 412.337H108.739V418.71H115.134V412.337Z" fill="fill"/>
<path d="M108.738 412.337H102.343V418.71H108.738V412.337Z" fill="fill"/>
<path d="M102.356 412.337H95.9604V418.71H102.356V412.337Z" fill="fill"/>
<path d="M95.9595 412.337H89.5645V418.71H95.9595V412.337Z" fill="fill"/>
<path d="M159.866 405.964H153.471V412.337H159.866V405.964Z" fill="fill"/>
<path d="M153.47 405.964H147.075V412.337H153.47V405.964Z" fill="fill"/>
<path d="M147.087 405.964H140.692V412.337H147.087V405.964Z" fill="fill"/>
<path d="M140.691 405.964H134.296V412.337H140.691V405.964Z" fill="fill"/>
<path d="M134.295 405.964H127.9V412.337H134.295V405.964Z" fill="fill"/>
<path d="M127.913 405.964H121.518V412.337H127.913V405.964Z" fill="fill"/>
<path d="M121.517 405.964H115.122V412.337H121.517V405.964Z" fill="fill"/>
<path d="M115.134 405.964H108.739V412.337H115.134V405.964Z" fill="fill"/>
<path d="M108.738 405.964H102.343V412.337H108.738V405.964Z" fill="fill"/>
<path d="M147.087 399.58H140.692V405.953H147.087V399.58Z" fill="fill"/>
<path d="M140.691 399.58H134.296V405.953H140.691V399.58Z" fill="fill"/>
<path d="M134.295 399.58H127.9V405.953H134.295V399.58Z" fill="fill"/>
<path d="M127.913 399.58H121.518V405.953H127.913V399.58Z" fill="fill"/>
<path d="M121.517 399.58H115.122V405.953H121.517V399.58Z" fill="fill"/>
<path d="M121.517 393.208H115.122V399.58H121.517V393.208Z" fill="fill"/>
<path d="M147.087 393.208H140.692V399.58H147.087V393.208Z" fill="fill"/>
<path d="M140.691 393.208H134.296V399.58H140.691V393.208Z" fill="fill"/>
<path d="M134.295 393.208H127.9V399.58H134.295V393.208Z" fill="fill"/>
<path d="M127.913 393.208H121.518V399.58H127.913V393.208Z" fill="fill"/>
<path d="M140.691 386.823H134.296V393.196H140.691V386.823Z" fill="fill"/>
<path d="M134.295 386.823H127.9V393.196H134.295V386.823Z" fill="fill"/>
<path d="M127.913 386.823H121.518V393.196H127.913V386.823Z" fill="fill"/>
<path d="M140.691 380.451H134.296V386.824H140.691V380.451Z" fill="fill"/>
<path d="M134.295 380.451H127.9V386.824H134.295V380.451Z" fill="fill"/>
<path d="M127.913 380.451H121.518V386.824H127.913V380.451Z" fill="fill"/>
<path d="M140.691 374.078H134.296V380.451H140.691V374.078Z" fill="fill"/>
<path d="M134.295 374.078H127.9V380.451H134.295V374.078Z" fill="fill"/>
<path d="M134.295 367.694H127.9V374.067H134.295V367.694Z" fill="fill"/>
<path d="M127.913 374.078H121.518V380.451H127.913V374.078Z" fill="fill"/>
<path d="M127.913 367.694H121.518V374.067H127.913V367.694Z" fill="fill"/>
<path d="M134.295 361.321H127.9V367.694H134.295V361.321Z" fill="fill"/>
<path d="M134.295 354.938H127.9V361.31H134.295V354.938Z" fill="fill"/>
<path d="M81.068 361.712H79.0107V363.758H81.068V361.712Z" fill="fill"/>
<path d="M81.068 359.667H79.0107V361.712H81.068V359.667Z" fill="fill"/>
<path d="M83.1138 357.609H81.0566V359.655H83.1138V357.609Z" fill="fill"/>
<path d="M81.068 357.609H79.0107V359.655H81.068V357.609Z" fill="fill"/>
<path d="M83.1138 355.563H81.0566V357.609H83.1138V355.563Z" fill="fill"/>
<path d="M81.068 355.563H79.0107V357.609H81.068V355.563Z" fill="fill"/>
<path d="M83.1138 353.517H81.0566V355.563H83.1138V353.517Z" fill="fill"/>
<path d="M81.068 353.517H79.0107V355.563H81.068V353.517Z" fill="fill"/>
<path d="M79.0107 353.517H76.9536V355.563H79.0107V353.517Z" fill="fill"/>
<path d="M83.1138 351.46H81.0566V353.506H83.1138V351.46Z" fill="fill"/>
<path d="M81.068 351.46H79.0107V353.506H81.068V351.46Z" fill="fill"/>
<path d="M79.0107 351.46H76.9536V353.506H79.0107V351.46Z" fill="fill"/>
<path d="M85.1709 349.414H83.1138V351.46H85.1709V349.414Z" fill="fill"/>
<path d="M85.1709 351.46H83.1138V353.506H85.1709V351.46Z" fill="fill"/>
<path d="M83.1138 349.414H81.0566V351.46H83.1138V349.414Z" fill="fill"/>
<path d="M81.068 349.414H79.0107V351.46H81.068V349.414Z" fill="fill"/>
<path d="M79.0107 349.414H76.9536V351.46H79.0107V349.414Z" fill="fill"/>
<path d="M76.9541 349.414H74.897V351.46H76.9541V349.414Z" fill="fill"/>
<path d="M76.9541 351.46H74.897V353.506H76.9541V351.46Z" fill="fill"/>
<path d="M87.2282 347.368H85.1709V349.414H87.2282V347.368Z" fill="fill"/>
<path d="M89.2739 347.368H87.2168V349.414H89.2739V347.368Z" fill="fill"/>
<path d="M85.1709 347.368H83.1138V349.414H85.1709V347.368Z" fill="fill"/>
<path d="M83.1138 347.368H81.0566V349.414H83.1138V347.368Z" fill="fill"/>
<path d="M81.068 347.368H79.0107V349.414H81.068V347.368Z" fill="fill"/>
<path d="M79.0107 347.368H76.9536V349.414H79.0107V347.368Z" fill="fill"/>
<path d="M76.9541 347.368H74.897V349.414H76.9541V347.368Z" fill="fill"/>
<path d="M91.333 345.311H89.2759V347.357H91.333V345.311Z" fill="fill"/>
<path d="M89.2739 345.311H87.2168V347.357H89.2739V345.311Z" fill="fill"/>
<path d="M87.2282 345.311H85.1709V347.357H87.2282V345.311Z" fill="fill"/>
<path d="M85.1709 345.311H83.1138V347.357H85.1709V345.311Z" fill="fill"/>
<path d="M83.1138 345.311H81.0566V347.357H83.1138V345.311Z" fill="fill"/>
<path d="M81.068 345.311H79.0107V347.357H81.068V345.311Z" fill="fill"/>
<path d="M79.0107 345.311H76.9536V347.357H79.0107V345.311Z" fill="fill"/>
<path d="M76.9541 345.311H74.897V347.357H76.9541V345.311Z" fill="fill"/>
<path d="M74.897 345.311H72.8398V347.357H74.897V345.311Z" fill="fill"/>
<path d="M72.8506 345.311H70.7935V347.357H72.8506V345.311Z" fill="fill"/>
<path d="M70.794 345.311H68.7368V347.357H70.794V345.311Z" fill="fill"/>
<path d="M95.4474 343.265H93.3901V345.311H95.4474V343.265Z" fill="fill"/>
<path d="M93.3901 343.265H91.333V345.311H93.3901V343.265Z" fill="fill"/>
<path d="M91.333 343.265H89.2759V345.311H91.333V343.265Z" fill="fill"/>
<path d="M89.2739 343.265H87.2168V345.311H89.2739V343.265Z" fill="fill"/>
<path d="M87.2282 343.265H85.1709V345.311H87.2282V343.265Z" fill="fill"/>
<path d="M85.1709 343.265H83.1138V345.311H85.1709V343.265Z" fill="fill"/>
<path d="M83.1138 343.265H81.0566V345.311H83.1138V343.265Z" fill="fill"/>
<path d="M81.068 343.265H79.0107V345.311H81.068V343.265Z" fill="fill"/>
<path d="M79.0107 343.265H76.9536V345.311H79.0107V343.265Z" fill="fill"/>
<path d="M76.9541 343.265H74.897V345.311H76.9541V343.265Z" fill="fill"/>
<path d="M74.897 343.265H72.8398V345.311H74.897V343.265Z" fill="fill"/>
<path d="M72.8506 343.265H70.7935V345.311H72.8506V343.265Z" fill="fill"/>
<path d="M70.794 343.265H68.7368V345.311H70.794V343.265Z" fill="fill"/>
<path d="M68.7368 343.265H66.6797V345.311H68.7368V343.265Z" fill="fill"/>
<path d="M89.2739 341.219H87.2168V343.265H89.2739V341.219Z" fill="fill"/>
<path d="M87.2282 341.219H85.1709V343.265H87.2282V341.219Z" fill="fill"/>
<path d="M85.1709 341.219H83.1138V343.265H85.1709V341.219Z" fill="fill"/>
<path d="M83.1138 341.219H81.0566V343.265H83.1138V341.219Z" fill="fill"/>
<path d="M81.068 341.219H79.0107V343.265H81.068V341.219Z" fill="fill"/>
<path d="M79.0107 341.219H76.9536V343.265H79.0107V341.219Z" fill="fill"/>
<path d="M76.9541 341.219H74.897V343.265H76.9541V341.219Z" fill="fill"/>
<path d="M74.897 341.219H72.8398V343.265H74.897V341.219Z" fill="fill"/>
<path d="M72.8506 341.219H70.7935V343.265H72.8506V341.219Z" fill="fill"/>
<path d="M85.1709 339.162H83.1138V341.208H85.1709V339.162Z" fill="fill"/>
<path d="M83.1138 339.162H81.0566V341.208H83.1138V339.162Z" fill="fill"/>
<path d="M81.068 339.162H79.0107V341.208H81.068V339.162Z" fill="fill"/>
<path d="M79.0107 339.162H76.9536V341.208H79.0107V339.162Z" fill="fill"/>
<path d="M76.9541 339.162H74.897V341.208H76.9541V339.162Z" fill="fill"/>
<path d="M76.9541 337.116H74.897V339.162H76.9541V337.116Z" fill="fill"/>
<path d="M85.1709 337.116H83.1138V339.162H85.1709V337.116Z" fill="fill"/>
<path d="M83.1138 337.116H81.0566V339.162H83.1138V337.116Z" fill="fill"/>
<path d="M81.068 337.116H79.0107V339.162H81.068V337.116Z" fill="fill"/>
<path d="M79.0107 337.116H76.9536V339.162H79.0107V337.116Z" fill="fill"/>
<path d="M83.1138 335.07H81.0566V337.116H83.1138V335.07Z" fill="fill"/>
<path d="M81.068 335.07H79.0107V337.116H81.068V335.07Z" fill="fill"/>
<path d="M79.0107 335.07H76.9536V337.116H79.0107V335.07Z" fill="fill"/>
<path d="M83.1138 333.013H81.0566V335.059H83.1138V333.013Z" fill="fill"/>
<path d="M81.068 333.013H79.0107V335.059H81.068V333.013Z" fill="fill"/>
<path d="M79.0107 333.013H76.9536V335.059H79.0107V333.013Z" fill="fill"/>
<path d="M83.1138 330.967H81.0566V333.013H83.1138V330.967Z" fill="fill"/>
<path d="M81.068 330.967H79.0107V333.013H81.068V330.967Z" fill="fill"/>
<path d="M81.068 328.921H79.0107V330.967H81.068V328.921Z" fill="fill"/>
<path d="M79.0107 330.967H76.9536V333.013H79.0107V330.967Z" fill="fill"/>
<path d="M79.0107 328.921H76.9536V330.967H79.0107V328.921Z" fill="fill"/>
<path d="M81.068 326.864H79.0107V328.91H81.068V326.864Z" fill="fill"/>
<path d="M81.068 324.818H79.0107V326.864H81.068V324.818Z" fill="fill"/>
</svg>
