<svg width="397" height="142" viewBox="0 0 397 142" fill="none" xmlns="http://www.w3.org/2000/svg">
<path d="M375.422 40.2V20H354.789V40.2V60.4V80.6V100.8V121H375.422V100.8H396.056V80.6V60.4V40.2H375.422Z" fill="white"/>
<path d="M310.395 121.429H288.259H266.123H243.987H221.851H199.715H177.579H155.443H133.307H111.18H89.0439H66.9079H44.7719V101.19V80.9524V60.7143V40.4762V20.2381H66.9079H89.0439H111.18H133.307H155.443H177.579H199.715H221.851H243.987H266.123H288.259H310.395H332.531H354.667V0H332.531H310.395H288.259H266.123H243.987H221.851H199.715H177.579H155.443H133.307H111.18H89.0439H66.9079H44.7719H22.636V20.2381H0.5V40.4762V60.7143V80.9524V101.19V121.429H22.636V141.667H44.7719H66.9079H89.0439H111.18H133.307H155.443H177.579H199.715H221.851H243.987H266.123H288.259H310.395H332.531H354.667V121.429H332.531H310.395Z" fill="white"/>
</svg>
