<svg width="width" height="height" viewBox="0 0 260 170" fill="none" xmlns="http://www.w3.org/2000/svg">
<path d="M205.621 166.709C184.152 168.588 161.058 169.797 136.501 169.977C107.003 170.19 79.5212 168.899 54.3793 166.709C50.7551 166.709 31.4802 166.349 15.927 150.692C6.07827 140.788 8.13213e-06 127.125 8.13213e-06 112.023L8.13213e-06 56.3409C-0.0162439 26.1382 24.3293 1.63927 54.3793 1.63927C80.155 0.527911 107.02 -0.0604545 134.876 0.00491952C159.254 0.0702935 182.852 0.658659 205.621 1.63927C209.245 1.63927 228.52 1.99883 244.073 17.6559C253.922 27.5601 260 41.2232 260 56.3246V112.007C260 142.21 235.654 166.709 205.604 166.709H205.621Z" fill="fill"/>
</svg>
