<svg width="216" height="70" viewBox="0 0 216 70" fill="none" xmlns="http://www.w3.org/2000/svg">
<path d="M48.1242 7.66748H41.5132V14.2442H48.1242V7.66748Z" fill="fill"/>
<path d="M53.6871 12.8116H47.0762V19.3884H53.6871V12.8116Z" fill="fill"/>
<path d="M57.9225 16.6698H51.3115V23.2465H57.9225V16.6698Z" fill="fill"/>
<path d="M60.8229 19.2582H54.2119V25.8349H60.8229V19.2582Z" fill="fill"/>
<path d="M62.3937 20.5442H55.7827V27.1209H62.3937V20.5442Z" fill="fill"/>
<path d="M62.4926 20.4139H55.8818V26.9907H62.4926V20.4139Z" fill="fill"/>
<path d="M60.0539 17.7767H53.4268V24.3698H60.0539V17.7767Z" fill="fill"/>
<path d="M55.6171 14.8954H48.9897V21.4884H55.6171V14.8954Z" fill="fill"/>
<path d="M52.558 17.8582H45.9307V24.4512H52.558V17.8582Z" fill="fill"/>
<path d="M49.4818 20.8209H42.8545V27.4139H49.4818V20.8209Z" fill="fill"/>
<path d="M46.4228 23.7838H39.7954V30.3768H46.4228V23.7838Z" fill="fill"/>
<path d="M43.3437 26.7466H36.7163V33.3396H43.3437V26.7466Z" fill="fill"/>
<path d="M40.3063 29.7094H33.6626V36.3187H40.3063V29.7094Z" fill="fill"/>
<path d="M37.2272 32.6721H30.5835V39.2814H37.2272V32.6721Z" fill="fill"/>
<path d="M34.1681 35.6349H27.5244V42.2442H34.1681V35.6349Z" fill="fill"/>
<path d="M31.0895 38.5977H24.4458V45.207H31.0895V38.5977Z" fill="fill"/>
<path d="M28.03 41.5605H21.3862V48.1699H28.03V41.5605Z" fill="fill"/>
<path d="M24.9513 44.5233H18.3076V51.1326H24.9513V44.5233Z" fill="fill"/>
<path d="M21.5825 46.2977H14.939V52.907H21.5825V46.2977Z" fill="fill"/>
<path d="M17.3801 41.4465H10.7202V48.0721H17.3801V41.4465Z" fill="fill"/>
<path d="M15.3191 39.1512H8.65918V45.7768H15.3191V39.1512Z" fill="fill"/>
<path d="M15.2343 39.2001H8.57422V45.8257H15.2343V39.2001Z" fill="fill"/>
<path d="M16.4589 40.7791H9.79883V47.4046H16.4589V40.7791Z" fill="fill"/>
<path d="M18.8862 43.7744H12.2261V50.4H18.8862V43.7744Z" fill="fill"/>
<path d="M22.5151 48.2024H15.855V54.828H22.5151V48.2024Z" fill="fill"/>
<path d="M27.3264 54.0465H20.6665V60.6721H27.3264V54.0465Z" fill="fill"/>
<path d="M61.9311 41.5117H55.3203V48.0885H61.9311V41.5117Z" fill="fill"/>
<path d="M56.4196 46.4768H49.8086V53.0536H56.4196V46.4768Z" fill="fill"/>
<path d="M52.3115 50.1559H45.7007V56.7326H52.3115V50.1559Z" fill="fill"/>
<path d="M49.6264 52.5488H43.0156V59.1256H49.6264V52.5488Z" fill="fill"/>
<path d="M48.3507 53.6395H41.7397V60.2163H48.3507V53.6395Z" fill="fill"/>
<path d="M48.7589 53.2001H42.1479V59.7768H48.7589V53.2001Z" fill="fill"/>
<path d="M51.9167 50.2535H45.2896V56.8466H51.9167V50.2535Z" fill="fill"/>
<path d="M53.5727 46.1675H46.9453V52.7605H53.5727V46.1675Z" fill="fill"/>
<path d="M50.6408 43.1559H44.0137V49.7489H50.6408V43.1559Z" fill="fill"/>
<path d="M47.7152 40.1605H41.0879V46.7536H47.7152V40.1605Z" fill="fill"/>
<path d="M44.7663 37.1489H38.1392V43.7419H44.7663V37.1489Z" fill="fill"/>
<path d="M41.8405 34.1536H35.2134V40.7466H41.8405V34.1536Z" fill="fill"/>
<path d="M38.9255 31.142H32.2817V37.7513H38.9255V31.142Z" fill="fill"/>
<path d="M35.9968 28.1466H29.353V34.7559H35.9968V28.1466Z" fill="fill"/>
<path d="M33.0678 25.1349H26.4243V31.7442H33.0678V25.1349Z" fill="fill"/>
<path d="M30.1393 22.1233H23.4956V28.7326H30.1393V22.1233Z" fill="fill"/>
<path d="M27.1933 19.1279H20.5498V25.7372H27.1933V19.1279Z" fill="fill"/>
<path d="M24.2617 16.1163H17.6182V22.7256H24.2617V16.1163Z" fill="fill"/>
<path d="M22.1013 13.1536H15.4575V19.7629H22.1013V13.1536Z" fill="fill"/>
<path d="M25.2786 10.3861H18.6187V17.0117H25.2786V10.3861Z" fill="fill"/>
<path d="M28.4343 7.61865H21.7744V14.2442H28.4343V7.61865Z" fill="fill"/>
<path d="M28.2558 7.83032H21.5957V14.4559H28.2558V7.83032Z" fill="fill"/>
<path d="M25.1624 10.6466H18.5024V17.2722H25.1624V10.6466Z" fill="fill"/>
<path d="M22.0554 13.4791H15.3955V20.1047H22.0554V13.4791Z" fill="fill"/>
<path d="M18.948 16.3116H12.2881V22.9372H18.948V16.3116Z" fill="fill"/>
<path d="M15.8518 19.1279H9.19189V25.7535H15.8518V19.1279Z" fill="fill"/>
<path d="M35.738 3.53259H29.8799V9.3605H35.738V3.53259Z" fill="fill"/>
<path d="M30.1274 4.65588H24.269V10.4838H30.1274V4.65588Z" fill="fill"/>
<path d="M25.412 6.78845H19.5537V12.6164H25.412V6.78845Z" fill="fill"/>
<path d="M21.6496 9.34424H15.7915V15.1721H21.6496V9.34424Z" fill="fill"/>
<path d="M18.948 11.7535H13.0898V17.5814H18.948V11.7535Z" fill="fill"/>
<path d="M17.3972 13.4303H11.5391V19.2582H17.3972V13.4303Z" fill="fill"/>
<path d="M16.0194 15.1559H10.1611V20.9838H16.0194V15.1559Z" fill="fill"/>
<path d="M14.1023 18.0861H8.24414V23.914H14.1023V18.0861Z" fill="fill"/>
<path d="M12.1745 22.0745H6.31641V27.9024H12.1745V22.0745Z" fill="fill"/>
<path d="M10.7653 26.9581H4.90723V32.786H10.7653V26.9581Z" fill="fill"/>
<path d="M10.3742 32.4768H4.51611V38.3047H10.3742V32.4768Z" fill="fill"/>
<path d="M10.8166 36.2373H4.9585V42.0652H10.8166V36.2373Z" fill="fill"/>
<path d="M11.8317 40.0303H5.97363V45.8582H11.8317V40.0303Z" fill="fill"/>
<path d="M13.3686 43.7744H7.51025V49.6023H13.3686V43.7744Z" fill="fill"/>
<path d="M15.4154 47.3396H9.55713V53.1675H15.4154V47.3396Z" fill="fill"/>
<path d="M17.9499 50.6768H12.0918V56.5047H17.9499V50.6768Z" fill="fill"/>
<path d="M20.9608 53.6559H15.1025V59.4838H20.9608V53.6559Z" fill="fill"/>
<path d="M24.3974 56.1791H18.5391V62.007H24.3974V56.1791Z" fill="fill"/>
<path d="M28.2414 58.1814H22.3833V64.0093H28.2414V58.1814Z" fill="fill"/>
<path d="M32.5002 59.5488H26.6421V65.3767H32.5002V59.5488Z" fill="fill"/>
<path d="M37.1296 60.1837H31.2715V66.0116H37.1296V60.1837Z" fill="fill"/>
<path d="M41.9187 59.9884H36.0605V65.8163H41.9187V59.9884Z" fill="fill"/>
<path d="M46.4064 59.028H40.5483V64.8559H46.4064V59.028Z" fill="fill"/>
<path d="M50.4978 57.3674H44.6396V63.1953H50.4978V57.3674Z" fill="fill"/>
<path d="M54.1779 55.1047H48.3198V60.9326H54.1779V55.1047Z" fill="fill"/>
<path d="M57.4382 52.3535H51.5801V58.1814H57.4382V52.3535Z" fill="fill"/>
<path d="M60.2367 49.1954H54.3784V55.0233H60.2367V49.1954Z" fill="fill"/>
<path d="M62.5446 45.7443H56.6865V51.5722H62.5446V45.7443Z" fill="fill"/>
<path d="M64.3732 42.0977H58.5151V47.9256H64.3732V42.0977Z" fill="fill"/>
<path d="M65.6716 38.3373H59.8135V44.1652H65.6716V38.3373Z" fill="fill"/>
<path d="M66.4372 34.5605H60.5791V40.3885H66.4372V34.5605Z" fill="fill"/>
<path d="M66.5988 30.0349H60.7407V35.8628H66.5988V30.0349Z" fill="fill"/>
<path d="M65.6491 24.6465H59.791V30.4744H65.6491V24.6465Z" fill="fill"/>
<path d="M63.965 20.2512H58.1069V26.0791H63.965V20.2512Z" fill="fill"/>
<path d="M62.1672 17.028H56.3091V22.8559H62.1672V17.028Z" fill="fill"/>
<path d="M60.8095 15.1071H54.9512V20.935H60.8095V15.1071Z" fill="fill"/>
<path d="M56.6159 10.7117H50.7578V16.5396H56.6159V10.7117Z" fill="fill"/>
<path d="M52.1477 7.58606H46.2896V13.414H52.1477V7.58606Z" fill="fill"/>
<path d="M47.7644 5.53491H41.9062V11.3628H47.7644V5.53491Z" fill="fill"/>
<path d="M43.8691 4.33032H38.0107V10.1582H43.8691V4.33032Z" fill="fill"/>
<path d="M40.8439 3.72791H34.9858V9.55581H40.8439V3.72791Z" fill="fill"/>
<path d="M39.0778 3.53259H33.2197V9.3605H39.0778V3.53259Z" fill="fill"/>
<path d="M145.42 7.66748H138.809V14.2442H145.42V7.66748Z" fill="fill"/>
<path d="M150.983 12.8116H144.372V19.3884H150.983V12.8116Z" fill="fill"/>
<path d="M155.218 16.6698H148.607V23.2465H155.218V16.6698Z" fill="fill"/>
<path d="M158.118 19.2582H151.507V25.8349H158.118V19.2582Z" fill="fill"/>
<path d="M159.689 20.5442H153.078V27.1209H159.689V20.5442Z" fill="fill"/>
<path d="M159.788 20.4139H153.177V26.9907H159.788V20.4139Z" fill="fill"/>
<path d="M157.349 17.7767H150.722V24.3698H157.349V17.7767Z" fill="fill"/>
<path d="M152.913 14.8954H146.285V21.4884H152.913V14.8954Z" fill="fill"/>
<path d="M149.853 17.8582H143.226V24.4512H149.853V17.8582Z" fill="fill"/>
<path d="M146.777 20.8209H140.15V27.4139H146.777V20.8209Z" fill="fill"/>
<path d="M143.718 23.7838H137.091V30.3768H143.718V23.7838Z" fill="fill"/>
<path d="M140.639 26.7466H134.012V33.3396H140.639V26.7466Z" fill="fill"/>
<path d="M137.602 29.7094H130.958V36.3187H137.602V29.7094Z" fill="fill"/>
<path d="M134.523 32.6721H127.879V39.2814H134.523V32.6721Z" fill="fill"/>
<path d="M131.464 35.6349H124.82V42.2442H131.464V35.6349Z" fill="fill"/>
<path d="M128.385 38.5977H121.741V45.207H128.385V38.5977Z" fill="fill"/>
<path d="M125.325 41.5605H118.682V48.1698H125.325V41.5605Z" fill="fill"/>
<path d="M122.247 44.5233H115.603V51.1326H122.247V44.5233Z" fill="fill"/>
<path d="M118.878 46.2977H112.234V52.907H118.878V46.2977Z" fill="fill"/>
<path d="M114.676 41.4465H108.016V48.0721H114.676V41.4465Z" fill="fill"/>
<path d="M112.615 39.1512H105.955V45.7768H112.615V39.1512Z" fill="fill"/>
<path d="M112.53 39.2001H105.87V45.8257H112.53V39.2001Z" fill="fill"/>
<path d="M113.754 40.7791H107.094V47.4046H113.754V40.7791Z" fill="fill"/>
<path d="M116.182 43.7744H109.521V50.4H116.182V43.7744Z" fill="fill"/>
<path d="M119.811 48.2024H113.15V54.828H119.811V48.2024Z" fill="fill"/>
<path d="M124.622 54.0465H117.962V60.6721H124.622V54.0465Z" fill="fill"/>
<path d="M159.232 41.5117H152.621V48.0885H159.232V41.5117Z" fill="fill"/>
<path d="M153.72 46.4768H147.109V53.0536H153.72V46.4768Z" fill="fill"/>
<path d="M149.612 50.1559H143.001V56.7326H149.612V50.1559Z" fill="fill"/>
<path d="M146.927 52.5488H140.316V59.1256H146.927V52.5488Z" fill="fill"/>
<path d="M145.652 53.6395H139.041V60.2163H145.652V53.6395Z" fill="fill"/>
<path d="M146.06 53.2001H139.449V59.7768H146.06V53.2001Z" fill="fill"/>
<path d="M149.217 50.2535H142.59V56.8466H149.217V50.2535Z" fill="fill"/>
<path d="M150.873 46.1675H144.246V52.7605H150.873V46.1675Z" fill="fill"/>
<path d="M147.942 43.1559H141.314V49.7489H147.942V43.1559Z" fill="fill"/>
<path d="M145.016 40.1605H138.389V46.7535H145.016V40.1605Z" fill="fill"/>
<path d="M142.067 37.1489H135.44V43.7419H142.067V37.1489Z" fill="fill"/>
<path d="M139.141 34.1536H132.514V40.7466H139.141V34.1536Z" fill="fill"/>
<path d="M136.226 31.142H129.583V37.7513H136.226V31.142Z" fill="fill"/>
<path d="M133.298 28.1466H126.654V34.7559H133.298V28.1466Z" fill="fill"/>
<path d="M130.369 25.1349H123.725V31.7442H130.369V25.1349Z" fill="fill"/>
<path d="M127.44 22.1233H120.796V28.7326H127.44V22.1233Z" fill="fill"/>
<path d="M124.494 19.1279H117.851V25.7372H124.494V19.1279Z" fill="fill"/>
<path d="M121.562 16.1163H114.919V22.7256H121.562V16.1163Z" fill="fill"/>
<path d="M119.402 13.1536H112.758V19.7629H119.402V13.1536Z" fill="fill"/>
<path d="M122.579 10.3861H115.919V17.0117H122.579V10.3861Z" fill="fill"/>
<path d="M125.735 7.61865H119.075V14.2442H125.735V7.61865Z" fill="fill"/>
<path d="M125.557 7.83032H118.896V14.4559H125.557V7.83032Z" fill="fill"/>
<path d="M122.463 10.6466H115.803V17.2722H122.463V10.6466Z" fill="fill"/>
<path d="M119.356 13.4791H112.696V20.1047H119.356V13.4791Z" fill="fill"/>
<path d="M116.249 16.3116H109.589V22.9372H116.249V16.3116Z" fill="fill"/>
<path d="M113.153 19.1279H106.493V25.7535H113.153V19.1279Z" fill="fill"/>
<path d="M133.03 3.53259H127.172V9.3605H133.03V3.53259Z" fill="fill"/>
<path d="M127.42 4.65588H121.562V10.4838H127.42V4.65588Z" fill="fill"/>
<path d="M122.705 6.78845H116.846V12.6164H122.705V6.78845Z" fill="fill"/>
<path d="M118.942 9.34424H113.084V15.1721H118.942V9.34424Z" fill="fill"/>
<path d="M116.24 11.7535H110.382V17.5814H116.24V11.7535Z" fill="fill"/>
<path d="M114.69 13.4303H108.832V19.2582H114.69V13.4303Z" fill="fill"/>
<path d="M113.312 15.1559H107.454V20.9838H113.312V15.1559Z" fill="fill"/>
<path d="M111.395 18.0861H105.537V23.914H111.395V18.0861Z" fill="fill"/>
<path d="M109.467 22.0745H103.609V27.9024H109.467V22.0745Z" fill="fill"/>
<path d="M108.058 26.9581H102.2V32.786H108.058V26.9581Z" fill="fill"/>
<path d="M107.667 32.4768H101.809V38.3047H107.667V32.4768Z" fill="fill"/>
<path d="M108.109 36.2373H102.251V42.0652H108.109V36.2373Z" fill="fill"/>
<path d="M109.124 40.0303H103.266V45.8582H109.124V40.0303Z" fill="fill"/>
<path d="M110.661 43.7744H104.803V49.6023H110.661V43.7744Z" fill="fill"/>
<path d="M112.708 47.3396H106.85V53.1675H112.708V47.3396Z" fill="fill"/>
<path d="M115.242 50.6768H109.384V56.5047H115.242V50.6768Z" fill="fill"/>
<path d="M118.253 53.6559H112.395V59.4838H118.253V53.6559Z" fill="fill"/>
<path d="M121.69 56.1791H115.832V62.007H121.69V56.1791Z" fill="fill"/>
<path d="M125.534 58.1814H119.676V64.0093H125.534V58.1814Z" fill="fill"/>
<path d="M129.793 59.5488H123.935V65.3767H129.793V59.5488Z" fill="fill"/>
<path d="M134.422 60.1837H128.564V66.0116H134.422V60.1837Z" fill="fill"/>
<path d="M139.211 59.9884H133.353V65.8163H139.211V59.9884Z" fill="fill"/>
<path d="M143.699 59.028H137.841V64.8559H143.699V59.028Z" fill="fill"/>
<path d="M147.79 57.3674H141.932V63.1953H147.79V57.3674Z" fill="fill"/>
<path d="M151.47 55.1047H145.612V60.9326H151.47V55.1047Z" fill="fill"/>
<path d="M154.731 52.3535H148.873V58.1814H154.731V52.3535Z" fill="fill"/>
<path d="M157.529 49.1954H151.671V55.0233H157.529V49.1954Z" fill="fill"/>
<path d="M159.837 45.7443H153.979V51.5722H159.837V45.7443Z" fill="fill"/>
<path d="M161.666 42.0977H155.808V47.9256H161.666V42.0977Z" fill="fill"/>
<path d="M162.964 38.3373H157.106V44.1652H162.964V38.3373Z" fill="fill"/>
<path d="M163.73 34.5605H157.872V40.3885H163.73V34.5605Z" fill="fill"/>
<path d="M163.891 30.0349H158.033V35.8628H163.891V30.0349Z" fill="fill"/>
<path d="M162.942 24.6465H157.083V30.4744H162.942V24.6465Z" fill="fill"/>
<path d="M161.258 20.2512H155.399V26.0791H161.258V20.2512Z" fill="fill"/>
<path d="M159.46 17.028H153.602V22.8559H159.46V17.028Z" fill="fill"/>
<path d="M158.102 15.1071H152.244V20.935H158.102V15.1071Z" fill="fill"/>
<path d="M153.908 10.7117H148.05V16.5396H153.908V10.7117Z" fill="fill"/>
<path d="M149.44 7.58606H143.582V13.414H149.44V7.58606Z" fill="fill"/>
<path d="M145.057 5.53491H139.199V11.3628H145.057V5.53491Z" fill="fill"/>
<path d="M141.162 4.33032H135.303V10.1582H141.162V4.33032Z" fill="fill"/>
<path d="M138.136 3.72791H132.278V9.55581H138.136V3.72791Z" fill="fill"/>
<path d="M136.37 3.53259H130.512V9.3605H136.37V3.53259Z" fill="fill"/>
</svg>
