<svg width="216" height="70" viewBox="0 0 216 70" fill="none" xmlns="http://www.w3.org/2000/svg">
<path d="M48.1242 7.66748H41.5132V14.2442H48.1242V7.66748Z" fill="fill"/>
<path d="M53.6871 12.8116H47.0762V19.3884H53.6871V12.8116Z" fill="fill"/>
<path d="M57.9225 16.6698H51.3115V23.2465H57.9225V16.6698Z" fill="fill"/>
<path d="M60.8229 19.2582H54.2119V25.8349H60.8229V19.2582Z" fill="fill"/>
<path d="M62.3937 20.5442H55.7827V27.1209H62.3937V20.5442Z" fill="fill"/>
<path d="M62.4926 20.4139H55.8818V26.9907H62.4926V20.4139Z" fill="fill"/>
<path d="M60.0539 17.7767H53.4268V24.3698H60.0539V17.7767Z" fill="fill"/>
<path d="M55.6171 14.8954H48.9897V21.4884H55.6171V14.8954Z" fill="fill"/>
<path d="M52.558 17.8582H45.9307V24.4512H52.558V17.8582Z" fill="fill"/>
<path d="M49.4818 20.8209H42.8545V27.4139H49.4818V20.8209Z" fill="fill"/>
<path d="M46.4228 23.7838H39.7954V30.3768H46.4228V23.7838Z" fill="fill"/>
<path d="M43.3437 26.7466H36.7163V33.3396H43.3437V26.7466Z" fill="fill"/>
<path d="M40.3063 29.7094H33.6626V36.3187H40.3063V29.7094Z" fill="fill"/>
<path d="M37.2272 32.6721H30.5835V39.2814H37.2272V32.6721Z" fill="fill"/>
<path d="M34.1681 35.6349H27.5244V42.2442H34.1681V35.6349Z" fill="fill"/>
<path d="M31.0895 38.5977H24.4458V45.207H31.0895V38.5977Z" fill="fill"/>
<path d="M28.03 41.5605H21.3862V48.1699H28.03V41.5605Z" fill="fill"/>
<path d="M24.9513 44.5233H18.3076V51.1326H24.9513V44.5233Z" fill="fill"/>
<path d="M21.5825 46.2977H14.939V52.907H21.5825V46.2977Z" fill="fill"/>
<path d="M17.3801 41.4465H10.7202V48.0721H17.3801V41.4465Z" fill="fill"/>
<path d="M15.3191 39.1512H8.65918V45.7768H15.3191V39.1512Z" fill="fill"/>
<path d="M15.2343 39.2001H8.57422V45.8257H15.2343V39.2001Z" fill="fill"/>
<path d="M16.4589 40.7791H9.79883V47.4046H16.4589V40.7791Z" fill="fill"/>
<path d="M18.8862 43.7744H12.2261V50.4H18.8862V43.7744Z" fill="fill"/>
<path d="M22.5151 48.2024H15.855V54.828H22.5151V48.2024Z" fill="fill"/>
<path d="M27.3264 54.0465H20.6665V60.6721H27.3264V54.0465Z" fill="fill"/>
<path d="M61.9311 41.5117H55.3203V48.0885H61.9311V41.5117Z" fill="fill"/>
<path d="M56.4196 46.4768H49.8086V53.0536H56.4196V46.4768Z" fill="fill"/>
<path d="M52.3115 50.1559H45.7007V56.7326H52.3115V50.1559Z" fill="fill"/>
<path d="M49.6264 52.5488H43.0156V59.1256H49.6264V52.5488Z" fill="fill"/>
<path d="M48.3507 53.6395H41.7397V60.2163H48.3507V53.6395Z" fill="fill"/>
<path d="M48.7589 53.2001H42.1479V59.7768H48.7589V53.2001Z" fill="fill"/>
<path d="M51.9167 50.2535H45.2896V56.8466H51.9167V50.2535Z" fill="fill"/>
<path d="M53.5727 46.1675H46.9453V52.7605H53.5727V46.1675Z" fill="fill"/>
<path d="M50.6408 43.1559H44.0137V49.7489H50.6408V43.1559Z" fill="fill"/>
<path d="M47.7152 40.1605H41.0879V46.7536H47.7152V40.1605Z" fill="fill"/>
<path d="M44.7663 37.1489H38.1392V43.7419H44.7663V37.1489Z" fill="fill"/>
<path d="M41.8405 34.1536H35.2134V40.7466H41.8405V34.1536Z" fill="fill"/>
<path d="M38.9255 31.142H32.2817V37.7513H38.9255V31.142Z" fill="fill"/>
<path d="M35.9968 28.1466H29.353V34.7559H35.9968V28.1466Z" fill="fill"/>
<path d="M33.0678 25.1349H26.4243V31.7442H33.0678V25.1349Z" fill="fill"/>
<path d="M30.1393 22.1233H23.4956V28.7326H30.1393V22.1233Z" fill="fill"/>
<path d="M27.1933 19.1279H20.5498V25.7372H27.1933V19.1279Z" fill="fill"/>
<path d="M24.2617 16.1163H17.6182V22.7256H24.2617V16.1163Z" fill="fill"/>
<path d="M22.1013 13.1536H15.4575V19.7629H22.1013V13.1536Z" fill="fill"/>
<path d="M25.2786 10.3861H18.6187V17.0117H25.2786V10.3861Z" fill="fill"/>
<path d="M28.4343 7.61865H21.7744V14.2442H28.4343V7.61865Z" fill="fill"/>
<path d="M28.2558 7.83032H21.5957V14.4559H28.2558V7.83032Z" fill="fill"/>
<path d="M25.1624 10.6466H18.5024V17.2722H25.1624V10.6466Z" fill="fill"/>
<path d="M22.0554 13.4791H15.3955V20.1047H22.0554V13.4791Z" fill="fill"/>
<path d="M18.948 16.3116H12.2881V22.9372H18.948V16.3116Z" fill="fill"/>
<path d="M15.8518 19.1279H9.19189V25.7535H15.8518V19.1279Z" fill="fill"/>
<path d="M35.738 3.53259H29.8799V9.3605H35.738V3.53259Z" fill="fill"/>
<path d="M30.1274 4.65588H24.269V10.4838H30.1274V4.65588Z" fill="fill"/>
<path d="M25.412 6.78845H19.5537V12.6164H25.412V6.78845Z" fill="fill"/>
<path d="M21.6496 9.34424H15.7915V15.1721H21.6496V9.34424Z" fill="fill"/>
<path d="M18.948 11.7535H13.0898V17.5814H18.948V11.7535Z" fill="fill"/>
<path d="M17.3972 13.4303H11.5391V19.2582H17.3972V13.4303Z" fill="fill"/>
<path d="M16.0194 15.1559H10.1611V20.9838H16.0194V15.1559Z" fill="fill"/>
<path d="M14.1023 18.0861H8.24414V23.914H14.1023V18.0861Z" fill="fill"/>
<path d="M12.1745 22.0745H6.31641V27.9024H12.1745V22.0745Z" fill="fill"/>
<path d="M10.7653 26.9581H4.90723V32.786H10.7653V26.9581Z" fill="fill"/>
<path d="M10.3742 32.4768H4.51611V38.3047H10.3742V32.4768Z" fill="fill"/>
<path d="M10.8166 36.2373H4.9585V42.0652H10.8166V36.2373Z" fill="fill"/>
<path d="M11.8317 40.0303H5.97363V45.8582H11.8317V40.0303Z" fill="fill"/>
<path d="M13.3686 43.7744H7.51025V49.6023H13.3686V43.7744Z" fill="fill"/>
<path d="M15.4154 47.3396H9.55713V53.1675H15.4154V47.3396Z" fill="fill"/>
<path d="M17.9499 50.6768H12.0918V56.5047H17.9499V50.6768Z" fill="fill"/>
<path d="M20.9608 53.6559H15.1025V59.4838H20.9608V53.6559Z" fill="fill"/>
<path d="M24.3974 56.1791H18.5391V62.007H24.3974V56.1791Z" fill="fill"/>
<path d="M28.2414 58.1814H22.3833V64.0093H28.2414V58.1814Z" fill="fill"/>
<path d="M32.5002 59.5488H26.6421V65.3767H32.5002V59.5488Z" fill="fill"/>
<path d="M37.1296 60.1837H31.2715V66.0116H37.1296V60.1837Z" fill="fill"/>
<path d="M41.9187 59.9884H36.0605V65.8163H41.9187V59.9884Z" fill="fill"/>
<path d="M46.4064 59.028H40.5483V64.8559H46.4064V59.028Z" fill="fill"/>
<path d="M50.4978 57.3674H44.6396V63.1953H50.4978V57.3674Z" fill="fill"/>
<path d="M54.1779 55.1047H48.3198V60.9326H54.1779V55.1047Z" fill="fill"/>
<path d="M57.4382 52.3535H51.5801V58.1814H57.4382V52.3535Z" fill="fill"/>
<path d="M60.2367 49.1954H54.3784V55.0233H60.2367V49.1954Z" fill="fill"/>
<path d="M62.5446 45.7443H56.6865V51.5722H62.5446V45.7443Z" fill="fill"/>
<path d="M64.3732 42.0977H58.5151V47.9256H64.3732V42.0977Z" fill="fill"/>
<path d="M65.6716 38.3373H59.8135V44.1652H65.6716V38.3373Z" fill="fill"/>
<path d="M66.4372 34.5605H60.5791V40.3885H66.4372V34.5605Z" fill="fill"/>
<path d="M66.5988 30.0349H60.7407V35.8628H66.5988V30.0349Z" fill="fill"/>
<path d="M65.6491 24.6465H59.791V30.4744H65.6491V24.6465Z" fill="fill"/>
<path d="M63.965 20.2512H58.1069V26.0791H63.965V20.2512Z" fill="fill"/>
<path d="M62.1672 17.028H56.3091V22.8559H62.1672V17.028Z" fill="fill"/>
<path d="M60.8095 15.1071H54.9512V20.935H60.8095V15.1071Z" fill="fill"/>
<path d="M56.6159 10.7117H50.7578V16.5396H56.6159V10.7117Z" fill="fill"/>
<path d="M52.1477 7.58606H46.2896V13.414H52.1477V7.58606Z" fill="fill"/>
<path d="M47.7644 5.53491H41.9062V11.3628H47.7644V5.53491Z" fill="fill"/>
<path d="M43.8691 4.33032H38.0107V10.1582H43.8691V4.33032Z" fill="fill"/>
<path d="M40.8439 3.72791H34.9858V9.55581H40.8439V3.72791Z" fill="fill"/>
<path d="M39.0778 3.53259H33.2197V9.3605H39.0778V3.53259Z" fill="fill"/>
<path d="M192.123 7.66748H185.512V14.2442H192.123V7.66748Z" fill="fill"/>
<path d="M197.686 12.8116H191.075V19.3884H197.686V12.8116Z" fill="fill"/>
<path d="M201.921 16.6698H195.31V23.2465H201.921V16.6698Z" fill="fill"/>
<path d="M204.821 19.2582H198.21V25.8349H204.821V19.2582Z" fill="fill"/>
<path d="M206.392 20.5442H199.781V27.1209H206.392V20.5442Z" fill="fill"/>
<path d="M206.491 20.4139H199.88V26.9907H206.491V20.4139Z" fill="fill"/>
<path d="M204.052 17.7767H197.425V24.3698H204.052V17.7767Z" fill="fill"/>
<path d="M199.616 14.8954H192.988V21.4884H199.616V14.8954Z" fill="fill"/>
<path d="M196.557 17.8582H189.929V24.4512H196.557V17.8582Z" fill="fill"/>
<path d="M193.48 20.8209H186.853V27.4139H193.48V20.8209Z" fill="fill"/>
<path d="M190.421 23.7838H183.794V30.3768H190.421V23.7838Z" fill="fill"/>
<path d="M187.342 26.7466H180.715V33.3396H187.342V26.7466Z" fill="fill"/>
<path d="M184.305 29.7094H177.661V36.3187H184.305V29.7094Z" fill="fill"/>
<path d="M181.226 32.6721H174.582V39.2814H181.226V32.6721Z" fill="fill"/>
<path d="M178.167 35.6349H171.523V42.2442H178.167V35.6349Z" fill="fill"/>
<path d="M175.088 38.5977H168.444V45.207H175.088V38.5977Z" fill="fill"/>
<path d="M172.028 41.5605H165.385V48.1699H172.028V41.5605Z" fill="fill"/>
<path d="M168.95 44.5233H162.306V51.1326H168.95V44.5233Z" fill="fill"/>
<path d="M165.581 46.2977H158.938V52.907H165.581V46.2977Z" fill="fill"/>
<path d="M161.379 41.4465H154.719V48.0721H161.379V41.4465Z" fill="fill"/>
<path d="M159.318 39.1512H152.658V45.7768H159.318V39.1512Z" fill="fill"/>
<path d="M159.233 39.2001H152.573V45.8257H159.233V39.2001Z" fill="fill"/>
<path d="M160.457 40.7791H153.797V47.4046H160.457V40.7791Z" fill="fill"/>
<path d="M162.885 43.7744H156.225V50.4H162.885V43.7744Z" fill="fill"/>
<path d="M166.514 48.2024H159.854V54.828H166.514V48.2024Z" fill="fill"/>
<path d="M171.325 54.0465H164.665V60.6721H171.325V54.0465Z" fill="fill"/>
<path d="M205.935 41.5117H199.324V48.0885H205.935V41.5117Z" fill="fill"/>
<path d="M200.423 46.4768H193.812V53.0536H200.423V46.4768Z" fill="fill"/>
<path d="M196.315 50.1559H189.705V56.7326H196.315V50.1559Z" fill="fill"/>
<path d="M193.63 52.5488H187.02V59.1256H193.63V52.5488Z" fill="fill"/>
<path d="M192.355 53.6395H185.744V60.2163H192.355V53.6395Z" fill="fill"/>
<path d="M192.763 53.2001H186.152V59.7768H192.763V53.2001Z" fill="fill"/>
<path d="M195.921 50.2535H189.293V56.8466H195.921V50.2535Z" fill="fill"/>
<path d="M197.577 46.1675H190.949V52.7605H197.577V46.1675Z" fill="fill"/>
<path d="M194.645 43.1559H188.018V49.7489H194.645V43.1559Z" fill="fill"/>
<path d="M191.719 40.1605H185.092V46.7536H191.719V40.1605Z" fill="fill"/>
<path d="M188.77 37.1489H182.143V43.7419H188.77V37.1489Z" fill="fill"/>
<path d="M185.844 34.1536H179.217V40.7466H185.844V34.1536Z" fill="fill"/>
<path d="M182.929 31.142H176.286V37.7513H182.929V31.142Z" fill="fill"/>
<path d="M180.001 28.1466H173.357V34.7559H180.001V28.1466Z" fill="fill"/>
<path d="M177.072 25.1349H170.428V31.7442H177.072V25.1349Z" fill="fill"/>
<path d="M174.143 22.1233H167.5V28.7326H174.143V22.1233Z" fill="fill"/>
<path d="M171.197 19.1279H164.554V25.7372H171.197V19.1279Z" fill="fill"/>
<path d="M168.266 16.1163H161.622V22.7256H168.266V16.1163Z" fill="fill"/>
<path d="M166.105 13.1536H159.461V19.7629H166.105V13.1536Z" fill="fill"/>
<path d="M169.282 10.3861H162.623V17.0117H169.282V10.3861Z" fill="fill"/>
<path d="M172.438 7.61865H165.778V14.2442H172.438V7.61865Z" fill="fill"/>
<path d="M172.26 7.83032H165.6V14.4559H172.26V7.83032Z" fill="fill"/>
<path d="M169.166 10.6466H162.506V17.2722H169.166V10.6466Z" fill="fill"/>
<path d="M166.059 13.4791H159.399V20.1047H166.059V13.4791Z" fill="fill"/>
<path d="M162.952 16.3116H156.292V22.9372H162.952V16.3116Z" fill="fill"/>
<path d="M159.856 19.1279H153.196V25.7535H159.856V19.1279Z" fill="fill"/>
<path d="M179.733 3.53259H173.875V9.3605H179.733V3.53259Z" fill="fill"/>
<path d="M174.123 4.65588H168.265V10.4838H174.123V4.65588Z" fill="fill"/>
<path d="M169.408 6.78845H163.549V12.6164H169.408V6.78845Z" fill="fill"/>
<path d="M165.645 9.34424H159.787V15.1721H165.645V9.34424Z" fill="fill"/>
<path d="M162.944 11.7535H157.085V17.5814H162.944V11.7535Z" fill="fill"/>
<path d="M161.393 13.4303H155.535V19.2582H161.393V13.4303Z" fill="fill"/>
<path d="M160.015 15.1559H154.157V20.9838H160.015V15.1559Z" fill="fill"/>
<path d="M158.098 18.0861H152.24V23.914H158.098V18.0861Z" fill="fill"/>
<path d="M156.17 22.0745H150.312V27.9024H156.17V22.0745Z" fill="fill"/>
<path d="M154.761 26.9581H148.903V32.786H154.761V26.9581Z" fill="fill"/>
<path d="M154.37 32.4768H148.512V38.3047H154.37V32.4768Z" fill="fill"/>
<path d="M154.812 36.2373H148.954V42.0652H154.812V36.2373Z" fill="fill"/>
<path d="M155.827 40.0303H149.969V45.8582H155.827V40.0303Z" fill="fill"/>
<path d="M157.364 43.7744H151.506V49.6023H157.364V43.7744Z" fill="fill"/>
<path d="M159.411 47.3396H153.553V53.1675H159.411V47.3396Z" fill="fill"/>
<path d="M161.946 50.6768H156.087V56.5047H161.946V50.6768Z" fill="fill"/>
<path d="M164.956 53.6559H159.098V59.4838H164.956V53.6559Z" fill="fill"/>
<path d="M168.393 56.1791H162.535V62.007H168.393V56.1791Z" fill="fill"/>
<path d="M172.237 58.1814H166.379V64.0093H172.237V58.1814Z" fill="fill"/>
<path d="M176.496 59.5488H170.638V65.3767H176.496V59.5488Z" fill="fill"/>
<path d="M181.125 60.1837H175.267V66.0116H181.125V60.1837Z" fill="fill"/>
<path d="M185.914 59.9884H180.056V65.8163H185.914V59.9884Z" fill="fill"/>
<path d="M190.402 59.028H184.544V64.8559H190.402V59.028Z" fill="fill"/>
<path d="M194.493 57.3674H188.635V63.1953H194.493V57.3674Z" fill="fill"/>
<path d="M198.174 55.1047H192.315V60.9326H198.174V55.1047Z" fill="fill"/>
<path d="M201.434 52.3535H195.576V58.1814H201.434V52.3535Z" fill="fill"/>
<path d="M204.232 49.1954H198.374V55.0233H204.232V49.1954Z" fill="fill"/>
<path d="M206.54 45.7443H200.682V51.5722H206.54V45.7443Z" fill="fill"/>
<path d="M208.369 42.0977H202.511V47.9256H208.369V42.0977Z" fill="fill"/>
<path d="M209.667 38.3373H203.809V44.1652H209.667V38.3373Z" fill="fill"/>
<path d="M210.433 34.5605H204.575V40.3885H210.433V34.5605Z" fill="fill"/>
<path d="M210.594 30.0349H204.736V35.8628H210.594V30.0349Z" fill="fill"/>
<path d="M209.645 24.6465H203.787V30.4744H209.645V24.6465Z" fill="fill"/>
<path d="M207.961 20.2512H202.103V26.0791H207.961V20.2512Z" fill="fill"/>
<path d="M206.163 17.028H200.305V22.8559H206.163V17.028Z" fill="fill"/>
<path d="M204.805 15.1071H198.947V20.935H204.805V15.1071Z" fill="fill"/>
<path d="M200.612 10.7117H194.753V16.5396H200.612V10.7117Z" fill="fill"/>
<path d="M196.143 7.58606H190.285V13.414H196.143V7.58606Z" fill="fill"/>
<path d="M191.76 5.53491H185.902V11.3628H191.76V5.53491Z" fill="fill"/>
<path d="M187.865 4.33032H182.006V10.1582H187.865V4.33032Z" fill="fill"/>
<path d="M184.84 3.72791H178.981V9.55581H184.84V3.72791Z" fill="fill"/>
<path d="M183.073 3.53259H177.215V9.3605H183.073V3.53259Z" fill="fill"/>
</svg>
