<svg width="216" height="70" viewBox="0 0 216 70" fill="none" xmlns="http://www.w3.org/2000/svg">
<path d="M94.8258 7.66748H88.2148V14.2442H94.8258V7.66748Z" fill="fill"/>
<path d="M100.389 12.8116H93.7778V19.3884H100.389V12.8116Z" fill="fill"/>
<path d="M104.624 16.6698H98.0132V23.2465H104.624V16.6698Z" fill="fill"/>
<path d="M107.525 19.2582H100.914V25.8349H107.525V19.2582Z" fill="fill"/>
<path d="M109.095 20.5442H102.484V27.1209H109.095V20.5442Z" fill="fill"/>
<path d="M109.194 20.4139H102.583V26.9907H109.194V20.4139Z" fill="fill"/>
<path d="M106.756 17.7767H100.128V24.3698H106.756V17.7767Z" fill="fill"/>
<path d="M102.319 14.8954H95.6914V21.4884H102.319V14.8954Z" fill="fill"/>
<path d="M99.2597 17.8582H92.6323V24.4512H99.2597V17.8582Z" fill="fill"/>
<path d="M96.1835 20.8209H89.5562V27.4139H96.1835V20.8209Z" fill="fill"/>
<path d="M93.1244 23.7838H86.4971V30.3768H93.1244V23.7838Z" fill="fill"/>
<path d="M90.0453 26.7466H83.418V33.3396H90.0453V26.7466Z" fill="fill"/>
<path d="M87.008 29.7094H80.3643V36.3187H87.008V29.7094Z" fill="fill"/>
<path d="M83.9289 32.6721H77.2852V39.2814H83.9289V32.6721Z" fill="fill"/>
<path d="M80.8698 35.6349H74.2261V42.2442H80.8698V35.6349Z" fill="fill"/>
<path d="M77.7912 38.5977H71.1475V45.207H77.7912V38.5977Z" fill="fill"/>
<path d="M74.7316 41.5605H68.0879V48.1698H74.7316V41.5605Z" fill="fill"/>
<path d="M71.653 44.5233H65.0093V51.1326H71.653V44.5233Z" fill="fill"/>
<path d="M68.2842 46.2977H61.6406V52.907H68.2842V46.2977Z" fill="fill"/>
<path d="M64.0818 41.4465H57.4219V48.0721H64.0818V41.4465Z" fill="fill"/>
<path d="M62.0208 39.1512H55.3608V45.7768H62.0208V39.1512Z" fill="fill"/>
<path d="M61.936 39.2001H55.2759V45.8257H61.936V39.2001Z" fill="fill"/>
<path d="M63.1606 40.7791H56.5005V47.4046H63.1606V40.7791Z" fill="fill"/>
<path d="M65.5878 43.7744H58.9277V50.4H65.5878V43.7744Z" fill="fill"/>
<path d="M69.2168 48.2024H62.5566V54.828H69.2168V48.2024Z" fill="fill"/>
<path d="M74.0281 54.0465H67.3682V60.6721H74.0281V54.0465Z" fill="fill"/>
<path d="M108.633 41.5117H102.022V48.0885H108.633V41.5117Z" fill="fill"/>
<path d="M103.121 46.4768H96.5103V53.0536H103.121V46.4768Z" fill="fill"/>
<path d="M99.0131 50.1559H92.4023V56.7326H99.0131V50.1559Z" fill="fill"/>
<path d="M96.3281 52.5488H89.7173V59.1256H96.3281V52.5488Z" fill="fill"/>
<path d="M95.0524 53.6395H88.4414V60.2163H95.0524V53.6395Z" fill="fill"/>
<path d="M95.4606 53.2001H88.8496V59.7768H95.4606V53.2001Z" fill="fill"/>
<path d="M98.6184 50.2535H91.9912V56.8466H98.6184V50.2535Z" fill="fill"/>
<path d="M100.274 46.1675H93.647V52.7605H100.274V46.1675Z" fill="fill"/>
<path d="M97.3425 43.1559H90.7153V49.7489H97.3425V43.1559Z" fill="fill"/>
<path d="M94.4169 40.1605H87.7896V46.7535H94.4169V40.1605Z" fill="fill"/>
<path d="M91.468 37.1489H84.8408V43.7419H91.468V37.1489Z" fill="fill"/>
<path d="M88.5422 34.1536H81.915V40.7466H88.5422V34.1536Z" fill="fill"/>
<path d="M85.6271 31.142H78.9834V37.7513H85.6271V31.142Z" fill="fill"/>
<path d="M82.6984 28.1466H76.0547V34.7559H82.6984V28.1466Z" fill="fill"/>
<path d="M79.7695 25.1349H73.126V31.7442H79.7695V25.1349Z" fill="fill"/>
<path d="M76.841 22.1233H70.1973V28.7326H76.841V22.1233Z" fill="fill"/>
<path d="M73.895 19.1279H67.2515V25.7372H73.895V19.1279Z" fill="fill"/>
<path d="M70.9634 16.1163H64.3198V22.7256H70.9634V16.1163Z" fill="fill"/>
<path d="M68.8029 13.1536H62.1592V19.7629H68.8029V13.1536Z" fill="fill"/>
<path d="M71.9802 10.3861H65.3203V17.0117H71.9802V10.3861Z" fill="fill"/>
<path d="M75.136 7.61865H68.4761V14.2442H75.136V7.61865Z" fill="fill"/>
<path d="M74.9575 7.83032H68.2974V14.4559H74.9575V7.83032Z" fill="fill"/>
<path d="M71.864 10.6466H65.2041V17.2722H71.864V10.6466Z" fill="fill"/>
<path d="M68.7571 13.4791H62.0972V20.1047H68.7571V13.4791Z" fill="fill"/>
<path d="M65.6497 16.3116H58.9897V22.9372H65.6497V16.3116Z" fill="fill"/>
<path d="M62.5535 19.1279H55.8936V25.7535H62.5535V19.1279Z" fill="fill"/>
<path d="M82.4397 3.53259H76.5815V9.3605H82.4397V3.53259Z" fill="fill"/>
<path d="M76.829 4.65588H70.9707V10.4838H76.829V4.65588Z" fill="fill"/>
<path d="M72.1137 6.78845H66.2554V12.6164H72.1137V6.78845Z" fill="fill"/>
<path d="M68.3513 9.34424H62.4932V15.1721H68.3513V9.34424Z" fill="fill"/>
<path d="M65.6496 11.7535H59.7915V17.5814H65.6496V11.7535Z" fill="fill"/>
<path d="M64.0988 13.4303H58.2407V19.2582H64.0988V13.4303Z" fill="fill"/>
<path d="M62.7211 15.1559H56.8628V20.9838H62.7211V15.1559Z" fill="fill"/>
<path d="M60.8039 18.0861H54.9458V23.914H60.8039V18.0861Z" fill="fill"/>
<path d="M58.8762 22.0745H53.0181V27.9024H58.8762V22.0745Z" fill="fill"/>
<path d="M57.467 26.9581H51.6089V32.786H57.467V26.9581Z" fill="fill"/>
<path d="M57.0759 32.4768H51.2178V38.3047H57.0759V32.4768Z" fill="fill"/>
<path d="M57.5183 36.2373H51.6602V42.0652H57.5183V36.2373Z" fill="fill"/>
<path d="M58.5334 40.0303H52.6753V45.8582H58.5334V40.0303Z" fill="fill"/>
<path d="M60.0702 43.7744H54.2119V49.6023H60.0702V43.7744Z" fill="fill"/>
<path d="M62.1171 47.3396H56.2588V53.1675H62.1171V47.3396Z" fill="fill"/>
<path d="M64.6516 50.6768H58.7935V56.5047H64.6516V50.6768Z" fill="fill"/>
<path d="M67.6625 53.6559H61.8042V59.4838H67.6625V53.6559Z" fill="fill"/>
<path d="M71.099 56.1791H65.2407V62.007H71.099V56.1791Z" fill="fill"/>
<path d="M74.9431 58.1814H69.085V64.0093H74.9431V58.1814Z" fill="fill"/>
<path d="M79.2019 59.5488H73.3438V65.3767H79.2019V59.5488Z" fill="fill"/>
<path d="M83.8313 60.1837H77.9731V66.0116H83.8313V60.1837Z" fill="fill"/>
<path d="M88.6203 59.9884H82.7622V65.8163H88.6203V59.9884Z" fill="fill"/>
<path d="M93.1081 59.028H87.25V64.8559H93.1081V59.028Z" fill="fill"/>
<path d="M97.1994 57.3674H91.3413V63.1953H97.1994V57.3674Z" fill="fill"/>
<path d="M100.88 55.1047H95.0215V60.9326H100.88V55.1047Z" fill="fill"/>
<path d="M104.14 52.3535H98.2817V58.1814H104.14V52.3535Z" fill="fill"/>
<path d="M106.938 49.1954H101.08V55.0233H106.938V49.1954Z" fill="fill"/>
<path d="M109.246 45.7443H103.388V51.5722H109.246V45.7443Z" fill="fill"/>
<path d="M111.075 42.0977H105.217V47.9256H111.075V42.0977Z" fill="fill"/>
<path d="M112.373 38.3373H106.515V44.1652H112.373V38.3373Z" fill="fill"/>
<path d="M113.139 34.5605H107.281V40.3885H113.139V34.5605Z" fill="fill"/>
<path d="M113.3 30.0349H107.442V35.8628H113.3V30.0349Z" fill="fill"/>
<path d="M112.351 24.6465H106.493V30.4744H112.351V24.6465Z" fill="fill"/>
<path d="M110.667 20.2512H104.809V26.0791H110.667V20.2512Z" fill="fill"/>
<path d="M108.869 17.028H103.011V22.8559H108.869V17.028Z" fill="fill"/>
<path d="M107.511 15.1071H101.653V20.935H107.511V15.1071Z" fill="fill"/>
<path d="M103.318 10.7117H97.4595V16.5396H103.318V10.7117Z" fill="fill"/>
<path d="M98.8493 7.58606H92.9912V13.414H98.8493V7.58606Z" fill="fill"/>
<path d="M94.466 5.53491H88.6079V11.3628H94.466V5.53491Z" fill="fill"/>
<path d="M90.5707 4.33032H84.7124V10.1582H90.5707V4.33032Z" fill="fill"/>
<path d="M87.5456 3.72791H81.6875V9.55581H87.5456V3.72791Z" fill="fill"/>
<path d="M85.7795 3.53259H79.9214V9.3605H85.7795V3.53259Z" fill="fill"/>
<path d="M192.122 7.66748H185.511V14.2442H192.122V7.66748Z" fill="fill"/>
<path d="M197.685 12.8116H191.074V19.3884H197.685V12.8116Z" fill="fill"/>
<path d="M201.921 16.6698H195.31V23.2465H201.921V16.6698Z" fill="fill"/>
<path d="M204.821 19.2582H198.21V25.8349H204.821V19.2582Z" fill="fill"/>
<path d="M206.392 20.5442H199.781V27.1209H206.392V20.5442Z" fill="fill"/>
<path d="M206.491 20.4139H199.88V26.9907H206.491V20.4139Z" fill="fill"/>
<path d="M204.052 17.7767H197.425V24.3698H204.052V17.7767Z" fill="fill"/>
<path d="M199.615 14.8954H192.988V21.4884H199.615V14.8954Z" fill="fill"/>
<path d="M196.556 17.8582H189.929V24.4512H196.556V17.8582Z" fill="fill"/>
<path d="M193.48 20.8209H186.853V27.4139H193.48V20.8209Z" fill="fill"/>
<path d="M190.421 23.7838H183.793V30.3768H190.421V23.7838Z" fill="fill"/>
<path d="M187.342 26.7466H180.714V33.3396H187.342V26.7466Z" fill="fill"/>
<path d="M184.304 29.7094H177.661V36.3187H184.304V29.7094Z" fill="fill"/>
<path d="M181.226 32.6721H174.582V39.2814H181.226V32.6721Z" fill="fill"/>
<path d="M178.166 35.6349H171.522V42.2442H178.166V35.6349Z" fill="fill"/>
<path d="M175.088 38.5977H168.444V45.207H175.088V38.5977Z" fill="fill"/>
<path d="M172.028 41.5605H165.384V48.1698H172.028V41.5605Z" fill="fill"/>
<path d="M168.949 44.5233H162.306V51.1326H168.949V44.5233Z" fill="fill"/>
<path d="M165.581 46.2977H158.938V52.907H165.581V46.2977Z" fill="fill"/>
<path d="M161.379 41.4465H154.719V48.0721H161.379V41.4465Z" fill="fill"/>
<path d="M159.317 39.1512H152.657V45.7768H159.317V39.1512Z" fill="fill"/>
<path d="M159.232 39.2001H152.572V45.8257H159.232V39.2001Z" fill="fill"/>
<path d="M160.457 40.7791H153.797V47.4046H160.457V40.7791Z" fill="fill"/>
<path d="M162.884 43.7744H156.224V50.4H162.884V43.7744Z" fill="fill"/>
<path d="M166.513 48.2024H159.853V54.828H166.513V48.2024Z" fill="fill"/>
<path d="M171.324 54.0465H164.665V60.6721H171.324V54.0465Z" fill="fill"/>
<path d="M205.935 41.5117H199.324V48.0885H205.935V41.5117Z" fill="fill"/>
<path d="M200.423 46.4768H193.812V53.0536H200.423V46.4768Z" fill="fill"/>
<path d="M196.315 50.1559H189.704V56.7326H196.315V50.1559Z" fill="fill"/>
<path d="M193.63 52.5488H187.019V59.1256H193.63V52.5488Z" fill="fill"/>
<path d="M192.354 53.6395H185.743V60.2163H192.354V53.6395Z" fill="fill"/>
<path d="M192.762 53.2001H186.151V59.7768H192.762V53.2001Z" fill="fill"/>
<path d="M195.92 50.2535H189.293V56.8466H195.92V50.2535Z" fill="fill"/>
<path d="M197.576 46.1675H190.949V52.7605H197.576V46.1675Z" fill="fill"/>
<path d="M194.644 43.1559H188.017V49.7489H194.644V43.1559Z" fill="fill"/>
<path d="M191.719 40.1605H185.091V46.7535H191.719V40.1605Z" fill="fill"/>
<path d="M188.77 37.1489H182.143V43.7419H188.77V37.1489Z" fill="fill"/>
<path d="M185.844 34.1536H179.217V40.7466H185.844V34.1536Z" fill="fill"/>
<path d="M182.929 31.142H176.285V37.7513H182.929V31.142Z" fill="fill"/>
<path d="M180 28.1466H173.356V34.7559H180V28.1466Z" fill="fill"/>
<path d="M177.071 25.1349H170.428V31.7442H177.071V25.1349Z" fill="fill"/>
<path d="M174.143 22.1233H167.499V28.7326H174.143V22.1233Z" fill="fill"/>
<path d="M171.197 19.1279H164.553V25.7372H171.197V19.1279Z" fill="fill"/>
<path d="M168.265 16.1163H161.622V22.7256H168.265V16.1163Z" fill="fill"/>
<path d="M166.105 13.1536H159.461V19.7629H166.105V13.1536Z" fill="fill"/>
<path d="M169.282 10.3861H162.622V17.0117H169.282V10.3861Z" fill="fill"/>
<path d="M172.438 7.61865H165.778V14.2442H172.438V7.61865Z" fill="fill"/>
<path d="M172.259 7.83032H165.599V14.4559H172.259V7.83032Z" fill="fill"/>
<path d="M169.166 10.6466H162.506V17.2722H169.166V10.6466Z" fill="fill"/>
<path d="M166.058 13.4791H159.398V20.1047H166.058V13.4791Z" fill="fill"/>
<path d="M162.951 16.3116H156.292V22.9372H162.951V16.3116Z" fill="fill"/>
<path d="M159.855 19.1279H153.195V25.7535H159.855V19.1279Z" fill="fill"/>
<path d="M179.733 3.53259H173.875V9.3605H179.733V3.53259Z" fill="fill"/>
<path d="M174.122 4.65588H168.264V10.4838H174.122V4.65588Z" fill="fill"/>
<path d="M169.407 6.78845H163.549V12.6164H169.407V6.78845Z" fill="fill"/>
<path d="M165.645 9.34424H159.787V15.1721H165.645V9.34424Z" fill="fill"/>
<path d="M162.943 11.7535H157.085V17.5814H162.943V11.7535Z" fill="fill"/>
<path d="M161.392 13.4303H155.534V19.2582H161.392V13.4303Z" fill="fill"/>
<path d="M160.015 15.1559H154.156V20.9838H160.015V15.1559Z" fill="fill"/>
<path d="M158.097 18.0861H152.239V23.914H158.097V18.0861Z" fill="fill"/>
<path d="M156.17 22.0745H150.312V27.9024H156.17V22.0745Z" fill="fill"/>
<path d="M154.76 26.9581H148.902V32.786H154.76V26.9581Z" fill="fill"/>
<path d="M154.369 32.4768H148.511V38.3047H154.369V32.4768Z" fill="fill"/>
<path d="M154.812 36.2373H148.954V42.0652H154.812V36.2373Z" fill="fill"/>
<path d="M155.827 40.0303H149.969V45.8582H155.827V40.0303Z" fill="fill"/>
<path d="M157.364 43.7744H151.505V49.6023H157.364V43.7744Z" fill="fill"/>
<path d="M159.411 47.3396H153.552V53.1675H159.411V47.3396Z" fill="fill"/>
<path d="M161.945 50.6768H156.087V56.5047H161.945V50.6768Z" fill="fill"/>
<path d="M164.956 53.6559H159.098V59.4838H164.956V53.6559Z" fill="fill"/>
<path d="M168.392 56.1791H162.534V62.007H168.392V56.1791Z" fill="fill"/>
<path d="M172.237 58.1814H166.378V64.0093H172.237V58.1814Z" fill="fill"/>
<path d="M176.495 59.5488H170.637V65.3767H176.495V59.5488Z" fill="fill"/>
<path d="M181.125 60.1837H175.267V66.0116H181.125V60.1837Z" fill="fill"/>
<path d="M185.914 59.9884H180.056V65.8163H185.914V59.9884Z" fill="fill"/>
<path d="M190.402 59.028H184.543V64.8559H190.402V59.028Z" fill="fill"/>
<path d="M194.493 57.3674H188.635V63.1953H194.493V57.3674Z" fill="fill"/>
<path d="M198.173 55.1047H192.315V60.9326H198.173V55.1047Z" fill="fill"/>
<path d="M201.433 52.3535H195.575V58.1814H201.433V52.3535Z" fill="fill"/>
<path d="M204.232 49.1954H198.374V55.0233H204.232V49.1954Z" fill="fill"/>
<path d="M206.54 45.7443H200.682V51.5722H206.54V45.7443Z" fill="fill"/>
<path d="M208.368 42.0977H202.51V47.9256H208.368V42.0977Z" fill="fill"/>
<path d="M209.667 38.3373H203.809V44.1652H209.667V38.3373Z" fill="fill"/>
<path d="M210.432 34.5605H204.574V40.3885H210.432V34.5605Z" fill="fill"/>
<path d="M210.594 30.0349H204.736V35.8628H210.594V30.0349Z" fill="fill"/>
<path d="M209.644 24.6465H203.786V30.4744H209.644V24.6465Z" fill="fill"/>
<path d="M207.96 20.2512H202.102V26.0791H207.96V20.2512Z" fill="fill"/>
<path d="M206.162 17.028H200.304V22.8559H206.162V17.028Z" fill="fill"/>
<path d="M204.805 15.1071H198.946V20.935H204.805V15.1071Z" fill="fill"/>
<path d="M200.611 10.7117H194.753V16.5396H200.611V10.7117Z" fill="fill"/>
<path d="M196.143 7.58606H190.285V13.414H196.143V7.58606Z" fill="fill"/>
<path d="M191.759 5.53491H185.901V11.3628H191.759V5.53491Z" fill="fill"/>
<path d="M187.864 4.33032H182.006V10.1582H187.864V4.33032Z" fill="fill"/>
<path d="M184.839 3.72791H178.981V9.55581H184.839V3.72791Z" fill="fill"/>
<path d="M183.073 3.53259H177.215V9.3605H183.073V3.53259Z" fill="fill"/>
</svg>
