<svg width="216" height="70" viewBox="0 0 216 70" fill="none" xmlns="http://www.w3.org/2000/svg">
<path d="M206.351 22.0417H202.816V25.558H206.351V22.0417Z" fill="fill"/>
<path d="M205.498 21.1465H201.963V24.6628H205.498V21.1465Z" fill="fill"/>
<path d="M204.633 20.2511H201.099V23.7674H204.633V20.2511Z" fill="fill"/>
<path d="M203.78 19.3719H200.245V22.8882H203.78V19.3719Z" fill="fill"/>
<path d="M202.929 18.4767H199.395V21.993H202.929V18.4767Z" fill="fill"/>
<path d="M202.061 17.5813H198.527V21.0976H202.061V17.5813Z" fill="fill"/>
<path d="M201.211 16.7023H197.676V20.2185H201.211V16.7023Z" fill="fill"/>
<path d="M200.344 15.8069H196.809V19.3232H200.344V15.8069Z" fill="fill"/>
<path d="M199.496 14.9279H195.961V18.4441H199.496V14.9279Z" fill="fill"/>
<path d="M198.625 14.0325H195.091V17.5487H198.625V14.0325Z" fill="fill"/>
<path d="M197.775 13.1371H194.24V16.6534H197.775V13.1371Z" fill="fill"/>
<path d="M196.924 12.2581H193.39V15.7743H196.924V12.2581Z" fill="fill"/>
<path d="M172.69 11.7046H167.044V17.3209H172.69V11.7046Z" fill="fill"/>
<path d="M175.227 14.6185H169.582V20.2348H175.227V14.6185Z" fill="fill"/>
<path d="M177.762 17.5162H172.116V23.1325H177.762V17.5162Z" fill="fill"/>
<path d="M180.316 20.4302H174.654V26.0627H180.316V20.4302Z" fill="fill"/>
<path d="M181.574 23.2465H175.913V28.879H181.574V23.2465Z" fill="fill"/>
<path d="M178.679 25.786H173.018V31.4186H178.679V25.786Z" fill="fill"/>
<path d="M175.771 28.3256H170.109V33.9581H175.771V28.3256Z" fill="fill"/>
<path d="M172.87 30.7023H167.208V36.3348H172.87V30.7023Z" fill="fill"/>
<path d="M170.386 27.7721H164.708V33.4209H170.386V27.7721Z" fill="fill"/>
<path d="M167.88 24.8256H162.202V30.4744H167.88V24.8256Z" fill="fill"/>
<path d="M165.377 21.8953H159.698V27.5441H165.377V21.8953Z" fill="fill"/>
<path d="M162.873 18.9487H157.195V24.5976H162.873V18.9487Z" fill="fill"/>
<path d="M180.663 4.70459H174.936V10.4023H180.663V4.70459Z" fill="fill"/>
<path d="M175.182 5.81152H169.455V11.5092H175.182V5.81152Z" fill="fill"/>
<path d="M170.584 7.89526H164.856V13.5929H170.584V7.89526Z" fill="fill"/>
<path d="M166.901 10.386H161.173V16.0837H166.901V10.386Z" fill="fill"/>
<path d="M164.264 12.7465H158.537V18.4441H164.264V12.7465Z" fill="fill"/>
<path d="M162.744 14.3744H157.017V20.0721H162.744V14.3744Z" fill="fill"/>
<path d="M161.404 16.0674H155.676V21.7651H161.404V16.0674Z" fill="fill"/>
<path d="M159.541 18.9325H153.813V24.6302H159.541V18.9325Z" fill="fill"/>
<path d="M157.655 22.8232H151.928V28.5209H157.655V22.8232Z" fill="fill"/>
<path d="M156.266 27.6093H150.539V33.3069H156.266V27.6093Z" fill="fill"/>
<path d="M155.889 32.9813H150.162V38.679H155.889V32.9813Z" fill="fill"/>
<path d="M156.331 36.6604H150.604V42.3581H156.331V36.6604Z" fill="fill"/>
<path d="M157.312 40.3721H151.585V46.0697H157.312V40.3721Z" fill="fill"/>
<path d="M158.818 44.0186H153.09V49.7162H158.818V44.0186Z" fill="fill"/>
<path d="M160.817 47.5186H155.089V53.2162H160.817V47.5186Z" fill="fill"/>
<path d="M163.303 50.7581H157.576V56.4557H163.303V50.7581Z" fill="fill"/>
<path d="M166.232 53.672H160.504V59.3697H166.232V53.672Z" fill="fill"/>
<path d="M169.583 56.1465H163.855V61.8442H169.583V56.1465Z" fill="fill"/>
<path d="M173.362 58.1H167.635V63.7976H173.362V58.1Z" fill="fill"/>
<path d="M177.504 59.4186H171.777V65.1163H177.504V59.4186Z" fill="fill"/>
<path d="M182.021 60.0371H176.293V65.7348H182.021V60.0371Z" fill="fill"/>
<path d="M186.718 59.858H180.991V65.5557H186.718V59.858Z" fill="fill"/>
<path d="M191.102 58.9139H185.375V64.6116H191.102V58.9139Z" fill="fill"/>
<path d="M195.096 57.286H189.369V62.9837H195.096V57.286Z" fill="fill"/>
<path d="M198.677 55.0883H192.95V60.7859H198.677V55.0883Z" fill="fill"/>
<path d="M201.856 52.4022H196.128V58.0999H201.856V52.4022Z" fill="fill"/>
<path d="M204.586 49.3092H198.859V55.0069H204.586V49.3092Z" fill="fill"/>
<path d="M206.865 45.9395H201.138V51.6371H206.865V45.9395Z" fill="fill"/>
<path d="M208.629 42.3744H202.902V48.0721H208.629V42.3744Z" fill="fill"/>
<path d="M209.902 38.6953H204.175V44.393H209.902V38.6953Z" fill="fill"/>
<path d="M210.642 35.0162H204.915V40.7139H210.642V35.0162Z" fill="fill"/>
<path d="M210.803 30.5883H205.076V36.2859H210.803V30.5883Z" fill="fill"/>
<path d="M209.888 25.3302H204.161V31.0279H209.888V25.3302Z" fill="fill"/>
<path d="M208.238 21.0325H202.51V26.7301H208.238V21.0325Z" fill="fill"/>
<path d="M206.468 17.8906H200.741V23.5883H206.468V17.8906Z" fill="fill"/>
<path d="M205.142 16.0186H199.415V21.7162H205.142V16.0186Z" fill="fill"/>
<path d="M201.051 11.7208H195.323V17.4185H201.051V11.7208Z" fill="fill"/>
<path d="M196.681 8.67664H190.954V14.3743H196.681V8.67664Z" fill="fill"/>
<path d="M192.412 6.67432H186.685V12.372H192.412V6.67432Z" fill="fill"/>
<path d="M188.601 5.48596H182.874V11.1836H188.601V5.48596Z" fill="fill"/>
<path d="M185.656 4.91626H179.928V10.6139H185.656V4.91626Z" fill="fill"/>
<path d="M183.937 4.70459H178.21V10.4023H183.937V4.70459Z" fill="fill"/>
<path d="M203.536 21.9442H197.891V27.5605H203.536V21.9442Z" fill="fill"/>
<path d="M200.605 24.4674H194.959V30.0837H200.605V24.4674Z" fill="fill"/>
<path d="M197.693 26.9907H192.048V32.607H197.693V26.9907Z" fill="fill"/>
<path d="M194.781 29.5139H189.119V35.1465H194.781V29.5139Z" fill="fill"/>
<path d="M191.952 30.7675H186.29V36.4H191.952V30.7675Z" fill="fill"/>
<path d="M189.377 27.886H183.715V33.5185H189.377V27.886Z" fill="fill"/>
<path d="M186.831 24.9884H181.169V30.621H186.831V24.9884Z" fill="fill"/>
<path d="M184.438 22.1069H178.776V27.7395H184.438V22.1069Z" fill="fill"/>
<path d="M187.4 19.6162H181.722V25.2651H187.4V19.6162Z" fill="fill"/>
<path d="M190.343 17.1256H184.665V22.7744H190.343V17.1256Z" fill="fill"/>
<path d="M193.294 14.6349H187.616V20.2837H193.294V14.6349Z" fill="fill"/>
<path d="M196.255 12.1442H190.576V17.793H196.255V12.1442Z" fill="fill"/>
<path d="M193.682 53.0697H188.037V58.686H193.682V53.0697Z" fill="fill"/>
<path d="M191.148 50.1558H185.502V55.772H191.148V50.1558Z" fill="fill"/>
<path d="M188.61 47.2417H182.965V52.858H188.61V47.2417Z" fill="fill"/>
<path d="M186.086 44.3441H180.424V49.9767H186.086V44.3441Z" fill="fill"/>
<path d="M184.813 41.5115H179.151V47.144H184.813V41.5115Z" fill="fill"/>
<path d="M187.725 38.9719H182.063V44.6045H187.725V38.9719Z" fill="fill"/>
<path d="M190.625 36.4161H184.963V42.0487H190.625V36.4161Z" fill="fill"/>
<path d="M193.52 34.0394H187.858V39.672H193.52V34.0394Z" fill="fill"/>
<path d="M196.023 36.986H190.345V42.6348H196.023V36.986Z" fill="fill"/>
<path d="M198.523 39.9161H192.845V45.565H198.523V39.9161Z" fill="fill"/>
<path d="M201.03 42.8464H195.352V48.4953H201.03V42.8464Z" fill="fill"/>
<path d="M203.536 45.7766H197.858V51.4255H203.536V45.7766Z" fill="fill"/>
<path d="M162.84 42.8301H157.195V48.4464H162.84V42.8301Z" fill="fill"/>
<path d="M165.766 40.2906H160.121V45.9069H165.766V40.2906Z" fill="fill"/>
<path d="M168.681 37.7673H163.035V43.3836H168.681V37.7673Z" fill="fill"/>
<path d="M171.629 35.2441H165.967V40.8767H171.629V35.2441Z" fill="fill"/>
<path d="M174.458 33.9906H168.796V39.6232H174.458V33.9906Z" fill="fill"/>
<path d="M177.013 36.8719H171.351V42.5045H177.013V36.8719Z" fill="fill"/>
<path d="M179.561 39.7534H173.899V45.386H179.561V39.7534Z" fill="fill"/>
<path d="M181.954 42.6348H176.292V48.2673H181.954V42.6348Z" fill="fill"/>
<path d="M179.022 45.1255H173.344V50.7743H179.022V45.1255Z" fill="fill"/>
<path d="M176.062 47.6162H170.384V53.265H176.062V47.6162Z" fill="fill"/>
<path d="M173.116 50.0906H167.438V55.7394H173.116V50.0906Z" fill="fill"/>
<path d="M170.153 52.5813H164.475V58.2301H170.153V52.5813Z" fill="fill"/>
<path d="M107.413 22.0417H103.878V25.558H107.413V22.0417Z" fill="fill"/>
<path d="M106.563 21.1465H103.028V24.6628H106.563V21.1465Z" fill="fill"/>
<path d="M105.695 20.2511H102.161V23.7674H105.695V20.2511Z" fill="fill"/>
<path d="M104.842 19.3719H101.307V22.8882H104.842V19.3719Z" fill="fill"/>
<path d="M103.991 18.4767H100.457V21.993H103.991V18.4767Z" fill="fill"/>
<path d="M103.126 17.5813H99.5918V21.0976H103.126V17.5813Z" fill="fill"/>
<path d="M102.273 16.7023H98.7383V20.2185H102.273V16.7023Z" fill="fill"/>
<path d="M101.406 15.8069H97.8711V19.3232H101.406V15.8069Z" fill="fill"/>
<path d="M100.558 14.9279H97.0229V18.4441H100.558V14.9279Z" fill="fill"/>
<path d="M99.6874 14.0325H96.1528V17.5487H99.6874V14.0325Z" fill="fill"/>
<path d="M98.8369 13.1371H95.3022V16.6534H98.8369V13.1371Z" fill="fill"/>
<path d="M97.9861 12.2581H94.4517V15.7743H97.9861V12.2581Z" fill="fill"/>
<path d="M73.7491 11.7046H68.1035V17.3209H73.7491V11.7046Z" fill="fill"/>
<path d="M76.2865 14.6185H70.6411V20.2348H76.2865V14.6185Z" fill="fill"/>
<path d="M78.8212 17.5162H73.1758V23.1325H78.8212V17.5162Z" fill="fill"/>
<path d="M81.3751 20.4302H75.7134V26.0627H81.3751V20.4302Z" fill="fill"/>
<path d="M82.6339 23.2465H76.9722V28.879H82.6339V23.2465Z" fill="fill"/>
<path d="M79.7389 25.786H74.0771V31.4186H79.7389V25.786Z" fill="fill"/>
<path d="M76.8304 28.3256H71.1685V33.9581H76.8304V28.3256Z" fill="fill"/>
<path d="M73.9298 30.7023H68.2681V36.3348H73.9298V30.7023Z" fill="fill"/>
<path d="M71.4457 27.772H65.7676V33.4208H71.4457V27.772Z" fill="fill"/>
<path d="M68.9394 24.8256H63.2612V30.4744H68.9394V24.8256Z" fill="fill"/>
<path d="M66.4361 21.8953H60.7578V27.5441H66.4361V21.8953Z" fill="fill"/>
<path d="M63.932 18.9487H58.2539V24.5976H63.932V18.9487Z" fill="fill"/>
<path d="M81.7136 4.70459H75.9863V10.4023H81.7136V4.70459Z" fill="fill"/>
<path d="M76.2331 5.81152H70.5059V11.5092H76.2331V5.81152Z" fill="fill"/>
<path d="M71.6345 7.89526H65.9072V13.5929H71.6345V7.89526Z" fill="fill"/>
<path d="M67.9514 10.386H62.2241V16.0837H67.9514V10.386Z" fill="fill"/>
<path d="M65.3147 12.7465H59.5874V18.4441H65.3147V12.7465Z" fill="fill"/>
<path d="M63.7951 14.3744H58.0679V20.0721H63.7951V14.3744Z" fill="fill"/>
<path d="M62.4543 16.0674H56.7271V21.7651H62.4543V16.0674Z" fill="fill"/>
<path d="M60.5915 18.9325H54.8643V24.6302H60.5915V18.9325Z" fill="fill"/>
<path d="M58.7058 22.8232H52.9785V28.5209H58.7058V22.8232Z" fill="fill"/>
<path d="M57.3166 27.6093H51.5894V33.3069H57.3166V27.6093Z" fill="fill"/>
<path d="M56.9397 32.9813H51.2124V38.679H56.9397V32.9813Z" fill="fill"/>
<path d="M57.3821 36.6604H51.6548V42.3581H57.3821V36.6604Z" fill="fill"/>
<path d="M58.363 40.3721H52.6357V46.0697H58.363V40.3721Z" fill="fill"/>
<path d="M59.8684 44.0186H54.1411V49.7162H59.8684V44.0186Z" fill="fill"/>
<path d="M61.8674 47.5186H56.1401V53.2162H61.8674V47.5186Z" fill="fill"/>
<path d="M64.3537 50.7581H58.6265V56.4557H64.3537V50.7581Z" fill="fill"/>
<path d="M67.2824 53.672H61.5552V59.3697H67.2824V53.672Z" fill="fill"/>
<path d="M70.6335 56.1465H64.9062V61.8442H70.6335V56.1465Z" fill="fill"/>
<path d="M74.4128 58.1H68.6855V63.7976H74.4128V58.1Z" fill="fill"/>
<path d="M78.5549 59.4186H72.8276V65.1163H78.5549V59.4186Z" fill="fill"/>
<path d="M83.0715 60.0371H77.3442V65.7348H83.0715V60.0371Z" fill="fill"/>
<path d="M87.7693 59.858H82.042V65.5557H87.7693V59.858Z" fill="fill"/>
<path d="M92.1526 58.9139H86.4253V64.6116H92.1526V58.9139Z" fill="fill"/>
<path d="M96.1472 57.286H90.4199V62.9837H96.1472V57.286Z" fill="fill"/>
<path d="M99.7282 55.0883H94.001V60.7859H99.7282V55.0883Z" fill="fill"/>
<path d="M102.906 52.4022H97.1792V58.0999H102.906V52.4022Z" fill="fill"/>
<path d="M105.637 49.3092H99.9097V55.0069H105.637V49.3092Z" fill="fill"/>
<path d="M107.916 45.9395H102.189V51.6371H107.916V45.9395Z" fill="fill"/>
<path d="M109.68 42.3744H103.953V48.0721H109.68V42.3744Z" fill="fill"/>
<path d="M110.953 38.6953H105.226V44.393H110.953V38.6953Z" fill="fill"/>
<path d="M111.693 35.0162H105.965V40.7139H111.693V35.0162Z" fill="fill"/>
<path d="M111.854 30.5883H106.127V36.2859H111.854V30.5883Z" fill="fill"/>
<path d="M110.939 25.3302H105.211V31.0279H110.939V25.3302Z" fill="fill"/>
<path d="M109.288 21.0325H103.561V26.7301H109.288V21.0325Z" fill="fill"/>
<path d="M107.519 17.8906H101.792V23.5883H107.519V17.8906Z" fill="fill"/>
<path d="M106.193 16.0186H100.465V21.7162H106.193V16.0186Z" fill="fill"/>
<path d="M102.101 11.7208H96.374V17.4185H102.101V11.7208Z" fill="fill"/>
<path d="M97.7322 8.67664H92.0049V14.3743H97.7322V8.67664Z" fill="fill"/>
<path d="M93.4626 6.67432H87.7354V12.372H93.4626V6.67432Z" fill="fill"/>
<path d="M89.6521 5.48596H83.9248V11.1836H89.6521V5.48596Z" fill="fill"/>
<path d="M86.7063 4.91626H80.979V10.6139H86.7063V4.91626Z" fill="fill"/>
<path d="M84.988 4.70459H79.2607V10.4023H84.988V4.70459Z" fill="fill"/>
<path d="M104.598 21.9442H98.9531V27.5605H104.598V21.9442Z" fill="fill"/>
<path d="M101.667 24.4674H96.0215V30.0837H101.667V24.4674Z" fill="fill"/>
<path d="M98.7554 26.9907H93.1099V32.607H98.7554V26.9907Z" fill="fill"/>
<path d="M95.8431 29.5139H90.1812V35.1465H95.8431V29.5139Z" fill="fill"/>
<path d="M93.0135 30.7675H87.3516V36.4H93.0135V30.7675Z" fill="fill"/>
<path d="M90.4391 27.886H84.7773V33.5185H90.4391V27.886Z" fill="fill"/>
<path d="M87.8934 24.9884H82.2314V30.621H87.8934V24.9884Z" fill="fill"/>
<path d="M85.5001 22.1069H79.8384V27.7395H85.5001V22.1069Z" fill="fill"/>
<path d="M88.4623 19.6162H82.7842V25.2651H88.4623V19.6162Z" fill="fill"/>
<path d="M91.4052 17.1256H85.7271V22.7744H91.4052V17.1256Z" fill="fill"/>
<path d="M94.3568 14.6349H88.6787V20.2837H94.3568V14.6349Z" fill="fill"/>
<path d="M97.3165 12.1442H91.6382V17.793H97.3165V12.1442Z" fill="fill"/>
<path d="M94.744 53.0697H89.0986V58.686H94.744V53.0697Z" fill="fill"/>
<path d="M92.2095 50.1558H86.564V55.772H92.2095V50.1558Z" fill="fill"/>
<path d="M89.6693 47.2417H84.0239V52.858H89.6693V47.2417Z" fill="fill"/>
<path d="M87.1481 44.3441H81.4863V49.9767H87.1481V44.3441Z" fill="fill"/>
<path d="M85.8751 41.5115H80.2134V47.144H85.8751V41.5115Z" fill="fill"/>
<path d="M88.7868 38.9719H83.125V44.6045H88.7868V38.9719Z" fill="fill"/>
<path d="M91.6871 36.4161H86.0254V42.0487H91.6871V36.4161Z" fill="fill"/>
<path d="M94.5822 34.0394H88.9204V39.672H94.5822V34.0394Z" fill="fill"/>
<path d="M97.0851 36.986H91.4067V42.6348H97.0851V36.986Z" fill="fill"/>
<path d="M99.5854 39.9161H93.9072V45.565H99.5854V39.9161Z" fill="fill"/>
<path d="M102.092 42.8464H96.4136V48.4953H102.092V42.8464Z" fill="fill"/>
<path d="M104.598 45.7766H98.9199V51.4255H104.598V45.7766Z" fill="fill"/>
<path d="M63.8993 42.8301H58.2539V48.4464H63.8993V42.8301Z" fill="fill"/>
<path d="M66.8257 40.2906H61.1802V45.9069H66.8257V40.2906Z" fill="fill"/>
<path d="M69.7401 37.7673H64.0947V43.3836H69.7401V37.7673Z" fill="fill"/>
<path d="M72.6881 35.2441H67.0264V40.8767H72.6881V35.2441Z" fill="fill"/>
<path d="M75.5177 33.9906H69.856V39.6232H75.5177V33.9906Z" fill="fill"/>
<path d="M78.0721 36.8719H72.4102V42.5045H78.0721V36.8719Z" fill="fill"/>
<path d="M80.6207 39.7534H74.959V45.386H80.6207V39.7534Z" fill="fill"/>
<path d="M83.0138 42.6348H77.3521V48.2673H83.0138V42.6348Z" fill="fill"/>
<path d="M80.0815 45.1255H74.4033V50.7743H80.0815V45.1255Z" fill="fill"/>
<path d="M77.1215 47.6162H71.4434V53.265H77.1215V47.6162Z" fill="fill"/>
<path d="M74.1759 50.0906H68.4976V55.7394H74.1759V50.0906Z" fill="fill"/>
<path d="M71.2133 52.5813H65.5352V58.2301H71.2133V52.5813Z" fill="fill"/>
</svg>
