<svg width="216" height="70" viewBox="0 0 216 70" fill="none" xmlns="http://www.w3.org/2000/svg">
<path d="M159.648 22.0417H156.114V25.558H159.648V22.0417Z" fill="fill"/>
<path d="M158.795 21.1465H155.261V24.6628H158.795V21.1465Z" fill="fill"/>
<path d="M157.931 20.2511H154.396V23.7674H157.931V20.2511Z" fill="fill"/>
<path d="M157.077 19.3719H153.542V22.8882H157.077V19.3719Z" fill="fill"/>
<path d="M156.227 18.4767H152.692V21.993H156.227V18.4767Z" fill="fill"/>
<path d="M155.359 17.5813H151.824V21.0976H155.359V17.5813Z" fill="fill"/>
<path d="M154.508 16.7023H150.974V20.2185H154.508V16.7023Z" fill="fill"/>
<path d="M153.641 15.8069H150.106V19.3232H153.641V15.8069Z" fill="fill"/>
<path d="M152.793 14.9279H149.258V18.4441H152.793V14.9279Z" fill="fill"/>
<path d="M151.923 14.0325H148.388V17.5487H151.923V14.0325Z" fill="fill"/>
<path d="M151.072 13.1371H147.538V16.6534H151.072V13.1371Z" fill="fill"/>
<path d="M150.221 12.2581H146.687V15.7743H150.221V12.2581Z" fill="fill"/>
<path d="M125.987 11.7046H120.341V17.3209H125.987V11.7046Z" fill="fill"/>
<path d="M128.524 14.6185H122.879V20.2348H128.524V14.6185Z" fill="fill"/>
<path d="M131.059 17.5162H125.414V23.1325H131.059V17.5162Z" fill="fill"/>
<path d="M133.613 20.4302H127.951V26.0627H133.613V20.4302Z" fill="fill"/>
<path d="M134.872 23.2465H129.21V28.879H134.872V23.2465Z" fill="fill"/>
<path d="M131.977 25.786H126.315V31.4186H131.977V25.786Z" fill="fill"/>
<path d="M129.068 28.3256H123.406V33.9581H129.068V28.3256Z" fill="fill"/>
<path d="M126.168 30.7023H120.506V36.3348H126.168V30.7023Z" fill="fill"/>
<path d="M123.684 27.7721H118.005V33.4209H123.684V27.7721Z" fill="fill"/>
<path d="M121.177 24.8256H115.499V30.4744H121.177V24.8256Z" fill="fill"/>
<path d="M118.674 21.8953H112.996V27.5441H118.674V21.8953Z" fill="fill"/>
<path d="M116.17 18.9487H110.492V24.5976H116.17V18.9487Z" fill="fill"/>
<path d="M133.96 4.70459H128.233V10.4023H133.96V4.70459Z" fill="fill"/>
<path d="M128.48 5.81152H122.752V11.5092H128.48V5.81152Z" fill="fill"/>
<path d="M123.881 7.89526H118.154V13.5929H123.881V7.89526Z" fill="fill"/>
<path d="M120.198 10.386H114.471V16.0837H120.198V10.386Z" fill="fill"/>
<path d="M117.561 12.7465H111.834V18.4441H117.561V12.7465Z" fill="fill"/>
<path d="M116.042 14.3744H110.314V20.0721H116.042V14.3744Z" fill="fill"/>
<path d="M114.701 16.0674H108.974V21.7651H114.701V16.0674Z" fill="fill"/>
<path d="M112.838 18.9325H107.111V24.6302H112.838V18.9325Z" fill="fill"/>
<path d="M110.952 22.8232H105.225V28.5209H110.952V22.8232Z" fill="fill"/>
<path d="M109.563 27.6093H103.836V33.3069H109.563V27.6093Z" fill="fill"/>
<path d="M109.186 32.9813H103.459V38.679H109.186V32.9813Z" fill="fill"/>
<path d="M109.629 36.6604H103.901V42.3581H109.629V36.6604Z" fill="fill"/>
<path d="M110.61 40.3721H104.882V46.0697H110.61V40.3721Z" fill="fill"/>
<path d="M112.115 44.0186H106.388V49.7162H112.115V44.0186Z" fill="fill"/>
<path d="M114.114 47.5186H108.387V53.2162H114.114V47.5186Z" fill="fill"/>
<path d="M116.6 50.7581H110.873V56.4557H116.6V50.7581Z" fill="fill"/>
<path d="M119.529 53.672H113.802V59.3697H119.529V53.672Z" fill="fill"/>
<path d="M122.88 56.1465H117.153V61.8442H122.88V56.1465Z" fill="fill"/>
<path d="M126.659 58.1H120.932V63.7976H126.659V58.1Z" fill="fill"/>
<path d="M130.801 59.4186H125.074V65.1163H130.801V59.4186Z" fill="fill"/>
<path d="M135.318 60.0371H129.591V65.7348H135.318V60.0371Z" fill="fill"/>
<path d="M140.016 59.858H134.289V65.5557H140.016V59.858Z" fill="fill"/>
<path d="M144.399 58.9139H138.672V64.6116H144.399V58.9139Z" fill="fill"/>
<path d="M148.394 57.286H142.667V62.9837H148.394V57.286Z" fill="fill"/>
<path d="M151.975 55.0883H146.248V60.7859H151.975V55.0883Z" fill="fill"/>
<path d="M155.153 52.4022H149.426V58.0999H155.153V52.4022Z" fill="fill"/>
<path d="M157.884 49.3092H152.156V55.0069H157.884V49.3092Z" fill="fill"/>
<path d="M160.163 45.9395H154.436V51.6371H160.163V45.9395Z" fill="fill"/>
<path d="M161.926 42.3744H156.199V48.0721H161.926V42.3744Z" fill="fill"/>
<path d="M163.199 38.6953H157.472V44.393H163.199V38.6953Z" fill="fill"/>
<path d="M163.939 35.0162H158.212V40.7139H163.939V35.0162Z" fill="fill"/>
<path d="M164.101 30.5883H158.374V36.2859H164.101V30.5883Z" fill="fill"/>
<path d="M163.185 25.3302H157.458V31.0279H163.185V25.3302Z" fill="fill"/>
<path d="M161.535 21.0325H155.808V26.7301H161.535V21.0325Z" fill="fill"/>
<path d="M159.766 17.8906H154.039V23.5883H159.766V17.8906Z" fill="fill"/>
<path d="M158.439 16.0186H152.712V21.7162H158.439V16.0186Z" fill="fill"/>
<path d="M154.348 11.7208H148.621V17.4185H154.348V11.7208Z" fill="fill"/>
<path d="M149.979 8.67664H144.251V14.3743H149.979V8.67664Z" fill="fill"/>
<path d="M145.709 6.67432H139.982V12.372H145.709V6.67432Z" fill="fill"/>
<path d="M141.899 5.48596H136.171V11.1836H141.899V5.48596Z" fill="fill"/>
<path d="M138.953 4.91626H133.226V10.6139H138.953V4.91626Z" fill="fill"/>
<path d="M137.235 4.70459H131.507V10.4023H137.235V4.70459Z" fill="fill"/>
<path d="M156.834 21.9442H151.188V27.5605H156.834V21.9442Z" fill="fill"/>
<path d="M153.902 24.4674H148.257V30.0837H153.902V24.4674Z" fill="fill"/>
<path d="M150.991 26.9907H145.345V32.607H150.991V26.9907Z" fill="fill"/>
<path d="M148.078 29.5139H142.417V35.1465H148.078V29.5139Z" fill="fill"/>
<path d="M145.249 30.7675H139.587V36.4H145.249V30.7675Z" fill="fill"/>
<path d="M142.674 27.886H137.013V33.5185H142.674V27.886Z" fill="fill"/>
<path d="M140.129 24.9884H134.467V30.621H140.129V24.9884Z" fill="fill"/>
<path d="M137.735 22.1069H132.074V27.7395H137.735V22.1069Z" fill="fill"/>
<path d="M140.698 19.6162H135.02V25.2651H140.698V19.6162Z" fill="fill"/>
<path d="M143.641 17.1256H137.962V22.7744H143.641V17.1256Z" fill="fill"/>
<path d="M146.592 14.6349H140.914V20.2837H146.592V14.6349Z" fill="fill"/>
<path d="M149.552 12.1442H143.874V17.793H149.552V12.1442Z" fill="fill"/>
<path d="M146.979 53.0697H141.334V58.686H146.979V53.0697Z" fill="fill"/>
<path d="M144.445 50.1558H138.799V55.772H144.445V50.1558Z" fill="fill"/>
<path d="M141.908 47.2417H136.262V52.858H141.908V47.2417Z" fill="fill"/>
<path d="M139.383 44.3441H133.722V49.9767H139.383V44.3441Z" fill="fill"/>
<path d="M138.11 41.5115H132.449V47.144H138.11V41.5115Z" fill="fill"/>
<path d="M141.022 38.9719H135.36V44.6045H141.022V38.9719Z" fill="fill"/>
<path d="M143.922 36.4161H138.261V42.0487H143.922V36.4161Z" fill="fill"/>
<path d="M146.818 34.0394H141.156V39.672H146.818V34.0394Z" fill="fill"/>
<path d="M149.32 36.986H143.642V42.6348H149.32V36.986Z" fill="fill"/>
<path d="M151.821 39.9161H146.143V45.565H151.821V39.9161Z" fill="fill"/>
<path d="M154.327 42.8464H148.649V48.4953H154.327V42.8464Z" fill="fill"/>
<path d="M156.833 45.7766H151.155V51.4255H156.833V45.7766Z" fill="fill"/>
<path d="M116.138 42.8301H110.492V48.4464H116.138V42.8301Z" fill="fill"/>
<path d="M119.064 40.2906H113.418V45.9069H119.064V40.2906Z" fill="fill"/>
<path d="M121.978 37.7673H116.333V43.3836H121.978V37.7673Z" fill="fill"/>
<path d="M124.926 35.2441H119.264V40.8767H124.926V35.2441Z" fill="fill"/>
<path d="M127.756 33.9906H122.094V39.6232H127.756V33.9906Z" fill="fill"/>
<path d="M130.31 36.8719H124.648V42.5045H130.31V36.8719Z" fill="fill"/>
<path d="M132.859 39.7534H127.197V45.386H132.859V39.7534Z" fill="fill"/>
<path d="M135.252 42.6348H129.59V48.2673H135.252V42.6348Z" fill="fill"/>
<path d="M132.319 45.1255H126.641V50.7743H132.319V45.1255Z" fill="fill"/>
<path d="M129.359 47.6162H123.681V53.265H129.359V47.6162Z" fill="fill"/>
<path d="M126.414 50.0906H120.735V55.7394H126.414V50.0906Z" fill="fill"/>
<path d="M123.451 52.5813H117.772V58.2301H123.451V52.5813Z" fill="fill"/>
<path d="M60.7114 22.0419H57.1768V25.5581H60.7114V22.0419Z" fill="fill"/>
<path d="M59.8611 21.1466H56.3267V24.6629H59.8611V21.1466Z" fill="fill"/>
<path d="M58.9936 20.2512H55.459V23.7675H58.9936V20.2512Z" fill="fill"/>
<path d="M58.1401 19.3721H54.6055V22.8884H58.1401V19.3721Z" fill="fill"/>
<path d="M57.2895 18.4768H53.7549V21.9931H57.2895V18.4768Z" fill="fill"/>
<path d="M56.4247 17.5814H52.8901V21.0977H56.4247V17.5814Z" fill="fill"/>
<path d="M55.571 16.7024H52.0366V20.2187H55.571V16.7024Z" fill="fill"/>
<path d="M54.704 15.807H51.1694V19.3233H54.704V15.807Z" fill="fill"/>
<path d="M53.8559 14.928H50.3213V18.4443H53.8559V14.928Z" fill="fill"/>
<path d="M52.9858 14.0326H49.4512V17.5489H52.9858V14.0326Z" fill="fill"/>
<path d="M52.1352 13.1372H48.6006V16.6535H52.1352V13.1372Z" fill="fill"/>
<path d="M51.2844 12.2582H47.75V15.7745H51.2844V12.2582Z" fill="fill"/>
<path d="M27.0474 11.7047H21.4019V17.321H27.0474V11.7047Z" fill="fill"/>
<path d="M29.5848 14.6187H23.9395V20.2349H29.5848V14.6187Z" fill="fill"/>
<path d="M32.1195 17.5164H26.4741V23.1326H32.1195V17.5164Z" fill="fill"/>
<path d="M34.6735 20.4303H29.0117V26.0629H34.6735V20.4303Z" fill="fill"/>
<path d="M35.9323 23.2466H30.2705V28.8791H35.9323V23.2466Z" fill="fill"/>
<path d="M33.0372 25.7861H27.3755V31.4187H33.0372V25.7861Z" fill="fill"/>
<path d="M30.1288 28.3257H24.4668V33.9582H30.1288V28.3257Z" fill="fill"/>
<path d="M27.2282 30.7024H21.5664V36.3349H27.2282V30.7024Z" fill="fill"/>
<path d="M24.7441 27.7721H19.0659V33.4209H24.7441V27.7721Z" fill="fill"/>
<path d="M22.2377 24.8257H16.5596V30.4745H22.2377V24.8257Z" fill="fill"/>
<path d="M19.7345 21.8954H14.0562V27.5442H19.7345V21.8954Z" fill="fill"/>
<path d="M17.2304 18.9489H11.5522V24.5977H17.2304V18.9489Z" fill="fill"/>
<path d="M35.0119 4.70471H29.2847V10.4024H35.0119V4.70471Z" fill="fill"/>
<path d="M29.5315 5.81165H23.8042V11.5093H29.5315V5.81165Z" fill="fill"/>
<path d="M24.9328 7.89539H19.2056V13.5931H24.9328V7.89539Z" fill="fill"/>
<path d="M21.2497 10.3861H15.5225V16.0838H21.2497V10.3861Z" fill="fill"/>
<path d="M18.613 12.7466H12.8857V18.4443H18.613V12.7466Z" fill="fill"/>
<path d="M17.0935 14.3745H11.3662V20.0722H17.0935V14.3745Z" fill="fill"/>
<path d="M15.7527 16.0675H10.0254V21.7652H15.7527V16.0675Z" fill="fill"/>
<path d="M13.8899 18.9326H8.1626V24.6303H13.8899V18.9326Z" fill="fill"/>
<path d="M12.0041 22.8234H6.27686V28.521H12.0041V22.8234Z" fill="fill"/>
<path d="M10.615 27.6094H4.8877V33.307H10.615V27.6094Z" fill="fill"/>
<path d="M10.238 32.9814H4.51074V38.6791H10.238V32.9814Z" fill="fill"/>
<path d="M10.6804 36.6605H4.95312V42.3582H10.6804V36.6605Z" fill="fill"/>
<path d="M11.6614 40.3722H5.93408V46.0699H11.6614V40.3722Z" fill="fill"/>
<path d="M13.1667 44.0187H7.43945V49.7164H13.1667V44.0187Z" fill="fill"/>
<path d="M15.1657 47.5187H9.43848V53.2164H15.1657V47.5187Z" fill="fill"/>
<path d="M17.6521 50.7582H11.9248V56.4559H17.6521V50.7582Z" fill="fill"/>
<path d="M20.5808 53.6721H14.8535V59.3698H20.5808V53.6721Z" fill="fill"/>
<path d="M23.9319 56.1466H18.2046V61.8443H23.9319V56.1466Z" fill="fill"/>
<path d="M27.7112 58.1001H21.9839V63.7978H27.7112V58.1001Z" fill="fill"/>
<path d="M31.8532 59.4187H26.126V65.1164H31.8532V59.4187Z" fill="fill"/>
<path d="M36.3699 60.0372H30.6426V65.7349H36.3699V60.0372Z" fill="fill"/>
<path d="M41.0676 59.8582H35.3403V65.5558H41.0676V59.8582Z" fill="fill"/>
<path d="M45.4509 58.9141H39.7236V64.6117H45.4509V58.9141Z" fill="fill"/>
<path d="M49.4455 57.2861H43.7183V62.9838H49.4455V57.2861Z" fill="fill"/>
<path d="M53.0266 55.0884H47.2993V60.7861H53.0266V55.0884Z" fill="fill"/>
<path d="M56.2048 52.4023H50.4775V58.1H56.2048V52.4023Z" fill="fill"/>
<path d="M58.9353 49.3093H53.208V55.007H58.9353V49.3093Z" fill="fill"/>
<path d="M61.2146 45.9396H55.4873V51.6373H61.2146V45.9396Z" fill="fill"/>
<path d="M62.9782 42.3745H57.251V48.0722H62.9782V42.3745Z" fill="fill"/>
<path d="M64.2512 38.6954H58.5239V44.3931H64.2512V38.6954Z" fill="fill"/>
<path d="M64.9909 35.0164H59.2637V40.714H64.9909V35.0164Z" fill="fill"/>
<path d="M65.1526 30.5884H59.4253V36.2861H65.1526V30.5884Z" fill="fill"/>
<path d="M64.237 25.3303H58.5098V31.028H64.237V25.3303Z" fill="fill"/>
<path d="M62.5866 21.0326H56.8594V26.7303H62.5866V21.0326Z" fill="fill"/>
<path d="M60.8176 17.8907H55.0903V23.5884H60.8176V17.8907Z" fill="fill"/>
<path d="M59.4909 16.0187H53.7637V21.7164H59.4909V16.0187Z" fill="fill"/>
<path d="M55.3996 11.7209H49.6724V17.4186H55.3996V11.7209Z" fill="fill"/>
<path d="M51.0305 8.67676H45.3032V14.3744H51.0305V8.67676Z" fill="fill"/>
<path d="M46.761 6.67444H41.0337V12.3721H46.761V6.67444Z" fill="fill"/>
<path d="M42.9504 5.48608H37.2231V11.1838H42.9504V5.48608Z" fill="fill"/>
<path d="M40.0046 4.91638H34.2773V10.6141H40.0046V4.91638Z" fill="fill"/>
<path d="M38.2864 4.70471H32.5591V10.4024H38.2864V4.70471Z" fill="fill"/>
<path d="M57.8968 21.9443H52.2515V27.5606H57.8968V21.9443Z" fill="fill"/>
<path d="M54.9652 24.4675H49.3198V30.0838H54.9652V24.4675Z" fill="fill"/>
<path d="M52.0538 26.9908H46.4082V32.6071H52.0538V26.9908Z" fill="fill"/>
<path d="M49.1414 29.514H43.4795V35.1466H49.1414V29.514Z" fill="fill"/>
<path d="M46.3119 30.7676H40.6499V36.4001H46.3119V30.7676Z" fill="fill"/>
<path d="M43.7374 27.8861H38.0757V33.5187H43.7374V27.8861Z" fill="fill"/>
<path d="M41.1917 24.9885H35.5298V30.6211H41.1917V24.9885Z" fill="fill"/>
<path d="M38.7985 22.1071H33.1367V27.7396H38.7985V22.1071Z" fill="fill"/>
<path d="M41.7607 19.6163H36.0825V25.2652H41.7607V19.6163Z" fill="fill"/>
<path d="M44.7035 17.1257H39.0254V22.7746H44.7035V17.1257Z" fill="fill"/>
<path d="M47.6552 14.635H41.9771V20.2838H47.6552V14.635Z" fill="fill"/>
<path d="M50.6149 12.1443H44.9365V17.7931H50.6149V12.1443Z" fill="fill"/>
<path d="M48.0423 53.0698H42.397V58.6861H48.0423V53.0698Z" fill="fill"/>
<path d="M45.5079 50.1559H39.8623V55.7722H45.5079V50.1559Z" fill="fill"/>
<path d="M42.9676 47.2418H37.3223V52.8581H42.9676V47.2418Z" fill="fill"/>
<path d="M40.4464 44.3442H34.7847V49.9768H40.4464V44.3442Z" fill="fill"/>
<path d="M39.1735 41.5116H33.5117V47.1442H39.1735V41.5116Z" fill="fill"/>
<path d="M42.0851 38.972H36.4233V44.6046H42.0851V38.972Z" fill="fill"/>
<path d="M44.9855 36.4163H39.3237V42.0488H44.9855V36.4163Z" fill="fill"/>
<path d="M47.8805 34.0396H42.2188V39.6721H47.8805V34.0396Z" fill="fill"/>
<path d="M50.3834 36.9861H44.7051V42.6349H50.3834V36.9861Z" fill="fill"/>
<path d="M52.8837 39.9163H47.2056V45.5651H52.8837V39.9163Z" fill="fill"/>
<path d="M55.39 42.8466H49.7119V48.4954H55.39V42.8466Z" fill="fill"/>
<path d="M57.8964 45.7767H52.2183V51.4256H57.8964V45.7767Z" fill="fill"/>
<path d="M17.1976 42.8302H11.5522V48.4465H17.1976V42.8302Z" fill="fill"/>
<path d="M20.1241 40.2908H14.4785V45.9071H20.1241V40.2908Z" fill="fill"/>
<path d="M23.0384 37.7675H17.3931V43.3837H23.0384V37.7675Z" fill="fill"/>
<path d="M25.9865 35.2443H20.3247V40.8768H25.9865V35.2443Z" fill="fill"/>
<path d="M28.8161 33.9907H23.1543V39.6233H28.8161V33.9907Z" fill="fill"/>
<path d="M31.3704 36.8721H25.7085V42.5046H31.3704V36.8721Z" fill="fill"/>
<path d="M33.9191 39.7535H28.2573V45.3861H33.9191V39.7535Z" fill="fill"/>
<path d="M36.3121 42.6349H30.6504V48.2674H36.3121V42.6349Z" fill="fill"/>
<path d="M33.3798 45.1256H27.7017V50.7744H33.3798V45.1256Z" fill="fill"/>
<path d="M30.4198 47.6163H24.7417V53.2652H30.4198V47.6163Z" fill="fill"/>
<path d="M27.4742 50.0907H21.7959V55.7395H27.4742V50.0907Z" fill="fill"/>
<path d="M24.5116 52.5814H18.8335V58.2303H24.5116V52.5814Z" fill="fill"/>
</svg>
