<svg width="216" height="70" viewBox="0 0 216 70" fill="none" xmlns="http://www.w3.org/2000/svg">
<path d="M206.351 22.0419H202.816V25.5581H206.351V22.0419Z" fill="fill"/>
<path d="M205.497 21.1466H201.963V24.6629H205.497V21.1466Z" fill="fill"/>
<path d="M204.633 20.2512H201.098V23.7675H204.633V20.2512Z" fill="fill"/>
<path d="M203.779 19.3721H200.245V22.8884H203.779V19.3721Z" fill="fill"/>
<path d="M202.929 18.4768H199.394V21.9931H202.929V18.4768Z" fill="fill"/>
<path d="M202.061 17.5814H198.526V21.0977H202.061V17.5814Z" fill="fill"/>
<path d="M201.21 16.7024H197.676V20.2187H201.21V16.7024Z" fill="fill"/>
<path d="M200.343 15.807H196.809V19.3233H200.343V15.807Z" fill="fill"/>
<path d="M199.495 14.928H195.96V18.4443H199.495V14.928Z" fill="fill"/>
<path d="M198.625 14.0326H195.09V17.5489H198.625V14.0326Z" fill="fill"/>
<path d="M197.774 13.1372H194.24V16.6535H197.774V13.1372Z" fill="fill"/>
<path d="M196.924 12.2582H193.389V15.7745H196.924V12.2582Z" fill="fill"/>
<path d="M172.689 11.7047H167.043V17.321H172.689V11.7047Z" fill="fill"/>
<path d="M175.226 14.6187H169.581V20.2349H175.226V14.6187Z" fill="fill"/>
<path d="M177.761 17.5164H172.116V23.1326H177.761V17.5164Z" fill="fill"/>
<path d="M180.315 20.4303H174.653V26.0629H180.315V20.4303Z" fill="fill"/>
<path d="M181.574 23.2466H175.912V28.8791H181.574V23.2466Z" fill="fill"/>
<path d="M178.679 25.7861H173.017V31.4187H178.679V25.7861Z" fill="fill"/>
<path d="M175.77 28.3257H170.108V33.9582H175.77V28.3257Z" fill="fill"/>
<path d="M172.87 30.7024H167.208V36.3349H172.87V30.7024Z" fill="fill"/>
<path d="M170.386 27.7722H164.708V33.421H170.386V27.7722Z" fill="fill"/>
<path d="M167.879 24.8257H162.201V30.4745H167.879V24.8257Z" fill="fill"/>
<path d="M165.376 21.8954H159.698V27.5442H165.376V21.8954Z" fill="fill"/>
<path d="M162.872 18.9489H157.194V24.5977H162.872V18.9489Z" fill="fill"/>
<path d="M180.662 4.70471H174.935V10.4024H180.662V4.70471Z" fill="fill"/>
<path d="M175.182 5.81165H169.455V11.5093H175.182V5.81165Z" fill="fill"/>
<path d="M170.583 7.89539H164.856V13.5931H170.583V7.89539Z" fill="fill"/>
<path d="M166.9 10.3861H161.173V16.0838H166.9V10.3861Z" fill="fill"/>
<path d="M164.263 12.7466H158.536V18.4443H164.263V12.7466Z" fill="fill"/>
<path d="M162.744 14.3745H157.017V20.0722H162.744V14.3745Z" fill="fill"/>
<path d="M161.403 16.0675H155.676V21.7652H161.403V16.0675Z" fill="fill"/>
<path d="M159.54 18.9326H153.813V24.6303H159.54V18.9326Z" fill="fill"/>
<path d="M157.655 22.8234H151.927V28.521H157.655V22.8234Z" fill="fill"/>
<path d="M156.265 27.6094H150.538V33.307H156.265V27.6094Z" fill="fill"/>
<path d="M155.888 32.9814H150.161V38.6791H155.888V32.9814Z" fill="fill"/>
<path d="M156.331 36.6605H150.604V42.3582H156.331V36.6605Z" fill="fill"/>
<path d="M157.312 40.3722H151.584V46.0699H157.312V40.3722Z" fill="fill"/>
<path d="M158.817 44.0187H153.09V49.7164H158.817V44.0187Z" fill="fill"/>
<path d="M160.816 47.5187H155.089V53.2164H160.816V47.5187Z" fill="fill"/>
<path d="M163.302 50.7582H157.575V56.4559H163.302V50.7582Z" fill="fill"/>
<path d="M166.231 53.6721H160.504V59.3698H166.231V53.6721Z" fill="fill"/>
<path d="M169.582 56.1466H163.855V61.8443H169.582V56.1466Z" fill="fill"/>
<path d="M173.362 58.1001H167.634V63.7978H173.362V58.1001Z" fill="fill"/>
<path d="M177.504 59.4187H171.776V65.1164H177.504V59.4187Z" fill="fill"/>
<path d="M182.02 60.0372H176.293V65.7349H182.02V60.0372Z" fill="fill"/>
<path d="M186.718 59.8582H180.991V65.5558H186.718V59.8582Z" fill="fill"/>
<path d="M191.101 58.9141H185.374V64.6117H191.101V58.9141Z" fill="fill"/>
<path d="M195.096 57.2861H189.369V62.9838H195.096V57.2861Z" fill="fill"/>
<path d="M198.677 55.0884H192.95V60.7861H198.677V55.0884Z" fill="fill"/>
<path d="M201.855 52.4023H196.128V58.1H201.855V52.4023Z" fill="fill"/>
<path d="M204.586 49.3093H198.858V55.007H204.586V49.3093Z" fill="fill"/>
<path d="M206.865 45.9396H201.138V51.6373H206.865V45.9396Z" fill="fill"/>
<path d="M208.629 42.3745H202.901V48.0722H208.629V42.3745Z" fill="fill"/>
<path d="M209.902 38.6954H204.174V44.3931H209.902V38.6954Z" fill="fill"/>
<path d="M210.641 35.0164H204.914V40.714H210.641V35.0164Z" fill="fill"/>
<path d="M210.803 30.5884H205.076V36.2861H210.803V30.5884Z" fill="fill"/>
<path d="M209.887 25.3303H204.16V31.028H209.887V25.3303Z" fill="fill"/>
<path d="M208.237 21.0326H202.51V26.7303H208.237V21.0326Z" fill="fill"/>
<path d="M206.468 17.8907H200.741V23.5884H206.468V17.8907Z" fill="fill"/>
<path d="M205.141 16.0187H199.414V21.7164H205.141V16.0187Z" fill="fill"/>
<path d="M201.05 11.7209H195.323V17.4186H201.05V11.7209Z" fill="fill"/>
<path d="M196.681 8.67676H190.954V14.3744H196.681V8.67676Z" fill="fill"/>
<path d="M192.411 6.67444H186.684V12.3721H192.411V6.67444Z" fill="fill"/>
<path d="M188.601 5.48608H182.874V11.1838H188.601V5.48608Z" fill="fill"/>
<path d="M185.655 4.91638H179.928V10.6141H185.655V4.91638Z" fill="fill"/>
<path d="M183.937 4.70471H178.209V10.4024H183.937V4.70471Z" fill="fill"/>
<path d="M203.536 21.9443H197.891V27.5606H203.536V21.9443Z" fill="fill"/>
<path d="M200.604 24.4675H194.959V30.0838H200.604V24.4675Z" fill="fill"/>
<path d="M197.693 26.9908H192.047V32.6071H197.693V26.9908Z" fill="fill"/>
<path d="M194.781 29.514H189.119V35.1466H194.781V29.514Z" fill="fill"/>
<path d="M191.951 30.7676H186.289V36.4001H191.951V30.7676Z" fill="fill"/>
<path d="M189.377 27.8861H183.715V33.5187H189.377V27.8861Z" fill="fill"/>
<path d="M186.831 24.9885H181.169V30.6211H186.831V24.9885Z" fill="fill"/>
<path d="M184.438 22.1071H178.776V27.7396H184.438V22.1071Z" fill="fill"/>
<path d="M187.4 19.6163H181.722V25.2652H187.4V19.6163Z" fill="fill"/>
<path d="M190.343 17.1257H184.665V22.7746H190.343V17.1257Z" fill="fill"/>
<path d="M193.294 14.635H187.616V20.2838H193.294V14.635Z" fill="fill"/>
<path d="M196.254 12.1443H190.576V17.7931H196.254V12.1443Z" fill="fill"/>
<path d="M193.682 53.0698H188.036V58.6861H193.682V53.0698Z" fill="fill"/>
<path d="M191.147 50.1559H185.501V55.7722H191.147V50.1559Z" fill="fill"/>
<path d="M188.61 47.2418H182.964V52.8581H188.61V47.2418Z" fill="fill"/>
<path d="M186.086 44.3442H180.424V49.9768H186.086V44.3442Z" fill="fill"/>
<path d="M184.813 41.5116H179.151V47.1442H184.813V41.5116Z" fill="fill"/>
<path d="M187.724 38.972H182.062V44.6046H187.724V38.972Z" fill="fill"/>
<path d="M190.625 36.4163H184.963V42.0488H190.625V36.4163Z" fill="fill"/>
<path d="M193.52 34.0396H187.858V39.6721H193.52V34.0396Z" fill="fill"/>
<path d="M196.023 36.9861H190.344V42.6349H196.023V36.9861Z" fill="fill"/>
<path d="M198.523 39.9163H192.845V45.5651H198.523V39.9163Z" fill="fill"/>
<path d="M201.029 42.8466H195.351V48.4954H201.029V42.8466Z" fill="fill"/>
<path d="M203.536 45.7767H197.857V51.4256H203.536V45.7767Z" fill="fill"/>
<path d="M162.84 42.8302H157.194V48.4465H162.84V42.8302Z" fill="fill"/>
<path d="M165.766 40.2908H160.12V45.9071H165.766V40.2908Z" fill="fill"/>
<path d="M168.68 37.7675H163.035V43.3837H168.68V37.7675Z" fill="fill"/>
<path d="M171.628 35.2443H165.966V40.8768H171.628V35.2443Z" fill="fill"/>
<path d="M174.457 33.9907H168.795V39.6233H174.457V33.9907Z" fill="fill"/>
<path d="M177.012 36.8721H171.35V42.5046H177.012V36.8721Z" fill="fill"/>
<path d="M179.561 39.7535H173.899V45.3861H179.561V39.7535Z" fill="fill"/>
<path d="M181.954 42.6349H176.292V48.2675H181.954V42.6349Z" fill="fill"/>
<path d="M179.021 45.1256H173.343V50.7744H179.021V45.1256Z" fill="fill"/>
<path d="M176.061 47.6163H170.383V53.2652H176.061V47.6163Z" fill="fill"/>
<path d="M173.116 50.0907H167.438V55.7395H173.116V50.0907Z" fill="fill"/>
<path d="M170.153 52.5814H164.475V58.2303H170.153V52.5814Z" fill="fill"/>
<path d="M60.7114 22.0419H57.1768V25.5581H60.7114V22.0419Z" fill="fill"/>
<path d="M59.8611 21.1466H56.3267V24.6629H59.8611V21.1466Z" fill="fill"/>
<path d="M58.9936 20.2512H55.459V23.7675H58.9936V20.2512Z" fill="fill"/>
<path d="M58.1401 19.3721H54.6055V22.8884H58.1401V19.3721Z" fill="fill"/>
<path d="M57.2895 18.4768H53.7549V21.9931H57.2895V18.4768Z" fill="fill"/>
<path d="M56.4247 17.5814H52.8901V21.0977H56.4247V17.5814Z" fill="fill"/>
<path d="M55.571 16.7024H52.0366V20.2187H55.571V16.7024Z" fill="fill"/>
<path d="M54.704 15.807H51.1694V19.3233H54.704V15.807Z" fill="fill"/>
<path d="M53.8559 14.928H50.3213V18.4443H53.8559V14.928Z" fill="fill"/>
<path d="M52.9858 14.0326H49.4512V17.5489H52.9858V14.0326Z" fill="fill"/>
<path d="M52.1352 13.1372H48.6006V16.6535H52.1352V13.1372Z" fill="fill"/>
<path d="M51.2844 12.2582H47.75V15.7745H51.2844V12.2582Z" fill="fill"/>
<path d="M27.0474 11.7047H21.4019V17.321H27.0474V11.7047Z" fill="fill"/>
<path d="M29.5848 14.6187H23.9395V20.2349H29.5848V14.6187Z" fill="fill"/>
<path d="M32.1195 17.5164H26.4741V23.1326H32.1195V17.5164Z" fill="fill"/>
<path d="M34.6735 20.4303H29.0117V26.0629H34.6735V20.4303Z" fill="fill"/>
<path d="M35.9323 23.2466H30.2705V28.8791H35.9323V23.2466Z" fill="fill"/>
<path d="M33.0372 25.7861H27.3755V31.4187H33.0372V25.7861Z" fill="fill"/>
<path d="M30.1288 28.3257H24.4668V33.9582H30.1288V28.3257Z" fill="fill"/>
<path d="M27.2282 30.7024H21.5664V36.3349H27.2282V30.7024Z" fill="fill"/>
<path d="M24.7441 27.7721H19.0659V33.4209H24.7441V27.7721Z" fill="fill"/>
<path d="M22.2377 24.8257H16.5596V30.4745H22.2377V24.8257Z" fill="fill"/>
<path d="M19.7345 21.8954H14.0562V27.5442H19.7345V21.8954Z" fill="fill"/>
<path d="M17.2304 18.9489H11.5522V24.5977H17.2304V18.9489Z" fill="fill"/>
<path d="M35.0119 4.70471H29.2847V10.4024H35.0119V4.70471Z" fill="fill"/>
<path d="M29.5315 5.81165H23.8042V11.5093H29.5315V5.81165Z" fill="fill"/>
<path d="M24.9328 7.89539H19.2056V13.5931H24.9328V7.89539Z" fill="fill"/>
<path d="M21.2497 10.3861H15.5225V16.0838H21.2497V10.3861Z" fill="fill"/>
<path d="M18.613 12.7466H12.8857V18.4443H18.613V12.7466Z" fill="fill"/>
<path d="M17.0935 14.3745H11.3662V20.0722H17.0935V14.3745Z" fill="fill"/>
<path d="M15.7527 16.0675H10.0254V21.7652H15.7527V16.0675Z" fill="fill"/>
<path d="M13.8899 18.9326H8.1626V24.6303H13.8899V18.9326Z" fill="fill"/>
<path d="M12.0041 22.8234H6.27686V28.521H12.0041V22.8234Z" fill="fill"/>
<path d="M10.615 27.6094H4.8877V33.307H10.615V27.6094Z" fill="fill"/>
<path d="M10.238 32.9814H4.51074V38.6791H10.238V32.9814Z" fill="fill"/>
<path d="M10.6804 36.6605H4.95312V42.3582H10.6804V36.6605Z" fill="fill"/>
<path d="M11.6614 40.3722H5.93408V46.0699H11.6614V40.3722Z" fill="fill"/>
<path d="M13.1667 44.0187H7.43945V49.7164H13.1667V44.0187Z" fill="fill"/>
<path d="M15.1657 47.5187H9.43848V53.2164H15.1657V47.5187Z" fill="fill"/>
<path d="M17.6521 50.7582H11.9248V56.4559H17.6521V50.7582Z" fill="fill"/>
<path d="M20.5808 53.6721H14.8535V59.3698H20.5808V53.6721Z" fill="fill"/>
<path d="M23.9319 56.1466H18.2046V61.8443H23.9319V56.1466Z" fill="fill"/>
<path d="M27.7112 58.1001H21.9839V63.7978H27.7112V58.1001Z" fill="fill"/>
<path d="M31.8532 59.4187H26.126V65.1164H31.8532V59.4187Z" fill="fill"/>
<path d="M36.3699 60.0372H30.6426V65.7349H36.3699V60.0372Z" fill="fill"/>
<path d="M41.0676 59.8582H35.3403V65.5558H41.0676V59.8582Z" fill="fill"/>
<path d="M45.4509 58.9141H39.7236V64.6117H45.4509V58.9141Z" fill="fill"/>
<path d="M49.4455 57.2861H43.7183V62.9838H49.4455V57.2861Z" fill="fill"/>
<path d="M53.0266 55.0884H47.2993V60.7861H53.0266V55.0884Z" fill="fill"/>
<path d="M56.2048 52.4023H50.4775V58.1H56.2048V52.4023Z" fill="fill"/>
<path d="M58.9353 49.3093H53.208V55.007H58.9353V49.3093Z" fill="fill"/>
<path d="M61.2146 45.9396H55.4873V51.6373H61.2146V45.9396Z" fill="fill"/>
<path d="M62.9782 42.3745H57.251V48.0722H62.9782V42.3745Z" fill="fill"/>
<path d="M64.2512 38.6954H58.5239V44.3931H64.2512V38.6954Z" fill="fill"/>
<path d="M64.9909 35.0164H59.2637V40.714H64.9909V35.0164Z" fill="fill"/>
<path d="M65.1526 30.5884H59.4253V36.2861H65.1526V30.5884Z" fill="fill"/>
<path d="M64.237 25.3303H58.5098V31.028H64.237V25.3303Z" fill="fill"/>
<path d="M62.5866 21.0326H56.8594V26.7303H62.5866V21.0326Z" fill="fill"/>
<path d="M60.8176 17.8907H55.0903V23.5884H60.8176V17.8907Z" fill="fill"/>
<path d="M59.4909 16.0187H53.7637V21.7164H59.4909V16.0187Z" fill="fill"/>
<path d="M55.3996 11.7209H49.6724V17.4186H55.3996V11.7209Z" fill="fill"/>
<path d="M51.0305 8.67676H45.3032V14.3744H51.0305V8.67676Z" fill="fill"/>
<path d="M46.761 6.67444H41.0337V12.3721H46.761V6.67444Z" fill="fill"/>
<path d="M42.9504 5.48608H37.2231V11.1838H42.9504V5.48608Z" fill="fill"/>
<path d="M40.0046 4.91638H34.2773V10.6141H40.0046V4.91638Z" fill="fill"/>
<path d="M38.2864 4.70471H32.5591V10.4024H38.2864V4.70471Z" fill="fill"/>
<path d="M57.8968 21.9443H52.2515V27.5606H57.8968V21.9443Z" fill="fill"/>
<path d="M54.9652 24.4675H49.3198V30.0838H54.9652V24.4675Z" fill="fill"/>
<path d="M52.0538 26.9908H46.4082V32.6071H52.0538V26.9908Z" fill="fill"/>
<path d="M49.1414 29.514H43.4795V35.1466H49.1414V29.514Z" fill="fill"/>
<path d="M46.3119 30.7676H40.6499V36.4001H46.3119V30.7676Z" fill="fill"/>
<path d="M43.7374 27.8861H38.0757V33.5187H43.7374V27.8861Z" fill="fill"/>
<path d="M41.1917 24.9885H35.5298V30.6211H41.1917V24.9885Z" fill="fill"/>
<path d="M38.7985 22.1071H33.1367V27.7396H38.7985V22.1071Z" fill="fill"/>
<path d="M41.7607 19.6163H36.0825V25.2652H41.7607V19.6163Z" fill="fill"/>
<path d="M44.7035 17.1257H39.0254V22.7746H44.7035V17.1257Z" fill="fill"/>
<path d="M47.6552 14.635H41.9771V20.2838H47.6552V14.635Z" fill="fill"/>
<path d="M50.6149 12.1443H44.9365V17.7931H50.6149V12.1443Z" fill="fill"/>
<path d="M48.0423 53.0698H42.397V58.6861H48.0423V53.0698Z" fill="fill"/>
<path d="M45.5079 50.1559H39.8623V55.7722H45.5079V50.1559Z" fill="fill"/>
<path d="M42.9676 47.2418H37.3223V52.8581H42.9676V47.2418Z" fill="fill"/>
<path d="M40.4464 44.3442H34.7847V49.9768H40.4464V44.3442Z" fill="fill"/>
<path d="M39.1735 41.5116H33.5117V47.1442H39.1735V41.5116Z" fill="fill"/>
<path d="M42.0851 38.972H36.4233V44.6046H42.0851V38.972Z" fill="fill"/>
<path d="M44.9855 36.4163H39.3237V42.0488H44.9855V36.4163Z" fill="fill"/>
<path d="M47.8805 34.0396H42.2188V39.6721H47.8805V34.0396Z" fill="fill"/>
<path d="M50.3834 36.9861H44.7051V42.6349H50.3834V36.9861Z" fill="fill"/>
<path d="M52.8837 39.9163H47.2056V45.5651H52.8837V39.9163Z" fill="fill"/>
<path d="M55.39 42.8466H49.7119V48.4954H55.39V42.8466Z" fill="fill"/>
<path d="M57.8964 45.7767H52.2183V51.4256H57.8964V45.7767Z" fill="fill"/>
<path d="M17.1976 42.8302H11.5522V48.4465H17.1976V42.8302Z" fill="fill"/>
<path d="M20.1241 40.2908H14.4785V45.9071H20.1241V40.2908Z" fill="fill"/>
<path d="M23.0384 37.7675H17.3931V43.3837H23.0384V37.7675Z" fill="fill"/>
<path d="M25.9865 35.2443H20.3247V40.8768H25.9865V35.2443Z" fill="fill"/>
<path d="M28.8161 33.9907H23.1543V39.6233H28.8161V33.9907Z" fill="fill"/>
<path d="M31.3704 36.8721H25.7085V42.5046H31.3704V36.8721Z" fill="fill"/>
<path d="M33.9191 39.7535H28.2573V45.3861H33.9191V39.7535Z" fill="fill"/>
<path d="M36.3121 42.6349H30.6504V48.2674H36.3121V42.6349Z" fill="fill"/>
<path d="M33.3798 45.1256H27.7017V50.7744H33.3798V45.1256Z" fill="fill"/>
<path d="M30.4198 47.6163H24.7417V53.2652H30.4198V47.6163Z" fill="fill"/>
<path d="M27.4742 50.0907H21.7959V55.7395H27.4742V50.0907Z" fill="fill"/>
<path d="M24.5116 52.5814H18.8335V58.2303H24.5116V52.5814Z" fill="fill"/>
</svg>
