<svg width="216" height="70" viewBox="0 0 216 70" fill="none" xmlns="http://www.w3.org/2000/svg">
<path d="M95.3093 10.386H78.2583V27.3488H95.3093V10.386Z" fill="fill"/>
<path d="M78.2584 10.386H61.2075V27.3488H78.2584V10.386Z" fill="fill"/>
<path d="M68.44 10.386H51.3892V27.3488H68.44V10.386Z" fill="fill"/>
<path d="M103.837 18.8673H86.7861V35.8301H103.837V18.8673Z" fill="fill"/>
<path d="M103.837 35.8138H86.7861V52.7766H103.837V35.8138Z" fill="fill"/>
<path d="M95.3093 44.2953H78.2583V61.2581H95.3093V44.2953Z" fill="fill"/>
<path d="M78.2584 44.2953H61.2075V61.2581H78.2584V44.2953Z" fill="fill"/>
<path d="M68.44 44.2953H51.3892V61.2581H68.44V44.2953Z" fill="fill"/>
<path d="M113.57 27.3325H96.5195V44.2953H113.57V27.3325Z" fill="fill"/>
<path d="M155.424 61.2906H172.475V44.3279H155.424V61.2906Z" fill="fill"/>
<path d="M172.458 61.2906H189.509V44.3279H172.458V61.2906Z" fill="fill"/>
<path d="M182.279 61.2906H199.33V44.3279H182.279V61.2906Z" fill="fill"/>
<path d="M146.879 52.8093H163.93V35.8465H146.879V52.8093Z" fill="fill"/>
<path d="M146.879 35.8466H163.93V18.8838L146.879 18.8838V35.8466Z" fill="fill"/>
<path d="M155.424 27.3651L172.475 27.3651V10.4023L155.424 10.4023V27.3651Z" fill="fill"/>
<path d="M172.458 27.3651L189.509 27.3651V10.4023L172.458 10.4023V27.3651Z" fill="fill"/>
<path d="M182.279 27.3651L199.33 27.3651V10.4023L182.279 10.4023V27.3651Z" fill="fill"/>
<path d="M137.146 44.3279H154.197V27.3651L137.146 27.3651V44.3279Z" fill="fill"/>
</svg>
