<svg width="216" height="70" viewBox="0 0 216 70" fill="none" xmlns="http://www.w3.org/2000/svg">
<path d="M60.2819 10.386H43.231V27.3488H60.2819V10.386Z" fill="fill"/>
<path d="M43.2311 10.386H26.1802V27.3488H43.2311V10.386Z" fill="fill"/>
<path d="M33.4127 10.386H16.3618V27.3488H33.4127V10.386Z" fill="fill"/>
<path d="M68.8097 18.8673H51.7588V35.8301H68.8097V18.8673Z" fill="fill"/>
<path d="M68.8097 35.8138H51.7588V52.7766H68.8097V35.8138Z" fill="fill"/>
<path d="M60.2819 44.2953H43.231V61.2581H60.2819V44.2953Z" fill="fill"/>
<path d="M43.2311 44.2953H26.1802V61.2581H43.2311V44.2953Z" fill="fill"/>
<path d="M33.4127 44.2953H16.3618V61.2581H33.4127V44.2953Z" fill="fill"/>
<path d="M78.5431 27.3325H61.4922V44.2953H78.5431V27.3325Z" fill="fill"/>
<path d="M120.397 61.2906H137.448V44.3279H120.397V61.2906Z" fill="fill"/>
<path d="M137.431 61.2906H154.482V44.3279H137.431V61.2906Z" fill="fill"/>
<path d="M147.252 61.2906H164.303V44.3279H147.252V61.2906Z" fill="fill"/>
<path d="M111.853 52.8093H128.903V35.8465H111.853V52.8093Z" fill="fill"/>
<path d="M111.853 35.8466H128.903V18.8838L111.853 18.8838V35.8466Z" fill="fill"/>
<path d="M120.397 27.3651L137.448 27.3651V10.4023L120.397 10.4023V27.3651Z" fill="fill"/>
<path d="M137.431 27.3651L154.482 27.3651V10.4023L137.431 10.4023V27.3651Z" fill="fill"/>
<path d="M147.252 27.3651L164.303 27.3651V10.4023L147.252 10.4023V27.3651Z" fill="fill"/>
<path d="M102.119 44.3279H119.17V27.3651L102.119 27.3651V44.3279Z" fill="fill"/>
</svg>
