<svg width="216" height="70" viewBox="0 0 216 70" fill="none" xmlns="http://www.w3.org/2000/svg">
<path d="M60.2819 10.386H43.231V27.3488H60.2819V10.386Z" fill="fill"/>
<path d="M43.2311 10.386H26.1802V27.3488H43.2311V10.386Z" fill="fill"/>
<path d="M33.4127 10.386H16.3618V27.3488H33.4127V10.386Z" fill="fill"/>
<path d="M68.8097 18.8673H51.7588V35.8301H68.8097V18.8673Z" fill="fill"/>
<path d="M68.8097 35.8138H51.7588V52.7766H68.8097V35.8138Z" fill="fill"/>
<path d="M60.2819 44.2953H43.231V61.2581H60.2819V44.2953Z" fill="fill"/>
<path d="M43.2311 44.2953H26.1802V61.2581H43.2311V44.2953Z" fill="fill"/>
<path d="M33.4127 44.2953H16.3618V61.2581H33.4127V44.2953Z" fill="fill"/>
<path d="M78.5431 27.3325H61.4922V44.2953H78.5431V27.3325Z" fill="fill"/>
<path d="M155.424 61.2906H172.475V44.3279H155.424V61.2906Z" fill="fill"/>
<path d="M172.458 61.2906H189.509V44.3279H172.458V61.2906Z" fill="fill"/>
<path d="M182.279 61.2906H199.33V44.3279H182.279V61.2906Z" fill="fill"/>
<path d="M146.879 52.8093H163.93V35.8465H146.879V52.8093Z" fill="fill"/>
<path d="M146.879 35.8466H163.93V18.8838L146.879 18.8838V35.8466Z" fill="fill"/>
<path d="M155.424 27.3651L172.475 27.3651V10.4023L155.424 10.4023V27.3651Z" fill="fill"/>
<path d="M172.458 27.3651L189.509 27.3651V10.4023L172.458 10.4023V27.3651Z" fill="fill"/>
<path d="M182.279 27.3651L199.33 27.3651V10.4023L182.279 10.4023V27.3651Z" fill="fill"/>
<path d="M137.146 44.3279H154.197V27.3651L137.146 27.3651V44.3279Z" fill="fill"/>
</svg>
