<svg width="216" height="70" viewBox="0 0 216 70" fill="none" xmlns="http://www.w3.org/2000/svg">
<path d="M152.931 38.8799H120.449V46.6559H152.931V38.8799Z" fill="fill"/>
<path d="M147.234 46.672H130.134V54.448H147.234V46.672Z" fill="fill"/>
<path d="M140.969 54.4479H123.869V62.2238H140.969V54.4479Z" fill="fill"/>
<path d="M130.137 62.2239H118.731V69.9998H130.137V62.2239Z" fill="fill"/>
<path d="M102.203 31.12L134.685 31.12V23.344L102.203 23.344V31.12Z" fill="fill"/>
<path d="M107.914 23.3278L125.014 23.3278V15.5518L107.914 15.5518V23.3278Z" fill="fill"/>
<path d="M114.183 15.5519L131.283 15.5519V7.77591L114.183 7.77591V15.5519Z" fill="fill"/>
<path d="M125 7.776L136.406 7.776V2.95639e-05L125 2.95639e-05V7.776Z" fill="fill"/>
<path d="M152.929 31.1038H102.202V38.8797H152.929V31.1038Z" fill="fill"/>
<path d="M67.0907 38.8798H34.6089V46.6557H67.0907V38.8798Z" fill="fill"/>
<path d="M61.3939 46.672H44.2939V54.448H61.3939V46.672Z" fill="fill"/>
<path d="M55.1283 54.448H38.0283V62.224H55.1283V54.448Z" fill="fill"/>
<path d="M44.2961 62.2239H32.8906V69.9998H44.2961V62.2239Z" fill="fill"/>
<path d="M16.3624 31.12L48.8442 31.12V23.344L16.3624 23.344V31.12Z" fill="fill"/>
<path d="M22.0738 23.3276L39.1738 23.3276V15.5517L22.0738 15.5517V23.3276Z" fill="fill"/>
<path d="M28.3424 15.5519L45.4424 15.5519V7.77591L28.3424 7.77591V15.5519Z" fill="fill"/>
<path d="M39.16 7.776L50.5654 7.776V2.95639e-05L39.16 2.95639e-05V7.776Z" fill="fill"/>
<path d="M67.0891 31.1038H16.3618V38.8797H67.0891V31.1038Z" fill="fill"/>
</svg>
