<svg width="216" height="70" viewBox="0 0 216 70" fill="none" xmlns="http://www.w3.org/2000/svg">
<path d="M199.634 38.8799H167.152V46.6559H199.634V38.8799Z" fill="fill"/>
<path d="M193.937 46.672H176.837V54.448H193.937V46.672Z" fill="fill"/>
<path d="M187.671 54.4479H170.571V62.2238H187.671V54.4479Z" fill="fill"/>
<path d="M176.84 62.2239H165.434V69.9998H176.84V62.2239Z" fill="fill"/>
<path d="M148.906 31.12L181.388 31.12V23.344L148.906 23.344V31.12Z" fill="fill"/>
<path d="M154.617 23.3278L171.717 23.3278V15.5518L154.617 15.5518V23.3278Z" fill="fill"/>
<path d="M160.885 15.5519L177.985 15.5519V7.77591L160.885 7.77591V15.5519Z" fill="fill"/>
<path d="M171.703 7.776L183.108 7.776V2.95639e-05L171.703 2.95639e-05V7.776Z" fill="fill"/>
<path d="M199.632 31.1038H148.905V38.8797H199.632V31.1038Z" fill="fill"/>
<path d="M113.793 38.8798H81.3115V46.6557H113.793V38.8798Z" fill="fill"/>
<path d="M108.097 46.672H90.9966V54.448H108.097V46.672Z" fill="fill"/>
<path d="M101.831 54.448H84.731V62.224H101.831V54.448Z" fill="fill"/>
<path d="M90.9987 62.2239H79.5933V69.9998H90.9987V62.2239Z" fill="fill"/>
<path d="M63.065 31.12L95.5469 31.12V23.344L63.065 23.344V31.12Z" fill="fill"/>
<path d="M68.7765 23.3276L85.8765 23.3276V15.5517L68.7765 15.5517V23.3276Z" fill="fill"/>
<path d="M75.045 15.5519L92.145 15.5519V7.77591L75.045 7.77591V15.5519Z" fill="fill"/>
<path d="M85.8626 7.776L97.2681 7.776V2.95639e-05L85.8626 2.95639e-05V7.776Z" fill="fill"/>
<path d="M113.792 31.1038H63.0645V38.8797H113.792V31.1038Z" fill="fill"/>
</svg>
