<svg width="216" height="70" viewBox="0 0 216 70" fill="none" xmlns="http://www.w3.org/2000/svg">
<path d="M199.634 38.8799H167.152V46.6559H199.634V38.8799Z" fill="fill"/>
<path d="M193.937 46.672H176.837V54.448H193.937V46.672Z" fill="fill"/>
<path d="M187.672 54.4479H170.572V62.2238H187.672V54.4479Z" fill="fill"/>
<path d="M176.84 62.2239H165.435V69.9998H176.84V62.2239Z" fill="fill"/>
<path d="M148.906 31.12L181.388 31.12V23.344L148.906 23.344V31.12Z" fill="fill"/>
<path d="M154.617 23.3278L171.717 23.3278V15.5518L154.617 15.5518V23.3278Z" fill="fill"/>
<path d="M160.886 15.5519L177.986 15.5519V7.77591L160.886 7.77591V15.5519Z" fill="fill"/>
<path d="M171.703 7.776L183.109 7.776V2.95639e-05L171.703 2.95639e-05V7.776Z" fill="fill"/>
<path d="M199.633 31.1038H148.905V38.8797H199.633V31.1038Z" fill="fill"/>
<path d="M67.0907 38.8798H34.6089V46.6557H67.0907V38.8798Z" fill="fill"/>
<path d="M61.3939 46.672H44.2939V54.448H61.3939V46.672Z" fill="fill"/>
<path d="M55.1283 54.448H38.0283V62.224H55.1283V54.448Z" fill="fill"/>
<path d="M44.2961 62.2239H32.8906V69.9998H44.2961V62.2239Z" fill="fill"/>
<path d="M16.3624 31.12L48.8442 31.12V23.344L16.3624 23.344V31.12Z" fill="fill"/>
<path d="M22.0738 23.3276L39.1738 23.3276V15.5517L22.0738 15.5517V23.3276Z" fill="fill"/>
<path d="M28.3424 15.5519L45.4424 15.5519V7.77591L28.3424 7.77591V15.5519Z" fill="fill"/>
<path d="M39.16 7.776L50.5654 7.776V2.95639e-05L39.16 2.95639e-05V7.776Z" fill="fill"/>
<path d="M67.0891 31.1038H16.3618V38.8797H67.0891V31.1038Z" fill="fill"/>
</svg>
