<svg width="216" height="70" viewBox="0 0 216 70" fill="none" xmlns="http://www.w3.org/2000/svg">
<path d="M156.02 22.579H169.144V9.52316L156.02 9.52316V22.579Z" fill="fill"/>
<path d="M175.688 22.579H188.812V9.52316L175.688 9.52316V22.579Z" fill="fill"/>
<path d="M150.108 29.1069L194.715 29.1069V16.0511L150.108 16.0511V29.1069Z" fill="fill"/>
<path d="M150.108 42.1465L194.715 42.1465V29.0907L150.108 29.0907V42.1465Z" fill="fill"/>
<path d="M156.69 48.6744L188.829 48.6744V35.6186H156.69V48.6744Z" fill="fill"/>
<path d="M162.594 55.2184H182.263V42.1626H162.594V55.2184Z" fill="fill"/>
<path d="M166.508 61.73H179.631V48.6742H166.508V61.73Z" fill="fill"/>
<path d="M143.546 35.6349H156.669V22.5791H143.546V35.6349Z" fill="fill"/>
<path d="M188.157 35.6349H201.281V22.5791H188.157V35.6349Z" fill="fill"/>
<path d="M63.4077 22.579H76.5312V9.52317L63.4077 9.52317V22.579Z" fill="fill"/>
<path d="M83.0751 22.579H96.1987V9.52317L83.0751 9.52317V22.579Z" fill="fill"/>
<path d="M57.4943 29.1069L102.102 29.1069V16.0511L57.4943 16.0511V29.1069Z" fill="fill"/>
<path d="M57.4943 42.1465L102.102 42.1465V29.0907L57.4943 29.0907V42.1465Z" fill="fill"/>
<path d="M64.0776 48.6743L96.2158 48.6743V35.6185H64.0776V48.6743Z" fill="fill"/>
<path d="M69.9803 55.2184H89.6494V42.1626H69.9803V55.2184Z" fill="fill"/>
<path d="M73.8949 61.73H87.0186V48.6742H73.8949V61.73Z" fill="fill"/>
<path d="M50.9325 35.6348H64.0562V22.579H50.9325V35.6348Z" fill="fill"/>
<path d="M95.5443 35.6348H108.668V22.579H95.5443V35.6348Z" fill="fill"/>
</svg>
