<svg width="216" height="70" viewBox="0 0 216 70" fill="none" xmlns="http://www.w3.org/2000/svg">
<path d="M156.02 22.579H169.144V9.52316L156.02 9.52316V22.579Z" fill="fill"/>
<path d="M175.688 22.579H188.812V9.52316L175.688 9.52316V22.579Z" fill="fill"/>
<path d="M150.107 29.1069L194.714 29.1069V16.0511L150.107 16.0511V29.1069Z" fill="fill"/>
<path d="M150.107 42.1465L194.714 42.1465V29.0907L150.107 29.0907V42.1465Z" fill="fill"/>
<path d="M156.69 48.6744L188.828 48.6744V35.6186H156.69V48.6744Z" fill="fill"/>
<path d="M162.593 55.2184H182.262V42.1626H162.593V55.2184Z" fill="fill"/>
<path d="M166.507 61.73H179.631V48.6742H166.507V61.73Z" fill="fill"/>
<path d="M143.545 35.6349H156.669V22.5791H143.545V35.6349Z" fill="fill"/>
<path d="M188.157 35.6349H201.28V22.5791H188.157V35.6349Z" fill="fill"/>
<path d="M28.3803 22.579H41.5039V9.52317L28.3803 9.52317V22.579Z" fill="fill"/>
<path d="M48.0477 22.579H61.1714V9.52317L48.0477 9.52317V22.579Z" fill="fill"/>
<path d="M22.4669 29.1069L67.0742 29.1069V16.0511L22.4669 16.0511V29.1069Z" fill="fill"/>
<path d="M22.4669 42.1465L67.0742 42.1465V29.0907L22.4669 29.0907V42.1465Z" fill="fill"/>
<path d="M29.0503 48.6743L61.1885 48.6743V35.6185H29.0503V48.6743Z" fill="fill"/>
<path d="M34.9529 55.2184H54.6221V42.1626H34.9529V55.2184Z" fill="fill"/>
<path d="M38.8675 61.73H51.9912V48.6742H38.8675V61.73Z" fill="fill"/>
<path d="M15.9051 35.6348H29.0288V22.579H15.9051L15.9051 35.6348Z" fill="fill"/>
<path d="M60.517 35.6348H73.6406V22.579H60.517V35.6348Z" fill="fill"/>
</svg>
