<svg width="216" height="70" viewBox="0 0 216 70" fill="none" xmlns="http://www.w3.org/2000/svg">
<path d="M120.993 22.579H134.117V9.52316L120.993 9.52316V22.579Z" fill="fill"/>
<path d="M140.661 22.579H153.785V9.52316L140.661 9.52316V22.579Z" fill="fill"/>
<path d="M115.08 29.1069L159.688 29.1069V16.0511L115.08 16.0511V29.1069Z" fill="fill"/>
<path d="M115.08 42.1465L159.688 42.1465V29.0907L115.08 29.0907V42.1465Z" fill="fill"/>
<path d="M121.663 48.6744L153.801 48.6744V35.6186H121.663V48.6744Z" fill="fill"/>
<path d="M127.566 55.2184H147.235V42.1626H127.566V55.2184Z" fill="fill"/>
<path d="M131.48 61.73H144.604V48.6742H131.48V61.73Z" fill="fill"/>
<path d="M108.518 35.6349H121.642V22.5791H108.518V35.6349Z" fill="fill"/>
<path d="M153.13 35.6349H166.253V22.5791H153.13V35.6349Z" fill="fill"/>
<path d="M28.3803 22.579H41.5039V9.52317L28.3803 9.52317V22.579Z" fill="fill"/>
<path d="M48.0477 22.579H61.1714V9.52317L48.0477 9.52317V22.579Z" fill="fill"/>
<path d="M22.4669 29.1069L67.0742 29.1069V16.0511L22.4669 16.0511V29.1069Z" fill="fill"/>
<path d="M22.4669 42.1465L67.0742 42.1465V29.0907L22.4669 29.0907V42.1465Z" fill="fill"/>
<path d="M29.0503 48.6743L61.1885 48.6743V35.6185H29.0503V48.6743Z" fill="fill"/>
<path d="M34.9529 55.2184H54.6221V42.1626H34.9529V55.2184Z" fill="fill"/>
<path d="M38.8675 61.73H51.9912V48.6742H38.8675V61.73Z" fill="fill"/>
<path d="M15.9051 35.6348H29.0288V22.579H15.9051L15.9051 35.6348Z" fill="fill"/>
<path d="M60.517 35.6348H73.6406V22.579H60.517V35.6348Z" fill="fill"/>
</svg>
