<svg width="216" height="70" viewBox="0 0 216 70" fill="none" xmlns="http://www.w3.org/2000/svg">
<path d="M49.0899 47.2256H71.9985V24.4349L49.0899 24.4349V47.2256Z" fill="fill"/>
<path d="M37.6363 40.714H60.5449V17.9233L37.6363 17.9233V40.714Z" fill="fill"/>
<path d="M8.7738e-05 47.2256H22.9087L22.9087 24.4349L8.7738e-05 24.4349L8.7738e-05 47.2256Z" fill="fill"/>
<path d="M14.7257 40.714H37.6343V17.9233L14.7257 17.9233L14.7257 40.714Z" fill="fill"/>
<path d="M27.8184 35.8302H50.7271V13.0395L27.8184 13.0395L27.8184 35.8302Z" fill="fill"/>
<path d="M131.884 24.4186H108.975V47.2093H131.884V24.4186Z" fill="fill"/>
<path d="M143.338 17.9069H120.429V40.6976H143.338V17.9069Z" fill="fill"/>
<path d="M180.974 24.4186H158.065V47.2093H180.974V24.4186Z" fill="fill"/>
<path d="M166.246 17.9069H143.337V40.6976H166.246V17.9069Z" fill="fill"/>
<path d="M153.159 13.0232H130.25V35.8139H153.159V13.0232Z" fill="fill"/>
</svg>
