<svg width="216" height="70" viewBox="0 0 216 70" fill="none" xmlns="http://www.w3.org/2000/svg">
<path d="M84.1173 47.2256H107.026V24.4349L84.1173 24.4349V47.2256Z" fill="fill"/>
<path d="M72.6637 40.714H95.5723V17.9233L72.6637 17.9233V40.714Z" fill="fill"/>
<path d="M35.0274 47.2256H57.936V24.4349L35.0274 24.4349V47.2256Z" fill="fill"/>
<path d="M49.753 40.714H72.6616V17.9233L49.753 17.9233V40.714Z" fill="fill"/>
<path d="M62.8458 35.8302H85.7544V13.0395L62.8458 13.0395V35.8302Z" fill="fill"/>
<path d="M166.91 24.4186H144.001V47.2093H166.91V24.4186Z" fill="fill"/>
<path d="M178.364 17.9069H155.456V40.6976H178.364V17.9069Z" fill="fill"/>
<path d="M216 24.4186H193.092V47.2093H216V24.4186Z" fill="fill"/>
<path d="M201.272 17.9069H178.363V40.6976H201.272V17.9069Z" fill="fill"/>
<path d="M188.185 13.0232H165.276V35.8139H188.185V13.0232Z" fill="fill"/>
</svg>
