<svg width="216" height="70" viewBox="0 0 216 70" fill="none" xmlns="http://www.w3.org/2000/svg">
<path d="M49.0899 47.2256H71.9985V24.4349L49.0899 24.4349V47.2256Z" fill="fill"/>
<path d="M37.6363 40.714H60.5449V17.9233L37.6363 17.9233V40.714Z" fill="fill"/>
<path d="M8.7738e-05 47.2256H22.9087L22.9087 24.4349L8.7738e-05 24.4349L8.7738e-05 47.2256Z" fill="fill"/>
<path d="M14.7257 40.714H37.6343V17.9233L14.7257 17.9233L14.7257 40.714Z" fill="fill"/>
<path d="M27.8184 35.8302H50.7271V13.0395L27.8184 13.0395L27.8184 35.8302Z" fill="fill"/>
<path d="M166.91 24.4186H144.001V47.2093H166.91V24.4186Z" fill="fill"/>
<path d="M178.364 17.9069H155.456V40.6976H178.364V17.9069Z" fill="fill"/>
<path d="M216 24.4186H193.092V47.2093H216V24.4186Z" fill="fill"/>
<path d="M201.272 17.9069H178.363V40.6976H201.272V17.9069Z" fill="fill"/>
<path d="M188.185 13.0232H165.276V35.8139H188.185V13.0232Z" fill="fill"/>
</svg>
