<svg width="32" height="32" viewBox="0 0 32 32" fill="none" xmlns="http://www.w3.org/2000/svg">
<path d="M25.7081 24.2921C25.801 24.385 25.8747 24.4953 25.9249 24.6167C25.9752 24.7381 26.0011 24.8682 26.0011 24.9996C26.0011 25.131 25.9752 25.2611 25.9249 25.3825C25.8747 25.5039 25.801 25.6142 25.7081 25.7071C25.6151 25.8 25.5048 25.8737 25.3835 25.924C25.2621 25.9743 25.132 26.0001 25.0006 26.0001C24.8692 26.0001 24.7391 25.9743 24.6177 25.924C24.4963 25.8737 24.386 25.8 24.2931 25.7071L16.0006 17.4133L7.70806 25.7071C7.52042 25.8947 7.26592 26.0001 7.00056 26.0001C6.73519 26.0001 6.4807 25.8947 6.29306 25.7071C6.10542 25.5194 6 25.2649 6 24.9996C6 24.7342 6.10542 24.4797 6.29306 24.2921L14.5868 15.9996L6.29306 7.70708C6.10542 7.51944 6 7.26494 6 6.99958C6 6.73422 6.10542 6.47972 6.29306 6.29208C6.4807 6.10444 6.73519 5.99902 7.00056 5.99902C7.26592 5.99902 7.52042 6.10444 7.70806 6.29208L16.0006 14.5858L24.2931 6.29208C24.4807 6.10444 24.7352 5.99902 25.0006 5.99902C25.2659 5.99902 25.5204 6.10444 25.7081 6.29208C25.8957 6.47972 26.0011 6.73422 26.0011 6.99958C26.0011 7.26494 25.8957 7.51944 25.7081 7.70708L17.4143 15.9996L25.7081 24.2921Z" fill="black"/>
</svg>
