<svg width="42" height="42" viewBox="0 0 42 42" fill="none" xmlns="http://www.w3.org/2000/svg">
<path d="M0 21C0 9.40202 9.40202 0 21 0C32.598 0 42 9.40202 42 21C42 32.598 32.598 42 21 42C9.40202 42 0 32.598 0 21Z" fill="#22252A"/>
<path d="M28.9321 22.0407C28.7433 23.4806 28.166 24.842 27.2622 25.9788C26.3585 27.1157 25.1623 27.985 23.802 28.4937C22.4418 29.0024 20.9687 29.1312 19.5407 28.8663C18.1128 28.6013 16.7839 27.9527 15.6966 26.99C14.6093 26.0272 13.8046 24.7867 13.3688 23.4013C12.9329 22.016 12.8824 20.5381 13.2226 19.1263C13.5629 17.7144 14.281 16.4218 15.3001 15.387C16.3191 14.3523 17.6006 13.6145 19.0071 13.2527C22.9061 12.2527 26.9421 14.2597 28.4321 17.9997" stroke="white" stroke-width="2" stroke-linecap="round" stroke-linejoin="round"/>
<path d="M29 13V18H24" stroke="white" stroke-width="2" stroke-linecap="round" stroke-linejoin="round"/>
</svg>
