<svg width="170" height="60" viewBox="0 0 170 60" fill="none" xmlns="http://www.w3.org/2000/svg">
<path d="M38.6178 29.9368L18.7656 33.743L22.5347 53.7912L42.3869 49.985L38.6178 29.9368Z" fill="fill"/>
<path d="M32.7027 5.61451e-05L18.083 2.8031L20.8586 17.5672L35.4784 14.7641L32.7027 5.61451e-05Z" fill="fill"/>
<path d="M21.0143 0.00103271L6.39453 2.80408L9.17017 17.5681L23.7899 14.7651L21.0143 0.00103271Z" fill="fill"/>
<path d="M14.6198 6.43901L0 9.24207L2.77564 24.0061L17.3954 21.2031L14.6198 6.43901Z" fill="fill"/>
<path d="M14.6256 16.1082L0.00585938 18.9113L2.7815 33.6753L17.4013 30.8723L14.6256 16.1082Z" fill="fill"/>
<path d="M49.6178 33.7598L29.7656 37.566L33.5347 57.6142L53.3869 53.808L49.6178 33.7598Z" fill="fill"/>
<path d="M166.231 5.45228L146.379 9.25854L150.148 29.3067L170 25.5005L166.231 5.45228Z" fill="fill"/>
<path d="M154.548 13.6328L134.696 17.4391L138.465 37.4873L158.318 33.681L154.548 13.6328Z" fill="fill"/>
<path d="M144.017 20.1048L40.502 39.9518L44.271 60L147.786 40.153L144.017 20.1048Z" fill="fill"/>
</svg>
